<?xml version="1.0"?>
<svg width="700" height="700"  viewBox="0 0 1 1" 
     xmlns="http://www.w3.org/2000/svg"
     xmlns:xlink="http://www.w3.org/1999/xlink">

<defs><linearGradient id="BB" x1="97%" y1="0%" x2="100%" y2="100%" >
<stop offset="0%" stop-color="#1e3324" stop-opacity="1"/><stop offset="100%" stop-color="#6bb27d" stop-opacity="1"/></linearGradient><linearGradient id="AB" x1="0.30000001192092896" y1="0.07157612136119784" x2="0.699999988079071" y2="0.6784238674629313" gradientUnits="userSpaceOnUse">
<stop offset="0%" stop-color="#ffffff" stop-opacity="1"/><stop offset="20%" stop-color="#7f7f7f" stop-opacity="1"/><stop offset="40%" stop-color="#ffffff" stop-opacity="1"/><stop offset="60%" stop-color="#000000" stop-opacity="1"/><stop offset="80%" stop-color="#ffffff" stop-opacity="1"/><stop offset="100%" stop-color="#000000" stop-opacity="1"/></linearGradient><linearGradient id="CB" x1="100%" y1="0%" x2="100%" y2="100%" >
<stop offset="0%" stop-color="#0f1912" stop-opacity="1"/><stop offset="100%" stop-color="#4c7f5a" stop-opacity="1"/></linearGradient><linearGradient id="AB" x1="0.30000001192092896" y1="0.07157612136119784" x2="0.699999988079071" y2="0.6784238674629313" gradientUnits="userSpaceOnUse">
<stop offset="0%" stop-color="#ffffff" stop-opacity="1"/><stop offset="20%" stop-color="#7f7f7f" stop-opacity="1"/><stop offset="40%" stop-color="#ffffff" stop-opacity="1"/><stop offset="60%" stop-color="#000000" stop-opacity="1"/><stop offset="80%" stop-color="#ffffff" stop-opacity="1"/><stop offset="100%" stop-color="#000000" stop-opacity="1"/></linearGradient><linearGradient id="DB" x1="0%" y1="0%" x2="100%" y2="100%" >
<stop offset="0%" stop-color="#826644" stop-opacity="1"/><stop offset="100%" stop-color="#1a140d" stop-opacity="1"/></linearGradient><linearGradient id="EB" x1="0.4864330607704879" y1="0.6884238672394138" x2="0.5135669392295121" y2="0.6894238672869113" gradientUnits="userSpaceOnUse">
<stop offset="0%" stop-color="#413322" stop-opacity="1"/><stop offset="100%" stop-color="#1a140d" stop-opacity="1"/></linearGradient><linearGradient id="FB" x1="0.4864330607704879" y1="0.6884238672394138" x2="0.5127501586657708" y2="0.715542863258928" gradientUnits="userSpaceOnUse">
<stop offset="0%" stop-color="#a52a2a" stop-opacity="1"/><stop offset="50%" stop-color="#421010" stop-opacity="1"/><stop offset="100%" stop-color="#210808" stop-opacity="1"/></linearGradient><linearGradient id="GB" x1="0.4868118176573894" y1="0.6998909898199869" x2="0.5124869026544443" y2="0.7270201299425209" gradientUnits="userSpaceOnUse">
<stop offset="0%" stop-color="#a52a2a" stop-opacity="1"/><stop offset="50%" stop-color="#421010" stop-opacity="1"/><stop offset="100%" stop-color="#210808" stop-opacity="1"/></linearGradient><linearGradient id="HB" x1="0.4871417273053341" y1="0.711360662597296" x2="0.5122724938820744" y2="0.7385059768454711" gradientUnits="userSpaceOnUse">
<stop offset="0%" stop-color="#a52a2a" stop-opacity="1"/><stop offset="50%" stop-color="#421010" stop-opacity="1"/><stop offset="100%" stop-color="#210808" stop-opacity="1"/></linearGradient><linearGradient id="IB" x1="0.487422789714322" y1="0.7228354357680774" x2="0.5121069323486614" y2="0.7500029541645152" gradientUnits="userSpaceOnUse">
<stop offset="0%" stop-color="#a52a2a" stop-opacity="1"/><stop offset="50%" stop-color="#421010" stop-opacity="1"/><stop offset="100%" stop-color="#210808" stop-opacity="1"/></linearGradient><linearGradient id="JB" x1="0.4876550048843532" y1="0.7343178595290669" x2="0.5119902180542052" y2="0.7615136120963888" gradientUnits="userSpaceOnUse">
<stop offset="0%" stop-color="#a52a2a" stop-opacity="1"/><stop offset="50%" stop-color="#421010" stop-opacity="1"/><stop offset="100%" stop-color="#210808" stop-opacity="1"/></linearGradient><linearGradient id="KB" x1="0.4878383728154276" y1="0.7458104840770007" x2="0.5119223509987056" y2="0.7730405008378283" gradientUnits="userSpaceOnUse">
<stop offset="0%" stop-color="#a52a2a" stop-opacity="1"/><stop offset="50%" stop-color="#421010" stop-opacity="1"/><stop offset="100%" stop-color="#210808" stop-opacity="1"/></linearGradient><linearGradient id="LB" x1="0.4879728935075452" y1="0.7573158596086149" x2="0.5119033311821629" y2="0.7845861705855695" gradientUnits="userSpaceOnUse">
<stop offset="0%" stop-color="#a52a2a" stop-opacity="1"/><stop offset="50%" stop-color="#421010" stop-opacity="1"/><stop offset="100%" stop-color="#210808" stop-opacity="1"/></linearGradient><linearGradient id="MB" x1="0.488058566960706" y1="0.7688365363206455" x2="0.511933158604577" y2="0.7961531715363486" gradientUnits="userSpaceOnUse">
<stop offset="0%" stop-color="#a52a2a" stop-opacity="1"/><stop offset="50%" stop-color="#421010" stop-opacity="1"/><stop offset="100%" stop-color="#210808" stop-opacity="1"/></linearGradient><linearGradient id="NB" x1="0.4880953931749101" y1="0.7803750644098286" x2="0.5120118332659478" y2="0.8077440538869016" gradientUnits="userSpaceOnUse">
<stop offset="0%" stop-color="#a52a2a" stop-opacity="1"/><stop offset="50%" stop-color="#421010" stop-opacity="1"/><stop offset="100%" stop-color="#210808" stop-opacity="1"/></linearGradient><linearGradient id="OB" x1="0.48808337215015735" y1="0.7919339940729004" x2="0.5121393551662754" y2="0.8193613678339647" gradientUnits="userSpaceOnUse">
<stop offset="0%" stop-color="#a52a2a" stop-opacity="1"/><stop offset="50%" stop-color="#421010" stop-opacity="1"/><stop offset="100%" stop-color="#210808" stop-opacity="1"/></linearGradient><linearGradient id="PB" x1="0.48802250388644786" y1="0.8035158755065968" x2="0.5123157243055598" y2="0.831007663574274" gradientUnits="userSpaceOnUse">
<stop offset="0%" stop-color="#a52a2a" stop-opacity="1"/><stop offset="50%" stop-color="#421010" stop-opacity="1"/><stop offset="100%" stop-color="#210808" stop-opacity="1"/></linearGradient><linearGradient id="QB" x1="0.4879127883837816" y1="0.8151232589076539" x2="0.512540940683801" y2="0.8426854913045654" gradientUnits="userSpaceOnUse">
<stop offset="0%" stop-color="#a52a2a" stop-opacity="1"/><stop offset="50%" stop-color="#421010" stop-opacity="1"/><stop offset="100%" stop-color="#210808" stop-opacity="1"/></linearGradient><linearGradient id="RB" x1="0.4877542256421586" y1="0.8267586944728078" x2="0.5128150043009989" y2="0.8543974012215751" gradientUnits="userSpaceOnUse">
<stop offset="0%" stop-color="#a52a2a" stop-opacity="1"/><stop offset="50%" stop-color="#421010" stop-opacity="1"/><stop offset="100%" stop-color="#210808" stop-opacity="1"/></linearGradient><linearGradient id="SB" x1="0.4875468156615788" y1="0.8384247323987948" x2="0.5131379151571536" y2="0.8661459435220391" gradientUnits="userSpaceOnUse">
<stop offset="0%" stop-color="#a52a2a" stop-opacity="1"/><stop offset="50%" stop-color="#421010" stop-opacity="1"/><stop offset="100%" stop-color="#210808" stop-opacity="1"/></linearGradient><linearGradient id="TB" x1="0.4872905584420422" y1="0.8501239228823505" x2="0.513509673252265" y2="0.8779336684026936" gradientUnits="userSpaceOnUse">
<stop offset="0%" stop-color="#a52a2a" stop-opacity="1"/><stop offset="50%" stop-color="#421010" stop-opacity="1"/><stop offset="100%" stop-color="#210808" stop-opacity="1"/></linearGradient><linearGradient id="UB" x1="0.48698545398354887" y1="0.8618588161202113" x2="0.5135669392295121" y2="0.8796259622592624" gradientUnits="userSpaceOnUse">
<stop offset="0%" stop-color="#a52a2a" stop-opacity="1"/><stop offset="50%" stop-color="#421010" stop-opacity="1"/><stop offset="100%" stop-color="#210808" stop-opacity="1"/></linearGradient><linearGradient id="VB" x1="0.48663150228609875" y1="0.8736319623091132" x2="0.5135669392295121" y2="0.8796259622592624" gradientUnits="userSpaceOnUse">
<stop offset="0%" stop-color="#a52a2a" stop-opacity="1"/><stop offset="50%" stop-color="#421010" stop-opacity="1"/><stop offset="100%" stop-color="#210808" stop-opacity="1"/></linearGradient><linearGradient id="WB" x1="0.4864330607704879" y1="0.6884238672394138" x2="0.5135669392295121" y2="0.6894238672869113" gradientUnits="userSpaceOnUse">
<stop offset="0%" stop-color="#271e14" stop-opacity="1"/><stop offset="100%" stop-color="#1a140d" stop-opacity="1"/></linearGradient><g id="uglow" ></g><path d="M 0.46342848144258975,0.6784238674629313 C 0.46342848144258975,0.5950793018069869 0.46342848144258975,0.5117347361510425 0.46342848144258975,0.4283901704950981 C 0.46342848144258975,0.34504560483915364 0.46342848144258975,0.2617010391832092 0.46342848144258975,0.1783564735272648 C 0.46952373453549145,0.16055974816625362 0.47561898762839316,0.14276302280524247 0.4817142407212949,0.12496629744423132 C 0.4878094938141966,0.10716957208322016 0.4939047469070983,0.08937284672220899 0.5,0.07157612136119784 C 0.5,0.273858703395109 0.5,0.4761412854290201 0.5,0.6784238674629313 C 3.4878094938141966,0.6784238674629313 1.9756189876283932,0.6784238674629313 0.46342848144258975,0.6784238674629313 "  /><path d="M 0.46842848133083104,0.6784238674629313 C 0.46842848133083104,0.6784238674629313 0.46842848133083104,0.6784238674629313 0.46842848133083104,0.6784238674629313 C 0.4702662291236199,0.6743440674724782 0.4702662291236199,0.6702642674820252 0.46842848133083104,0.6661722159978423 C 0.46932860269831705,0.6641739466156747 0.46932860269831705,0.6621756772335072 0.46842848133083104,0.6601714071197197 C 0.469328602698317,0.6581731377375521 0.469328602698317,0.6561748683553847 0.46842848133083104,0.6541705982415972 C 0.46936610775194243,0.6520890676426169 0.46936610775194243,0.6500075370436365 0.46842848133083104,0.6479197556825742 C 0.46932860270250853,0.6459214862911016 0.46932860270250853,0.6439232168996288 0.46842848133083104,0.6419189467765082 C 0.46932860269831705,0.6399206773943407 0.46932860269831705,0.6379224080121731 0.46842848133083104,0.6359181378983856 C 0.46932860269831705,0.6339198685162181 0.46932860269831705,0.6319215991340505 0.46842848133083104,0.629917329020263 C 0.46936610774858917,0.6278357984287267 0.46936610774858917,0.6257542678371906 0.46842848133083104,0.6236664864835948 C 0.46932860270586174,0.621668217084678 0.46932860270586174,0.6196699476857612 0.46842848133083104,0.6176656775551741 C 0.46932860269831705,0.6156674081730066 0.46932860269831705,0.6136691387908391 0.46842848133083104,0.6116648686770515 C 0.46932860269831705,0.609666599294884 0.46932860269831705,0.6076683299127165 0.46842848133083104,0.6056640597989289 C 0.46936610774523596,0.6035825292148368 0.46936610774523596,0.6015009986307448 0.46842848133083104,0.5994132172846155 C 0.469328602709215,0.5974149478782546 0.469328602709215,0.5954166784718936 0.46842848133083104,0.5934124083338399 C 0.46932860269831705,0.5914141389516724 0.46932860269831705,0.5894158695695049 0.46842848133083104,0.5874115994557173 C 0.46932860269831705,0.5854133300735498 0.46932860269831705,0.5834150606913823 0.46842848133083104,0.5814107905775947 C 0.46936610774188275,0.5793292600009468 0.46936610774188275,0.5772477294242988 0.46842848133083104,0.5751599480856361 C 0.4693286027125682,0.573161678671831 0.4693286027125682,0.571163409258026 0.46842848133083104,0.5691591391125058 C 0.46932860269831705,0.5671608697303383 0.46932860269831705,0.5651626003481708 0.46842848133083104,0.5631583302343832 C 0.46932860269831705,0.5611600608522157 0.46932860269831705,0.5591617914700482 0.46842848133083104,0.5571575213562606 C 0.46936610773852955,0.5550759907870568 0.46936610773852955,0.552994460217853 0.46842848133083104,0.5509066788866567 C 0.4693286027159214,0.5489084094654074 0.4693286027159214,0.5469101400441583 0.46842848133083104,0.5449058698911716 C 0.46932860269831705,0.5429076005090041 0.46932860269831705,0.5409093311268366 0.46842848133083104,0.538905061013049 C 0.469328602698317,0.5369067916308815 0.469328602698317,0.5349085222487141 0.46842848133083104,0.5329042521349265 C 0.46936610773517634,0.5308227215731669 0.46936610773517634,0.5287411910114072 0.46842848133083104,0.5266534096876774 C 0.4693286027192746,0.5246551402589841 0.4693286027192746,0.5226568708302907 0.46842848133083104,0.5206526006698375 C 0.46932860269831705,0.51865433128767 0.46932860269831705,0.5166560619055025 0.46842848133083104,0.5146517917917149 C 0.46932860269831705,0.5126535224095474 0.46932860269831705,0.5106552530273799 0.46842848133083104,0.5086509829135923 C 0.46936610773182313,0.5065694523592769 0.46936610773182313,0.5044879218049613 0.46842848133083104,0.502400140488698 C 0.46932860272262783,0.5004018710525605 0.46932860272262783,0.49840360161642305 0.46842848133083104,0.4963993314485034 C 0.469328602698317,0.49440106206633594 0.469328602698317,0.4924027926841684 0.46842848133083104,0.49039852257038086 C 0.46932860269831705,0.48840025318821334 0.46932860269831705,0.4864019838060458 0.46842848133083104,0.48439771369225826 C 0.46936610772846993,0.4823161831453868 0.46936610772846993,0.4802346525985154 0.46842848133083104,0.47814687128971856 C 0.46932860272598104,0.47614860184613694 0.46932860272598104,0.4741503324025554 0.46842848133083104,0.47214606222716926 C 0.46932860269831705,0.47014779284500174 0.46932860269831705,0.4681495234628342 0.46842848133083104,0.46614525334904666 C 0.469328602698317,0.4641469839668792 0.469328602698317,0.4621487145847117 0.46842848133083104,0.4601444444709241 C 0.46936610772511667,0.45806291393149684 0.46936610772511667,0.4559813833920696 0.46842848133083104,0.45389360209073926 C 0.46932860272933424,0.4518953326397135 0.46932860272933424,0.4498970631886877 0.46842848133083104,0.4478927930058351 C 0.469328602698317,0.44589452362366766 0.469328602698317,0.44389625424150014 0.46842848133083104,0.4418919841277126 C 0.46932860269831705,0.43989371474554506 0.46932860269831705,0.43789544536337754 0.46842848133083104,0.43589117524959 C 0.46936610772176346,0.43380964471760686 0.46936610772176346,0.4317281141856237 0.46842848133083104,0.42964033289175985 C 0.46936610480760094,0.42755880834619797 0.4693661046267253,0.42547728388211165 0.4684284807876609,0.4233895087558418 C 0.46932859093784995,0.42139125961589113 0.4693285891927579,0.419393011262018 0.46842847554714434,0.41738876302574957 C 0.4693285634929962,0.41539055399816516 0.4693285583098096,0.4133923473053496 0.46842845998201965,0.4113881424039366 C 0.46932851366648237,0.40938999524741004 0.46932850316987595,0.4073918528190847 0.46842842846067956,0.4053877147685783 C 0.469365934874698,0.40330640089909026 0.4693659162687554,0.4012250954106577 0.46842837258697884,0.3991375482171976 C 0.4693283188127772,0.39713959509933194 0.46932829164498774,0.3951416542192096 0.46842829100202654,0.39313772583169043 C 0.46932816614725903,0.391139901090901 0.4693281279619364,0.3891420935507079 0.4684281763313896,0.3871383038663858 C 0.4693279683423531,0.3851406292539273 0.4693279172641711,0.38314297764965943 0.46842802294345787,0.3811393501771272 C 0.46936520480771804,0.37905862239842353 0.4693651358695695,0.3769779256729407 0.4684278159219935,0.37489101174268924 C 0.46932740069549983,0.3728937113534092 0.4693273174714433,0.370896448452444 0.4684275659999049,0.3688932253306006 C 0.4693270308166285,0.36689614158308465 0.46932692899560174,0.36489910370089734 0.4684272602310598,0.362896114650569 C 0.4693640621541545,0.3608160729910825 0.46936393429330614,0.3587360889265743 0.46842687626455315,0.35664991633915033 C 0.46932605875254646,0.354653342417628 0.4693259131397419,0.35265683408746085 0.4684264389888695,0.3506543959054051 C 0.4693254647369645,0.3486581050516153 0.4693252948230787,0.346661890735614 0.46842592873696665,0.3446597583970713 C 0.4693247856972919,0.3426637723493072 0.46932458960699286,0.3406678746305091 0.4684253398772174,0.33866607163107726 C 0.46936145664339024,0.33658726726617116 0.46936122252565543,0.33450856835970705 0.46842463682096575,0.33242373265307446 C 0.46932311167374474,0.3304284366158637 0.46932285631697274,0.328433255604229 0.46842386998382246,0.3264321981608167 C 0.4693221392205096,0.3244372734559842 0.46932185198322285,0.32244247813732047 0.46842300740939896,0.3204418219056939 C 0.46932105898543647,0.3184472902641603 0.469320737992297,0.3164529032141348 0.46842204346604976,0.31445267168250207 C 0.4693572693170987,0.31237547618139555 0.4693568970325131,0.3102984483760528 0.4684209254943356,0.3082153510261205 C 0.4693184951839945,0.30622168957972923 0.46931809944968433,0.30422820639204096 0.46841973710302925,0.3022289151042068 C 0.469317052300419,0.30023571325481013 0.46931661710616324,0.2982427074388673 0.46841843021338925,0.29624391273105966 C 0.4693528498895479,0.2941681730649376 0.4693523525799015,0.2920926574121758 0.4684169367910469,0.2900111330733611 C 0.46931369501075115,0.2880189370219829 0.4693131734294163,0.2860269759171582 0.4684153704807523,0.28402926797079864 C 0.4693118374251057,0.2820375979423225 0.46931127067971934,0.2800461832045678 0.46841366854267713,0.2780490436101669 C 0.4693471655081352,0.27597497022565837 0.4693465251004982,0.2739011853130662 0.46841174539664476,0.27182146137032803 C 0.4693075802719943,0.269830932742767 0.4693069154936187,0.2678407035649327 0.46840974906521227,0.26584479724965177 C 0.4693052558821405,0.26385486107087963 0.46930454023560925,0.2618652472554185 0.4684075999765575,0.25986998106400616 C 0.46934005769550574,0.25779778440773854 0.46933925611694843,0.25572594882290284 0.4684051928337738,0.2536482526611985 C 0.4692999924903676,0.2516595934862604 0.46929916716493497,0.24967130607954519 0.4684027143790532,0.2476774196849487 C 0.4692971491941677,0.2456894193846641 0.4692962672964772,0.2437018163356021 0.46840006603767453,0.2417086418367601 C 0.4693313679743046,0.23963853235535904 0.46933038715189745,0.2375688646858649 0.4683971206250785,0.23549342369014964 C 0.4692907731885146,0.23350683599664207 0.4692897699660086,0.23152070020517632 0.4683941079449192,0.22952905202087207 C 0.46932456871832523,0.22746046155792168 0.46932345744456944,0.2253923716687486 0.4683907707865365,0.22331857195324262 C 0.4692835906337263,0.22133348802279063 0.4692824582693493,0.21934891416639601 0.4683873702929557,0.2173588907796137 C 0.4692797638256519,0.21537457673682406 0.4692785653561385,0.21339080254518106 0.4683837712854544,0.2114016110016043 C 0.46931288151807005,0.20933545941883636 0.4693115607963908,0.2072699027557597 0.4683798051543366,0.20519873821945178 C 0.469271290940188,0.20321606340761914 0.46926995168281954,0.2012339918648876 0.46837578336048913,0.19924657150117064 C 0.469303921701592,0.19718217501302282 0.469302450254597,0.19511844133885453 0.46837136460080125,0.19304917316011372 C 0.4692618921712157,0.19106822874451984 0.46926040430896254,0.18908795453716606 0.4683668965460446,0.1871024038452999 C 0.46929401049001107,0.18503985726924918 0.46929238017487745,0.1829780450694045 0.46836200070486567,0.18091077569733258 C 0.4697351600391202,0.17915385201617756 0.4702187825612317,0.1771790803462405 0.46981432057236955,0.17498053051869225 C 0.4713327634285921,0.17337000945450018 0.47199198630132466,0.17146254114236578 0.4717939688133209,0.16925239752304083 C 0.47330974574299917,0.16764250417473686 0.4739669874364985,0.16573655600159254 0.4737676675671623,0.1635288295092827 C 0.4752790055322889,0.16192179847839988 0.47593362887211615,0.16001989206129938 0.4757335033971646,0.1578173989009053 C 0.4772526816693586,0.15620048602571648 0.4779101223754653,0.1542874286803663 0.47770779978645583,0.15207248202193924 C 0.47921934436800606,0.15046245806799818 0.4798730187163795,0.14855798620147878 0.4796707857923093,0.14635334736135208 C 0.48118718687248435,0.14473720232320886 0.48184260637308013,0.14282582326786153 0.48163901249545976,0.14061347039223962 C 0.4831588563425549,0.1389929861275176 0.4838155129811912,0.13707671057618892 0.483610954327813,0.13485888923118045 C 0.4851187307924496,0.13325088206559965 0.485770027852349,0.13134949783813327 0.485566801329332,0.1291490267598221 C 0.4871029549750339,0.12751021691377828 0.48776630792624487,0.1255725994240312 0.4875588522081967,0.12333035569442853 C 0.48905790435088803,0.12172337462541293 0.4897023329448489,0.11982611039817073 0.4894940731861419,0.11763286559595641 C 0.49099633954155547,0.11600080323215509 0.4916340480171744,0.11408148479054263 0.4914091136287859,0.11186914662635503 C 0.49289658945242804,0.11021559985441977 0.4935139570193654,0.10828395957639758 0.49326307026236255,0.10606842514548956 C 0.49471589493632223,0.10439736171890275 0.4952978968567839,0.10246413525804217 0.49501082375473826,0.10026294035285849 C 0.4964189212430038,0.0985641536576532 0.49695335904542237,0.09662462920714715 0.4966157420596362,0.09443854267865295 C 0.49797371125021844,0.09268867251526586 0.4984473472171594,0.09072545281149248 0.49803807227235974,0.08854298808864575 C 0.49931779159385337,0.08673543292758208 0.49970477562292853,0.08475356063162418 0.4992001864588098,0.08259141970901646 C 0.5003688168071635,0.08070830149265804 0.5006351543083385,0.07870521142570235 0.49999999876434326,0.07657613430018496 C 0.4999999991762289,0.07490946332052259 0.4999999995881144,0.07324279234086022 0.5,0.07157612136119784 C 0.4939047469070983,0.08937284672220899 0.4878094938141966,0.10716957208322016 0.4817142407212949,0.12496629744423132 C 0.47561898762839316,0.14276302280524247 0.46952373453549145,0.16055974816625362 0.46342848144258975,0.1783564735272648 C 0.46342848144258975,0.2617010391832092 0.46342848144258975,0.34504560483915364 0.46342848144258975,0.4283901704950981 C 0.46342848144258975,0.5117347361510425 0.46342848144258975,0.5950793018069869 0.46342848144258975,0.6784238674629313 C 0.46509514807200353,0.6784238674629313 0.46676181470141725,0.6784238674629313 0.46842848133083104,0.6784238674629313 "  /><path d="M 0.5365715185574103,0.6784238674629313 C 0.5365715185574103,0.5950793018069869 0.5365715185574103,0.5117347361510425 0.5365715185574103,0.4283901704950981 C 0.5365715185574103,0.34504560483915364 0.5365715185574103,0.2617010391832092 0.5365715185574103,0.1783564735272648 C 0.5304762654645085,0.16055974816625362 0.5243810123716068,0.14276302280524247 0.5182857592787051,0.12496629744423132 C 0.5121905061858034,0.10716957208322016 0.5060952530929017,0.08937284672220899 0.5,0.07157612136119784 C 0.5,0.273858703395109 0.5,0.4761412854290201 0.5,0.6784238674629313 C -2.4878094938141966,0.6784238674629313 -0.9756189876283932,0.6784238674629313 0.5365715185574103,0.6784238674629313 "  /><path d="M 0.531571518669169,0.6784238674629313 C 0.531571518669169,0.6784238674629313 0.531571518669169,0.6784238674629313 0.531571518669169,0.6784238674629313 C 0.5297337708763801,0.6743440674724782 0.5297337708763801,0.6702642674820252 0.531571518669169,0.6661722159978423 C 0.530671397301683,0.6641739466156747 0.530671397301683,0.6621756772335072 0.531571518669169,0.6601714071197197 C 0.530671397301683,0.6581731377375521 0.530671397301683,0.6561748683553847 0.531571518669169,0.6541705982415972 C 0.5306338922480576,0.6520890676426169 0.5306338922480576,0.6500075370436365 0.531571518669169,0.6479197556825742 C 0.5306713972974915,0.6459214862911016 0.5306713972974915,0.6439232168996288 0.531571518669169,0.6419189467765082 C 0.530671397301683,0.6399206773943407 0.530671397301683,0.6379224080121731 0.531571518669169,0.6359181378983856 C 0.530671397301683,0.6339198685162181 0.530671397301683,0.6319215991340505 0.531571518669169,0.629917329020263 C 0.5306338922514109,0.6278357984287267 0.5306338922514109,0.6257542678371906 0.531571518669169,0.6236664864835948 C 0.5306713972941383,0.621668217084678 0.5306713972941383,0.6196699476857612 0.531571518669169,0.6176656775551741 C 0.530671397301683,0.6156674081730066 0.530671397301683,0.6136691387908391 0.531571518669169,0.6116648686770515 C 0.530671397301683,0.609666599294884 0.530671397301683,0.6076683299127165 0.531571518669169,0.6056640597989289 C 0.530633892254764,0.6035825292148368 0.530633892254764,0.6015009986307448 0.531571518669169,0.5994132172846155 C 0.530671397290785,0.5974149478782546 0.530671397290785,0.5954166784718936 0.531571518669169,0.5934124083338399 C 0.530671397301683,0.5914141389516724 0.530671397301683,0.5894158695695049 0.531571518669169,0.5874115994557173 C 0.530671397301683,0.5854133300735498 0.530671397301683,0.5834150606913823 0.531571518669169,0.5814107905775947 C 0.5306338922581173,0.5793292600009468 0.5306338922581173,0.5772477294242988 0.531571518669169,0.5751599480856361 C 0.5306713972874317,0.573161678671831 0.5306713972874317,0.571163409258026 0.531571518669169,0.5691591391125058 C 0.530671397301683,0.5671608697303383 0.530671397301683,0.5651626003481708 0.531571518669169,0.5631583302343832 C 0.530671397301683,0.5611600608522157 0.530671397301683,0.5591617914700482 0.531571518669169,0.5571575213562606 C 0.5306338922614704,0.5550759907870568 0.5306338922614704,0.552994460217853 0.531571518669169,0.5509066788866567 C 0.5306713972840786,0.5489084094654074 0.5306713972840786,0.5469101400441583 0.531571518669169,0.5449058698911716 C 0.530671397301683,0.5429076005090041 0.530671397301683,0.5409093311268366 0.531571518669169,0.538905061013049 C 0.530671397301683,0.5369067916308815 0.530671397301683,0.5349085222487141 0.531571518669169,0.5329042521349265 C 0.5306338922648237,0.5308227215731669 0.5306338922648237,0.5287411910114072 0.531571518669169,0.5266534096876774 C 0.5306713972807253,0.5246551402589841 0.5306713972807253,0.5226568708302907 0.531571518669169,0.5206526006698375 C 0.530671397301683,0.51865433128767 0.530671397301683,0.5166560619055025 0.531571518669169,0.5146517917917149 C 0.530671397301683,0.5126535224095474 0.530671397301683,0.5106552530273799 0.531571518669169,0.5086509829135923 C 0.5306338922681768,0.5065694523592769 0.5306338922681768,0.5044879218049613 0.531571518669169,0.502400140488698 C 0.5306713972773722,0.5004018710525605 0.5306713972773722,0.49840360161642305 0.531571518669169,0.4963993314485034 C 0.530671397301683,0.49440106206633594 0.530671397301683,0.4924027926841684 0.531571518669169,0.49039852257038086 C 0.530671397301683,0.48840025318821334 0.530671397301683,0.4864019838060458 0.531571518669169,0.48439771369225826 C 0.5306338922715301,0.4823161831453868 0.5306338922715301,0.4802346525985154 0.531571518669169,0.47814687128971856 C 0.5306713972740189,0.47614860184613694 0.5306713972740189,0.4741503324025554 0.531571518669169,0.47214606222716926 C 0.530671397301683,0.47014779284500174 0.530671397301683,0.4681495234628342 0.531571518669169,0.46614525334904666 C 0.530671397301683,0.4641469839668792 0.530671397301683,0.4621487145847117 0.531571518669169,0.4601444444709241 C 0.5306338922748833,0.45806291393149684 0.5306338922748833,0.4559813833920696 0.531571518669169,0.45389360209073926 C 0.5306713972706658,0.4518953326397135 0.5306713972706658,0.4498970631886877 0.531571518669169,0.4478927930058351 C 0.530671397301683,0.44589452362366766 0.530671397301683,0.44389625424150014 0.531571518669169,0.4418919841277126 C 0.530671397301683,0.43989371474554506 0.530671397301683,0.43789544536337754 0.531571518669169,0.43589117524959 C 0.5306338922782365,0.43380964471760686 0.5306338922782365,0.4317281141856237 0.531571518669169,0.42964033289175985 C 0.530633895192399,0.42755880834619797 0.5306338953732748,0.42547728388211165 0.5315715192123391,0.4233895087558418 C 0.53067140906215,0.42139125961589113 0.5306714108072421,0.419393011262018 0.5315715244528556,0.41738876302574957 C 0.5306714365070038,0.41539055399816516 0.5306714416901904,0.4133923473053496 0.5315715400179803,0.4113881424039366 C 0.5306714863335176,0.40938999524741004 0.530671496830124,0.4073918528190847 0.5315715715393204,0.4053877147685783 C 0.530634065125302,0.40330640089909026 0.5306340837312447,0.4012250954106577 0.5315716274130211,0.3991375482171976 C 0.5306716811872227,0.39713959509933194 0.5306717083550123,0.3951416542192096 0.5315717089979735,0.39313772583169043 C 0.530671833852741,0.391139901090901 0.5306718720380637,0.3891420935507079 0.5315718236686104,0.3871383038663858 C 0.530672031657647,0.3851406292539273 0.5306720827358289,0.38314297764965943 0.5315719770565421,0.3811393501771272 C 0.530634795192282,0.37905862239842353 0.5306348641304305,0.3769779256729407 0.5315721840780065,0.37489101174268924 C 0.5306725993045002,0.3728937113534092 0.5306726825285567,0.370896448452444 0.5315724340000951,0.3688932253306006 C 0.5306729691833715,0.36689614158308465 0.5306730710043983,0.36489910370089734 0.5315727397689403,0.362896114650569 C 0.5306359378458455,0.3608160729910825 0.5306360657066939,0.3587360889265743 0.5315731237354469,0.35664991633915033 C 0.5306739412474535,0.354653342417628 0.5306740868602581,0.35265683408746085 0.5315735610111305,0.3506543959054051 C 0.5306745352630355,0.3486581050516153 0.5306747051769213,0.346661890735614 0.5315740712630334,0.3446597583970713 C 0.530675214302708,0.3426637723493072 0.5306754103930071,0.3406678746305091 0.5315746601227826,0.33866607163107726 C 0.5306385433566098,0.33658726726617116 0.5306387774743446,0.33450856835970705 0.5315753631790343,0.33242373265307446 C 0.5306768883262553,0.3304284366158637 0.5306771436830273,0.328433255604229 0.5315761300161775,0.3264321981608167 C 0.5306778607794904,0.3244372734559842 0.5306781480167772,0.32244247813732047 0.5315769925906011,0.3204418219056939 C 0.5306789410145636,0.3184472902641603 0.530679262007703,0.3164529032141348 0.5315779565339502,0.31445267168250207 C 0.5306427306829014,0.31237547618139555 0.530643102967487,0.3102984483760528 0.5315790745056643,0.3082153510261205 C 0.5306815048160055,0.30622168957972923 0.5306819005503156,0.30422820639204096 0.5315802628969708,0.3022289151042068 C 0.530682947699581,0.30023571325481013 0.5306833828938368,0.2982427074388673 0.5315815697866108,0.29624391273105966 C 0.5306471501104522,0.2941681730649376 0.5306476474200985,0.2920926574121758 0.5315830632089531,0.2900111330733611 C 0.5306863049892488,0.2880189370219829 0.5306868265705837,0.2860269759171582 0.5315846295192477,0.28402926797079864 C 0.5306881625748943,0.2820375979423225 0.5306887293202807,0.2800461832045678 0.5315863314573228,0.2780490436101669 C 0.5306528344918648,0.27597497022565837 0.5306534748995018,0.2739011853130662 0.5315882546033552,0.27182146137032803 C 0.5306924197280056,0.269830932742767 0.5306930845063813,0.2678407035649327 0.5315902509347877,0.26584479724965177 C 0.5306947441178596,0.26385486107087963 0.5306954597643907,0.2618652472554185 0.5315924000234424,0.25986998106400616 C 0.5306599423044942,0.25779778440773854 0.5306607438830515,0.25572594882290284 0.5315948071662262,0.2536482526611985 C 0.5307000075096324,0.2516595934862604 0.5307008328350651,0.24967130607954519 0.5315972856209468,0.2476774196849487 C 0.5307028508058322,0.2456894193846641 0.5307037327035228,0.2437018163356021 0.5315999339623254,0.2417086418367601 C 0.5306686320256955,0.23963853235535904 0.5306696128481025,0.2375688646858649 0.5316028793749215,0.23549342369014964 C 0.5307092268114855,0.23350683599664207 0.5307102300339914,0.23152070020517632 0.5316058920550808,0.22952905202087207 C 0.5306754312816748,0.22746046155792168 0.5306765425554305,0.2253923716687486 0.5316092292134635,0.22331857195324262 C 0.5307164093662737,0.22133348802279063 0.5307175417306507,0.21934891416639601 0.5316126297070443,0.2173588907796137 C 0.5307202361743482,0.21537457673682406 0.5307214346438616,0.21339080254518106 0.5316162287145456,0.2114016110016043 C 0.53068711848193,0.20933545941883636 0.5306884392036092,0.2072699027557597 0.5316201948456634,0.20519873821945178 C 0.5307287090598121,0.20321606340761914 0.5307300483171804,0.2012339918648876 0.5316242166395109,0.19924657150117064 C 0.530696078298408,0.19718217501302282 0.530697549745403,0.19511844133885453 0.5316286353991988,0.19304917316011372 C 0.5307381078287843,0.19106822874451984 0.5307395956910375,0.18908795453716606 0.5316331034539554,0.1871024038452999 C 0.5307059895099889,0.18503985726924918 0.5307076198251226,0.1829780450694045 0.5316379992951343,0.18091077569733258 C 0.5302648399608798,0.17915385201617756 0.5297812174387684,0.1771790803462405 0.5301856794276305,0.17498053051869225 C 0.5286672365714079,0.17337000945450018 0.5280080136986753,0.17146254114236578 0.5282060311866791,0.16925239752304083 C 0.5266902542570009,0.16764250417473686 0.5260330125635015,0.16573655600159254 0.5262323324328377,0.1635288295092827 C 0.5247209944677111,0.16192179847839988 0.5240663711278839,0.16001989206129938 0.5242664966028354,0.1578173989009053 C 0.5227473183306415,0.15620048602571648 0.5220898776245346,0.1542874286803663 0.5222922002135442,0.15207248202193924 C 0.5207806556319939,0.15046245806799818 0.5201269812836204,0.14855798620147878 0.5203292142076907,0.14635334736135208 C 0.5188128131275156,0.14473720232320886 0.5181573936269199,0.14282582326786153 0.5183609875045403,0.14061347039223962 C 0.5168411436574452,0.1389929861275176 0.5161844870188088,0.13707671057618892 0.516389045672187,0.13485888923118045 C 0.5148812692075504,0.13325088206559965 0.514229972147651,0.13134949783813327 0.5144331986706681,0.1291490267598221 C 0.5128970450249661,0.12751021691377828 0.5122336920737551,0.1255725994240312 0.5124411477918033,0.12333035569442853 C 0.510942095649112,0.12172337462541293 0.5102976670551511,0.11982611039817073 0.5105059268138581,0.11763286559595641 C 0.5090036604584445,0.11600080323215509 0.5083659519828256,0.11408148479054263 0.5085908863712141,0.11186914662635503 C 0.507103410547572,0.11021559985441977 0.5064860429806346,0.10828395957639758 0.5067369297376374,0.10606842514548956 C 0.5052841050636778,0.10439736171890275 0.5047021031432162,0.10246413525804217 0.5049891762452617,0.10026294035285849 C 0.5035810787569962,0.0985641536576532 0.5030466409545776,0.09662462920714715 0.5033842579403638,0.09443854267865295 C 0.5020262887497815,0.09268867251526586 0.5015526527828407,0.09072545281149248 0.5019619277276403,0.08854298808864575 C 0.5006822084061466,0.08673543292758208 0.5002952243770715,0.08475356063162418 0.5007998135411902,0.08259141970901646 C 0.4996311831928365,0.08070830149265804 0.4993648456916615,0.07870521142570235 0.5000000012356567,0.07657613430018496 C 0.500000000823771,0.07490946332052259 0.5000000004118856,0.07324279234086022 0.5,0.07157612136119784 C 0.5060952530929017,0.08937284672220899 0.5121905061858034,0.10716957208322016 0.5182857592787051,0.12496629744423132 C 0.5243810123716068,0.14276302280524247 0.5304762654645085,0.16055974816625362 0.5365715185574103,0.1783564735272648 C 0.5365715185574103,0.2617010391832092 0.5365715185574103,0.34504560483915364 0.5365715185574103,0.4283901704950981 C 0.5365715185574103,0.5117347361510425 0.5365715185574103,0.5950793018069869 0.5365715185574103,0.6784238674629313 C 0.5349048519279964,0.6784238674629313 0.5332381852985828,0.6784238674629313 0.531571518669169,0.6784238674629313 "  /><path d="M 0.4474999933121726,0.6784238674629313 C 0.4824999977707242,0.6784238674629313 0.5175000022292758,0.6784238674629313 0.5525000066878274,0.6784238674629313 C 0.5532759642494599,0.6784238674629313 0.5535000067353248,0.6786479099487962 0.5535000067353248,0.6794238675104287 C 0.5535000067353248,0.6820905340709246 0.5535000067353248,0.6847572006314205 0.5535000067353248,0.6874238671919164 C 0.5535000067353248,0.6881998247535489 0.5532759642494599,0.6884238672394138 0.5525000066878274,0.6884238672394138 C 0.5175000022292758,0.6884238672394138 0.4824999977707242,0.6884238672394138 0.4474999933121726,0.6884238672394138 C 0.44672403575054015,0.6884238672394138 0.44649999326467515,0.6881998247535489 0.44649999326467515,0.6874238671919164 C 0.44649999326467515,0.6847572006314205 0.44649999326467515,0.6820905340709246 0.44649999326467515,0.6794238675104287 C 0.44649999326467515,0.6786479099487962 0.44672403575054015,0.6784238674629313 0.4474999933121726,0.6784238674629313 "  /><g id="hilt" ><path d="M 0.4864330607704879,0.6884238672394138 C 0.4886516033697748,0.7515205611032011 0.4886516033697748,0.8146172549669883 0.4864330607704879,0.8796259622592624 C 0.49547768692349603,0.8796259622592624 0.5045223130765041,0.8796259622592624 0.5135669392295121,0.8796259622592624 C 0.5113483966302252,0.8146172549669883 0.5113483966302252,0.7515205611032011 0.5135669392295121,0.6884238672394138 "  /><g id="wraps" ><path d="M 0.4864330607704879,0.6884238672394138 C 0.4931171302781271,0.6981981660815739 0.5019394781499787,0.7053257605227395 0.5129001043860429,0.7098066505629106 C 0.5128480871776624,0.7117185056300396 0.5127981052709051,0.7136305588190125 0.5127501586657709,0.715542863258928 C 0.5019043947065972,0.711026493280374 0.49319719019094305,0.7038979619081995 0.48662854511880826,0.6941572691424044 C 0.48656541897099137,0.6922460997553418 0.48650025752155124,0.6903349834973778 0.4864330607704879,0.6884238672394138 "  /><path d="M 0.4868118176573894,0.6998909898199869 C 0.4932730606274045,0.7096009151150889 0.5018732629933541,0.7167307796619602 0.5126124247552379,0.7212805834606008 C 0.5125685487533502,0.7231934435315001 0.5125267080530856,0.7251066079824405 0.5124869026544443,0.727020129942521 C 0.5018460830102492,0.7224389384420904 0.49334474158751157,0.7153073444768346 0.48698287838623133,0.7056253480467535 C 0.4869278934449072,0.7037137536269015 0.48687087320195993,0.7018023185943455 0.4868118176573894,0.6998909898199869 "  /><path d="M 0.4871417273053341,0.711360662597296 C 0.493412233071264,0.7210175687680281 0.5018228547572825,0.7281512883953563 0.5123735923633898,0.7327618214792804 C 0.5123378575679948,0.7346761115867392 0.512304158074223,0.7365908123324366 0.5122724938820744,0.7385059768454713 C 0.5018035782344542,0.7338681482963499 0.49347553507866193,0.7267319067632618 0.48728836441469764,0.7170972522462067 C 0.48724152067986637,0.715184807760776 0.48719264164341186,0.7132726289208386 0.4871417273053341,0.711360662597296 "  /><path d="M 0.487422789714322,0.7228354357680774 C 0.4935346476097055,0.7324506772371275 0.5017882534417643,0.7395898369196635 0.5121836072104984,0.7442529148156855 C 0.5121560136215961,0.7461690599924934 0.5121304553343172,0.748085722065737 0.5121069323486613,0.7500029541645153 C 0.5017768803792125,0.7453166730398891 0.49358957066439446,0.7381741989642174 0.4875450032042072,0.7285755319375001 C 0.48750630067586875,0.7266618123537015 0.487465562845907,0.7247484646735934 0.48742278971432207,0.7228354357680774 "  /><path d="M 0.4876550048843532,0.7343178595290669 C 0.4936403042427289,0.7439027907191234 0.501769459046799,0.7510489754316185 0.5120424692965637,0.7557564136665523 C 0.5120230169141543,0.7576748389454984 0.5120055998333682,0.7595938873790776 0.5119902180542052,0.7615136120963888 C 0.5017659894445239,0.7567870628694435 0.49368684834470883,0.7496367712764371 0.48775279475475997,0.7400627373173697 C 0.4877222334329142,0.7381473176024137 0.48768963680944527,0.7362323760493457 0.48765500488435315,0.7343178595290669 "  /><path d="M 0.4878383728154276,0.7458104840770007 C 0.4937292029703343,0.7553764594107513 0.501766471572387,0.7625312541279566 0.5119501786215858,0.7672748682286168 C 0.5119388674456692,0.7691959986424904 0.5119295915713759,0.7711178584691948 0.5119223509987056,0.7730405008378283 C 0.5017709054303885,0.7682818679817496 0.49376736811960525,0.7611221738966574 0.487911739066356,0.7515614185825518 C 0.48788931895100307,0.7496438737036489 0.4878648635340269,0.7477269132448314 0.4878383728154276,0.7458104840770007 "  /><path d="M 0.4879728935075452,0.7573158596086149 C 0.4938013437925217,0.7668742335087477 0.5017792910185281,0.7740392232054144 0.5119067351855647,0.7788108286986151 C 0.5119035652161409,0.7807350892802059 0.5119024305483404,0.7826601855328243 0.5119033311821629,0.7845861705855695 C 0.5017916283368061,0.7798036385735433 0.4938311299890836,0.7726329570216142 0.4880218361389952,0.7630741259297822 C 0.48800755723013506,0.7611540308541432 0.4879912430196517,0.7592346264567871 0.48797289350754514,0.7573158596086149 "  /><path d="M 0.488058566960706,0.7688365363206455 C 0.49385672670929104,0.7783986632098487 0.5018079173852225,0.785575432860728 0.5119121389885004,0.7903668452732833 C 0.5119171102255693,0.7922946610553803 0.5119241167642615,0.7942234187667024 0.511933158604577,0.7961531715363486 C 0.501828158163777,0.7913549248415608 0.4938781339531439,0.7841716708480436 0.48808308597267763,0.774603409555797 C 0.48807694827031034,0.7726803392506327 0.48806877526631975,0.7707580658819484 0.48805856696070604,0.7688365363206455 "  /><path d="M 0.4880953931749101,0.7803750644098286 C 0.49389535172064236,0.7899522987107904 0.5018523506724699,0.7971424332906334 0.5119663900303928,0.8019454681493574 C 0.5119795024739547,0.80387726416475 0.5119946502191397,0.8058101083675653 0.5120118332659479,0.8077440538869017 C 0.501880494911301,0.8029382769825378 0.4939083800117862,0.7957408655726814 0.4880954885674033,0.7861518196573325 C 0.4880974920715288,0.7842253490898534 0.488097460274031,0.7822997817170516 0.4880953931749101,0.7803750644098286 "  /><path d="M 0.48808337215015735,0.7919339940729004 C 0.4939172188265757,0.8015376902083087 0.5019125908802705,0.8087427746918664 0.512069488311242,0.8135492475235735 C 0.5120907419612966,0.8154854488050511 0.5121140309129745,0.8174228045321487 0.5121393551662754,0.8193613678339648 C 0.5019486385793783,0.8145562451932107 0.4939218681650106,0.8073430913922639 0.48805904392317223,0.7977219064311245 C 0.48806918863379045,0.7957916105685414 0.4880772980427855,0.7938623241588328 0.48808337215015735,0.7919339940729004 "  /><path d="M 0.48802250388644786,0.8035158755065968 C 0.493922328027091,0.8131573878991396 0.5019886380086244,0.8203790072611632 0.512221433831048,0.8251807335926676 C 0.5122508286875954,0.8271217651730195 0.5122822588457661,0.8290640574571887 0.5123157243055598,0.831007663574274 C 0.5020325891680087,0.8262113796703157 0.49391859841281693,0.8189808985035274 0.48797375203998433,0.8093162200739092 C 0.4879920379570954,0.8073816738834326 0.4880082885725832,0.805448243404028 0.48802250388644786,0.8035158755065968 "  /><path d="M 0.4879127883837816,0.8151232589076539 C 0.4939106793221883,0.8248139419800194 0.5020804920575314,0.8320536811952601 0.5124222265898107,0.836842476553376 C 0.512459762652851,0.8387887634653916 0.5124993340175144,0.8407364173394218 0.512540940683801,0.8426854913045654 C 0.5021323466771923,0.8379062306105886 0.49389857075520527,0.8306568371032077 0.4878396129178397,0.8209373107824228 C 0.48786604004144357,0.8189980892312633 0.4878904318634242,0.8170600896493733 0.4879127883837816,0.8151232589076539 "  /><path d="M 0.4877542256421586,0.8267586944728078 C 0.4938822727118676,0.836509902647684 0.5021881530269915,0.8437693466908929 0.5126718665875303,0.8485370266024345 C 0.5127175438570634,0.8504889938789031 0.5127652564282196,0.8524424343755838 0.5128150043009989,0.854397401221575 C 0.502247911106929,0.8496433482107655 0.49386178519217555,0.8423734573880408 0.4876566265567383,0.8325877287534011 C 0.48769119488683493,0.8306434068087695 0.4877237279153084,0.8287004130916047 0.4877542256421586,0.8267586944728078 "  /><path d="M 0.4875468156615788,0.8384247323987948 C 0.4938371081961289,0.8482478200988698 0.5023116209170048,0.855528553944798 0.5129703538242066,0.8602669339365794 C 0.5130241723002325,0.8622250066102903 0.5130800260778814,0.8641846587624108 0.5131379151571536,0.8661459435220391 C 0.502379282457219,0.8614252826675826 0.4938082417237278,0.8541333095547631 0.4874247929566801,0.8442700241835805 C 0.48746750249326953,0.8423201768126873 0.48750817672823576,0.8403717639274584 0.4875468156615788,0.8384247323987947 "  /><path d="M 0.4872905584420422,0.8501239228823505 C 0.4937751857749721,0.8600302445303124 0.5024508957275713,0.8673338531537111 0.5133176882998397,0.8720347487525466 C 0.5133796479823582,0.8739993518562893 0.5134436429665,0.8759656406966388 0.513509673252265,0.8779336684026934 C 0.502526460728062,0.8732545841777757 0.4937379403498619,0.86593894380011 0.4871441121176651,0.8559867472696967 C 0.48719496286074737,0.8540309494397529 0.48724377830220633,0.8520766923536703 0.48729055844204217,0.8501239228823505 "  /><path d="M 0.48698545398354887,0.8618588161202113 C 0.49406923442515643,0.8704393467307675 0.5029297295071442,0.8763617287771178 0.5135669392295121,0.8796259622592624 C 0.5135669392295121,0.8796259622592623 0.5135669392295121,0.8796259622592623 0.5135669392295121,0.8796259622592623 C 0.5034609360767842,0.8783393598011829 0.49454348434684464,0.8743775217842575 0.4868145840396934,0.8677404482084862 C 0.48687357598926845,0.865778274886702 0.4869305326372202,0.8638177485669767 0.4869854539835488,0.8618588161202113 "  /><path d="M 0.48663150228609875,0.8736319623091132 C 0.4950105812632899,0.8783235060269745 0.5039890602444277,0.8803215060103575 0.5135669392295121,0.8796259622592624 C 0.5135669392295121,0.8796259622592623 0.5135669392295121,0.8796259622592623 0.5135669392295121,0.8796259622592623 C 0.5045141338875344,0.8823082736628391 0.495470557051952,0.8822775119753132 0.4864362087227649,0.8795336771966846 C 0.48650334187883276,0.877564703350271 0.48656843973327735,0.8755974827641135 0.4866315022860987,0.8736319623091132 "  /></g><path d="M 0.48400628542822116,0.8796259622592624 C 0.494668761809407,0.8796259622592624 0.5053312381905929,0.8796259622592624 0.5159937145717788,0.8796259622592624 C 0.5183215871663428,0.8796259622592624 0.5189937145978558,0.8802980896907754 0.5189937145978558,0.8826259622853394 C 0.5189937145978558,0.8839592955267822 0.5189937145978558,0.8852926287682251 0.5189937145978558,0.8866259620096679 C 0.5189937145978558,0.8889538346042319 0.5183215871663428,0.889625962035745 0.5159937145717788,0.889625962035745 C 0.5053312381905929,0.889625962035745 0.494668761809407,0.889625962035745 0.48400628542822116,0.889625962035745 C 0.4816784128336571,0.889625962035745 0.48100628540214413,0.8889538346042319 0.48100628540214413,0.8866259620096679 C 0.48100628540214413,0.8852926287682251 0.48100628540214413,0.8839592955267822 0.48100628540214413,0.8826259622853394 C 0.48100628540214413,0.8802980896907754 0.4816784128336571,0.8796259622592624 0.48400628542822116,0.8796259622592624 "  /></g><g id="top" ></g></defs><g id="uglow" ></g><path d="M 0.46342848144258975,0.6784238674629313 C 0.46342848144258975,0.5950793018069869 0.46342848144258975,0.5117347361510425 0.46342848144258975,0.4283901704950981 C 0.46342848144258975,0.34504560483915364 0.46342848144258975,0.2617010391832092 0.46342848144258975,0.1783564735272648 C 0.46952373453549145,0.16055974816625362 0.47561898762839316,0.14276302280524247 0.4817142407212949,0.12496629744423132 C 0.4878094938141966,0.10716957208322016 0.4939047469070983,0.08937284672220899 0.5,0.07157612136119784 C 0.5,0.273858703395109 0.5,0.4761412854290201 0.5,0.6784238674629313 C 3.4878094938141966,0.6784238674629313 1.9756189876283932,0.6784238674629313 0.46342848144258975,0.6784238674629313 "  fill="url(#BB)"  /><path d="M 0.46842848133083104,0.6784238674629313 C 0.46842848133083104,0.6784238674629313 0.46842848133083104,0.6784238674629313 0.46842848133083104,0.6784238674629313 C 0.4702662291236199,0.6743440674724782 0.4702662291236199,0.6702642674820252 0.46842848133083104,0.6661722159978423 C 0.46932860269831705,0.6641739466156747 0.46932860269831705,0.6621756772335072 0.46842848133083104,0.6601714071197197 C 0.469328602698317,0.6581731377375521 0.469328602698317,0.6561748683553847 0.46842848133083104,0.6541705982415972 C 0.46936610775194243,0.6520890676426169 0.46936610775194243,0.6500075370436365 0.46842848133083104,0.6479197556825742 C 0.46932860270250853,0.6459214862911016 0.46932860270250853,0.6439232168996288 0.46842848133083104,0.6419189467765082 C 0.46932860269831705,0.6399206773943407 0.46932860269831705,0.6379224080121731 0.46842848133083104,0.6359181378983856 C 0.46932860269831705,0.6339198685162181 0.46932860269831705,0.6319215991340505 0.46842848133083104,0.629917329020263 C 0.46936610774858917,0.6278357984287267 0.46936610774858917,0.6257542678371906 0.46842848133083104,0.6236664864835948 C 0.46932860270586174,0.621668217084678 0.46932860270586174,0.6196699476857612 0.46842848133083104,0.6176656775551741 C 0.46932860269831705,0.6156674081730066 0.46932860269831705,0.6136691387908391 0.46842848133083104,0.6116648686770515 C 0.46932860269831705,0.609666599294884 0.46932860269831705,0.6076683299127165 0.46842848133083104,0.6056640597989289 C 0.46936610774523596,0.6035825292148368 0.46936610774523596,0.6015009986307448 0.46842848133083104,0.5994132172846155 C 0.469328602709215,0.5974149478782546 0.469328602709215,0.5954166784718936 0.46842848133083104,0.5934124083338399 C 0.46932860269831705,0.5914141389516724 0.46932860269831705,0.5894158695695049 0.46842848133083104,0.5874115994557173 C 0.46932860269831705,0.5854133300735498 0.46932860269831705,0.5834150606913823 0.46842848133083104,0.5814107905775947 C 0.46936610774188275,0.5793292600009468 0.46936610774188275,0.5772477294242988 0.46842848133083104,0.5751599480856361 C 0.4693286027125682,0.573161678671831 0.4693286027125682,0.571163409258026 0.46842848133083104,0.5691591391125058 C 0.46932860269831705,0.5671608697303383 0.46932860269831705,0.5651626003481708 0.46842848133083104,0.5631583302343832 C 0.46932860269831705,0.5611600608522157 0.46932860269831705,0.5591617914700482 0.46842848133083104,0.5571575213562606 C 0.46936610773852955,0.5550759907870568 0.46936610773852955,0.552994460217853 0.46842848133083104,0.5509066788866567 C 0.4693286027159214,0.5489084094654074 0.4693286027159214,0.5469101400441583 0.46842848133083104,0.5449058698911716 C 0.46932860269831705,0.5429076005090041 0.46932860269831705,0.5409093311268366 0.46842848133083104,0.538905061013049 C 0.469328602698317,0.5369067916308815 0.469328602698317,0.5349085222487141 0.46842848133083104,0.5329042521349265 C 0.46936610773517634,0.5308227215731669 0.46936610773517634,0.5287411910114072 0.46842848133083104,0.5266534096876774 C 0.4693286027192746,0.5246551402589841 0.4693286027192746,0.5226568708302907 0.46842848133083104,0.5206526006698375 C 0.46932860269831705,0.51865433128767 0.46932860269831705,0.5166560619055025 0.46842848133083104,0.5146517917917149 C 0.46932860269831705,0.5126535224095474 0.46932860269831705,0.5106552530273799 0.46842848133083104,0.5086509829135923 C 0.46936610773182313,0.5065694523592769 0.46936610773182313,0.5044879218049613 0.46842848133083104,0.502400140488698 C 0.46932860272262783,0.5004018710525605 0.46932860272262783,0.49840360161642305 0.46842848133083104,0.4963993314485034 C 0.469328602698317,0.49440106206633594 0.469328602698317,0.4924027926841684 0.46842848133083104,0.49039852257038086 C 0.46932860269831705,0.48840025318821334 0.46932860269831705,0.4864019838060458 0.46842848133083104,0.48439771369225826 C 0.46936610772846993,0.4823161831453868 0.46936610772846993,0.4802346525985154 0.46842848133083104,0.47814687128971856 C 0.46932860272598104,0.47614860184613694 0.46932860272598104,0.4741503324025554 0.46842848133083104,0.47214606222716926 C 0.46932860269831705,0.47014779284500174 0.46932860269831705,0.4681495234628342 0.46842848133083104,0.46614525334904666 C 0.469328602698317,0.4641469839668792 0.469328602698317,0.4621487145847117 0.46842848133083104,0.4601444444709241 C 0.46936610772511667,0.45806291393149684 0.46936610772511667,0.4559813833920696 0.46842848133083104,0.45389360209073926 C 0.46932860272933424,0.4518953326397135 0.46932860272933424,0.4498970631886877 0.46842848133083104,0.4478927930058351 C 0.469328602698317,0.44589452362366766 0.469328602698317,0.44389625424150014 0.46842848133083104,0.4418919841277126 C 0.46932860269831705,0.43989371474554506 0.46932860269831705,0.43789544536337754 0.46842848133083104,0.43589117524959 C 0.46936610772176346,0.43380964471760686 0.46936610772176346,0.4317281141856237 0.46842848133083104,0.42964033289175985 C 0.46936610480760094,0.42755880834619797 0.4693661046267253,0.42547728388211165 0.4684284807876609,0.4233895087558418 C 0.46932859093784995,0.42139125961589113 0.4693285891927579,0.419393011262018 0.46842847554714434,0.41738876302574957 C 0.4693285634929962,0.41539055399816516 0.4693285583098096,0.4133923473053496 0.46842845998201965,0.4113881424039366 C 0.46932851366648237,0.40938999524741004 0.46932850316987595,0.4073918528190847 0.46842842846067956,0.4053877147685783 C 0.469365934874698,0.40330640089909026 0.4693659162687554,0.4012250954106577 0.46842837258697884,0.3991375482171976 C 0.4693283188127772,0.39713959509933194 0.46932829164498774,0.3951416542192096 0.46842829100202654,0.39313772583169043 C 0.46932816614725903,0.391139901090901 0.4693281279619364,0.3891420935507079 0.4684281763313896,0.3871383038663858 C 0.4693279683423531,0.3851406292539273 0.4693279172641711,0.38314297764965943 0.46842802294345787,0.3811393501771272 C 0.46936520480771804,0.37905862239842353 0.4693651358695695,0.3769779256729407 0.4684278159219935,0.37489101174268924 C 0.46932740069549983,0.3728937113534092 0.4693273174714433,0.370896448452444 0.4684275659999049,0.3688932253306006 C 0.4693270308166285,0.36689614158308465 0.46932692899560174,0.36489910370089734 0.4684272602310598,0.362896114650569 C 0.4693640621541545,0.3608160729910825 0.46936393429330614,0.3587360889265743 0.46842687626455315,0.35664991633915033 C 0.46932605875254646,0.354653342417628 0.4693259131397419,0.35265683408746085 0.4684264389888695,0.3506543959054051 C 0.4693254647369645,0.3486581050516153 0.4693252948230787,0.346661890735614 0.46842592873696665,0.3446597583970713 C 0.4693247856972919,0.3426637723493072 0.46932458960699286,0.3406678746305091 0.4684253398772174,0.33866607163107726 C 0.46936145664339024,0.33658726726617116 0.46936122252565543,0.33450856835970705 0.46842463682096575,0.33242373265307446 C 0.46932311167374474,0.3304284366158637 0.46932285631697274,0.328433255604229 0.46842386998382246,0.3264321981608167 C 0.4693221392205096,0.3244372734559842 0.46932185198322285,0.32244247813732047 0.46842300740939896,0.3204418219056939 C 0.46932105898543647,0.3184472902641603 0.469320737992297,0.3164529032141348 0.46842204346604976,0.31445267168250207 C 0.4693572693170987,0.31237547618139555 0.4693568970325131,0.3102984483760528 0.4684209254943356,0.3082153510261205 C 0.4693184951839945,0.30622168957972923 0.46931809944968433,0.30422820639204096 0.46841973710302925,0.3022289151042068 C 0.469317052300419,0.30023571325481013 0.46931661710616324,0.2982427074388673 0.46841843021338925,0.29624391273105966 C 0.4693528498895479,0.2941681730649376 0.4693523525799015,0.2920926574121758 0.4684169367910469,0.2900111330733611 C 0.46931369501075115,0.2880189370219829 0.4693131734294163,0.2860269759171582 0.4684153704807523,0.28402926797079864 C 0.4693118374251057,0.2820375979423225 0.46931127067971934,0.2800461832045678 0.46841366854267713,0.2780490436101669 C 0.4693471655081352,0.27597497022565837 0.4693465251004982,0.2739011853130662 0.46841174539664476,0.27182146137032803 C 0.4693075802719943,0.269830932742767 0.4693069154936187,0.2678407035649327 0.46840974906521227,0.26584479724965177 C 0.4693052558821405,0.26385486107087963 0.46930454023560925,0.2618652472554185 0.4684075999765575,0.25986998106400616 C 0.46934005769550574,0.25779778440773854 0.46933925611694843,0.25572594882290284 0.4684051928337738,0.2536482526611985 C 0.4692999924903676,0.2516595934862604 0.46929916716493497,0.24967130607954519 0.4684027143790532,0.2476774196849487 C 0.4692971491941677,0.2456894193846641 0.4692962672964772,0.2437018163356021 0.46840006603767453,0.2417086418367601 C 0.4693313679743046,0.23963853235535904 0.46933038715189745,0.2375688646858649 0.4683971206250785,0.23549342369014964 C 0.4692907731885146,0.23350683599664207 0.4692897699660086,0.23152070020517632 0.4683941079449192,0.22952905202087207 C 0.46932456871832523,0.22746046155792168 0.46932345744456944,0.2253923716687486 0.4683907707865365,0.22331857195324262 C 0.4692835906337263,0.22133348802279063 0.4692824582693493,0.21934891416639601 0.4683873702929557,0.2173588907796137 C 0.4692797638256519,0.21537457673682406 0.4692785653561385,0.21339080254518106 0.4683837712854544,0.2114016110016043 C 0.46931288151807005,0.20933545941883636 0.4693115607963908,0.2072699027557597 0.4683798051543366,0.20519873821945178 C 0.469271290940188,0.20321606340761914 0.46926995168281954,0.2012339918648876 0.46837578336048913,0.19924657150117064 C 0.469303921701592,0.19718217501302282 0.469302450254597,0.19511844133885453 0.46837136460080125,0.19304917316011372 C 0.4692618921712157,0.19106822874451984 0.46926040430896254,0.18908795453716606 0.4683668965460446,0.1871024038452999 C 0.46929401049001107,0.18503985726924918 0.46929238017487745,0.1829780450694045 0.46836200070486567,0.18091077569733258 C 0.4697351600391202,0.17915385201617756 0.4702187825612317,0.1771790803462405 0.46981432057236955,0.17498053051869225 C 0.4713327634285921,0.17337000945450018 0.47199198630132466,0.17146254114236578 0.4717939688133209,0.16925239752304083 C 0.47330974574299917,0.16764250417473686 0.4739669874364985,0.16573655600159254 0.4737676675671623,0.1635288295092827 C 0.4752790055322889,0.16192179847839988 0.47593362887211615,0.16001989206129938 0.4757335033971646,0.1578173989009053 C 0.4772526816693586,0.15620048602571648 0.4779101223754653,0.1542874286803663 0.47770779978645583,0.15207248202193924 C 0.47921934436800606,0.15046245806799818 0.4798730187163795,0.14855798620147878 0.4796707857923093,0.14635334736135208 C 0.48118718687248435,0.14473720232320886 0.48184260637308013,0.14282582326786153 0.48163901249545976,0.14061347039223962 C 0.4831588563425549,0.1389929861275176 0.4838155129811912,0.13707671057618892 0.483610954327813,0.13485888923118045 C 0.4851187307924496,0.13325088206559965 0.485770027852349,0.13134949783813327 0.485566801329332,0.1291490267598221 C 0.4871029549750339,0.12751021691377828 0.48776630792624487,0.1255725994240312 0.4875588522081967,0.12333035569442853 C 0.48905790435088803,0.12172337462541293 0.4897023329448489,0.11982611039817073 0.4894940731861419,0.11763286559595641 C 0.49099633954155547,0.11600080323215509 0.4916340480171744,0.11408148479054263 0.4914091136287859,0.11186914662635503 C 0.49289658945242804,0.11021559985441977 0.4935139570193654,0.10828395957639758 0.49326307026236255,0.10606842514548956 C 0.49471589493632223,0.10439736171890275 0.4952978968567839,0.10246413525804217 0.49501082375473826,0.10026294035285849 C 0.4964189212430038,0.0985641536576532 0.49695335904542237,0.09662462920714715 0.4966157420596362,0.09443854267865295 C 0.49797371125021844,0.09268867251526586 0.4984473472171594,0.09072545281149248 0.49803807227235974,0.08854298808864575 C 0.49931779159385337,0.08673543292758208 0.49970477562292853,0.08475356063162418 0.4992001864588098,0.08259141970901646 C 0.5003688168071635,0.08070830149265804 0.5006351543083385,0.07870521142570235 0.49999999876434326,0.07657613430018496 C 0.4999999991762289,0.07490946332052259 0.4999999995881144,0.07324279234086022 0.5,0.07157612136119784 C 0.4939047469070983,0.08937284672220899 0.4878094938141966,0.10716957208322016 0.4817142407212949,0.12496629744423132 C 0.47561898762839316,0.14276302280524247 0.46952373453549145,0.16055974816625362 0.46342848144258975,0.1783564735272648 C 0.46342848144258975,0.2617010391832092 0.46342848144258975,0.34504560483915364 0.46342848144258975,0.4283901704950981 C 0.46342848144258975,0.5117347361510425 0.46342848144258975,0.5950793018069869 0.46342848144258975,0.6784238674629313 C 0.46509514807200353,0.6784238674629313 0.46676181470141725,0.6784238674629313 0.46842848133083104,0.6784238674629313 "  fill="url(#AB)"  /><path d="M 0.5365715185574103,0.6784238674629313 C 0.5365715185574103,0.5950793018069869 0.5365715185574103,0.5117347361510425 0.5365715185574103,0.4283901704950981 C 0.5365715185574103,0.34504560483915364 0.5365715185574103,0.2617010391832092 0.5365715185574103,0.1783564735272648 C 0.5304762654645085,0.16055974816625362 0.5243810123716068,0.14276302280524247 0.5182857592787051,0.12496629744423132 C 0.5121905061858034,0.10716957208322016 0.5060952530929017,0.08937284672220899 0.5,0.07157612136119784 C 0.5,0.273858703395109 0.5,0.4761412854290201 0.5,0.6784238674629313 C -2.4878094938141966,0.6784238674629313 -0.9756189876283932,0.6784238674629313 0.5365715185574103,0.6784238674629313 "  fill="url(#CB)"  /><path d="M 0.531571518669169,0.6784238674629313 C 0.531571518669169,0.6784238674629313 0.531571518669169,0.6784238674629313 0.531571518669169,0.6784238674629313 C 0.5297337708763801,0.6743440674724782 0.5297337708763801,0.6702642674820252 0.531571518669169,0.6661722159978423 C 0.530671397301683,0.6641739466156747 0.530671397301683,0.6621756772335072 0.531571518669169,0.6601714071197197 C 0.530671397301683,0.6581731377375521 0.530671397301683,0.6561748683553847 0.531571518669169,0.6541705982415972 C 0.5306338922480576,0.6520890676426169 0.5306338922480576,0.6500075370436365 0.531571518669169,0.6479197556825742 C 0.5306713972974915,0.6459214862911016 0.5306713972974915,0.6439232168996288 0.531571518669169,0.6419189467765082 C 0.530671397301683,0.6399206773943407 0.530671397301683,0.6379224080121731 0.531571518669169,0.6359181378983856 C 0.530671397301683,0.6339198685162181 0.530671397301683,0.6319215991340505 0.531571518669169,0.629917329020263 C 0.5306338922514109,0.6278357984287267 0.5306338922514109,0.6257542678371906 0.531571518669169,0.6236664864835948 C 0.5306713972941383,0.621668217084678 0.5306713972941383,0.6196699476857612 0.531571518669169,0.6176656775551741 C 0.530671397301683,0.6156674081730066 0.530671397301683,0.6136691387908391 0.531571518669169,0.6116648686770515 C 0.530671397301683,0.609666599294884 0.530671397301683,0.6076683299127165 0.531571518669169,0.6056640597989289 C 0.530633892254764,0.6035825292148368 0.530633892254764,0.6015009986307448 0.531571518669169,0.5994132172846155 C 0.530671397290785,0.5974149478782546 0.530671397290785,0.5954166784718936 0.531571518669169,0.5934124083338399 C 0.530671397301683,0.5914141389516724 0.530671397301683,0.5894158695695049 0.531571518669169,0.5874115994557173 C 0.530671397301683,0.5854133300735498 0.530671397301683,0.5834150606913823 0.531571518669169,0.5814107905775947 C 0.5306338922581173,0.5793292600009468 0.5306338922581173,0.5772477294242988 0.531571518669169,0.5751599480856361 C 0.5306713972874317,0.573161678671831 0.5306713972874317,0.571163409258026 0.531571518669169,0.5691591391125058 C 0.530671397301683,0.5671608697303383 0.530671397301683,0.5651626003481708 0.531571518669169,0.5631583302343832 C 0.530671397301683,0.5611600608522157 0.530671397301683,0.5591617914700482 0.531571518669169,0.5571575213562606 C 0.5306338922614704,0.5550759907870568 0.5306338922614704,0.552994460217853 0.531571518669169,0.5509066788866567 C 0.5306713972840786,0.5489084094654074 0.5306713972840786,0.5469101400441583 0.531571518669169,0.5449058698911716 C 0.530671397301683,0.5429076005090041 0.530671397301683,0.5409093311268366 0.531571518669169,0.538905061013049 C 0.530671397301683,0.5369067916308815 0.530671397301683,0.5349085222487141 0.531571518669169,0.5329042521349265 C 0.5306338922648237,0.5308227215731669 0.5306338922648237,0.5287411910114072 0.531571518669169,0.5266534096876774 C 0.5306713972807253,0.5246551402589841 0.5306713972807253,0.5226568708302907 0.531571518669169,0.5206526006698375 C 0.530671397301683,0.51865433128767 0.530671397301683,0.5166560619055025 0.531571518669169,0.5146517917917149 C 0.530671397301683,0.5126535224095474 0.530671397301683,0.5106552530273799 0.531571518669169,0.5086509829135923 C 0.5306338922681768,0.5065694523592769 0.5306338922681768,0.5044879218049613 0.531571518669169,0.502400140488698 C 0.5306713972773722,0.5004018710525605 0.5306713972773722,0.49840360161642305 0.531571518669169,0.4963993314485034 C 0.530671397301683,0.49440106206633594 0.530671397301683,0.4924027926841684 0.531571518669169,0.49039852257038086 C 0.530671397301683,0.48840025318821334 0.530671397301683,0.4864019838060458 0.531571518669169,0.48439771369225826 C 0.5306338922715301,0.4823161831453868 0.5306338922715301,0.4802346525985154 0.531571518669169,0.47814687128971856 C 0.5306713972740189,0.47614860184613694 0.5306713972740189,0.4741503324025554 0.531571518669169,0.47214606222716926 C 0.530671397301683,0.47014779284500174 0.530671397301683,0.4681495234628342 0.531571518669169,0.46614525334904666 C 0.530671397301683,0.4641469839668792 0.530671397301683,0.4621487145847117 0.531571518669169,0.4601444444709241 C 0.5306338922748833,0.45806291393149684 0.5306338922748833,0.4559813833920696 0.531571518669169,0.45389360209073926 C 0.5306713972706658,0.4518953326397135 0.5306713972706658,0.4498970631886877 0.531571518669169,0.4478927930058351 C 0.530671397301683,0.44589452362366766 0.530671397301683,0.44389625424150014 0.531571518669169,0.4418919841277126 C 0.530671397301683,0.43989371474554506 0.530671397301683,0.43789544536337754 0.531571518669169,0.43589117524959 C 0.5306338922782365,0.43380964471760686 0.5306338922782365,0.4317281141856237 0.531571518669169,0.42964033289175985 C 0.530633895192399,0.42755880834619797 0.5306338953732748,0.42547728388211165 0.5315715192123391,0.4233895087558418 C 0.53067140906215,0.42139125961589113 0.5306714108072421,0.419393011262018 0.5315715244528556,0.41738876302574957 C 0.5306714365070038,0.41539055399816516 0.5306714416901904,0.4133923473053496 0.5315715400179803,0.4113881424039366 C 0.5306714863335176,0.40938999524741004 0.530671496830124,0.4073918528190847 0.5315715715393204,0.4053877147685783 C 0.530634065125302,0.40330640089909026 0.5306340837312447,0.4012250954106577 0.5315716274130211,0.3991375482171976 C 0.5306716811872227,0.39713959509933194 0.5306717083550123,0.3951416542192096 0.5315717089979735,0.39313772583169043 C 0.530671833852741,0.391139901090901 0.5306718720380637,0.3891420935507079 0.5315718236686104,0.3871383038663858 C 0.530672031657647,0.3851406292539273 0.5306720827358289,0.38314297764965943 0.5315719770565421,0.3811393501771272 C 0.530634795192282,0.37905862239842353 0.5306348641304305,0.3769779256729407 0.5315721840780065,0.37489101174268924 C 0.5306725993045002,0.3728937113534092 0.5306726825285567,0.370896448452444 0.5315724340000951,0.3688932253306006 C 0.5306729691833715,0.36689614158308465 0.5306730710043983,0.36489910370089734 0.5315727397689403,0.362896114650569 C 0.5306359378458455,0.3608160729910825 0.5306360657066939,0.3587360889265743 0.5315731237354469,0.35664991633915033 C 0.5306739412474535,0.354653342417628 0.5306740868602581,0.35265683408746085 0.5315735610111305,0.3506543959054051 C 0.5306745352630355,0.3486581050516153 0.5306747051769213,0.346661890735614 0.5315740712630334,0.3446597583970713 C 0.530675214302708,0.3426637723493072 0.5306754103930071,0.3406678746305091 0.5315746601227826,0.33866607163107726 C 0.5306385433566098,0.33658726726617116 0.5306387774743446,0.33450856835970705 0.5315753631790343,0.33242373265307446 C 0.5306768883262553,0.3304284366158637 0.5306771436830273,0.328433255604229 0.5315761300161775,0.3264321981608167 C 0.5306778607794904,0.3244372734559842 0.5306781480167772,0.32244247813732047 0.5315769925906011,0.3204418219056939 C 0.5306789410145636,0.3184472902641603 0.530679262007703,0.3164529032141348 0.5315779565339502,0.31445267168250207 C 0.5306427306829014,0.31237547618139555 0.530643102967487,0.3102984483760528 0.5315790745056643,0.3082153510261205 C 0.5306815048160055,0.30622168957972923 0.5306819005503156,0.30422820639204096 0.5315802628969708,0.3022289151042068 C 0.530682947699581,0.30023571325481013 0.5306833828938368,0.2982427074388673 0.5315815697866108,0.29624391273105966 C 0.5306471501104522,0.2941681730649376 0.5306476474200985,0.2920926574121758 0.5315830632089531,0.2900111330733611 C 0.5306863049892488,0.2880189370219829 0.5306868265705837,0.2860269759171582 0.5315846295192477,0.28402926797079864 C 0.5306881625748943,0.2820375979423225 0.5306887293202807,0.2800461832045678 0.5315863314573228,0.2780490436101669 C 0.5306528344918648,0.27597497022565837 0.5306534748995018,0.2739011853130662 0.5315882546033552,0.27182146137032803 C 0.5306924197280056,0.269830932742767 0.5306930845063813,0.2678407035649327 0.5315902509347877,0.26584479724965177 C 0.5306947441178596,0.26385486107087963 0.5306954597643907,0.2618652472554185 0.5315924000234424,0.25986998106400616 C 0.5306599423044942,0.25779778440773854 0.5306607438830515,0.25572594882290284 0.5315948071662262,0.2536482526611985 C 0.5307000075096324,0.2516595934862604 0.5307008328350651,0.24967130607954519 0.5315972856209468,0.2476774196849487 C 0.5307028508058322,0.2456894193846641 0.5307037327035228,0.2437018163356021 0.5315999339623254,0.2417086418367601 C 0.5306686320256955,0.23963853235535904 0.5306696128481025,0.2375688646858649 0.5316028793749215,0.23549342369014964 C 0.5307092268114855,0.23350683599664207 0.5307102300339914,0.23152070020517632 0.5316058920550808,0.22952905202087207 C 0.5306754312816748,0.22746046155792168 0.5306765425554305,0.2253923716687486 0.5316092292134635,0.22331857195324262 C 0.5307164093662737,0.22133348802279063 0.5307175417306507,0.21934891416639601 0.5316126297070443,0.2173588907796137 C 0.5307202361743482,0.21537457673682406 0.5307214346438616,0.21339080254518106 0.5316162287145456,0.2114016110016043 C 0.53068711848193,0.20933545941883636 0.5306884392036092,0.2072699027557597 0.5316201948456634,0.20519873821945178 C 0.5307287090598121,0.20321606340761914 0.5307300483171804,0.2012339918648876 0.5316242166395109,0.19924657150117064 C 0.530696078298408,0.19718217501302282 0.530697549745403,0.19511844133885453 0.5316286353991988,0.19304917316011372 C 0.5307381078287843,0.19106822874451984 0.5307395956910375,0.18908795453716606 0.5316331034539554,0.1871024038452999 C 0.5307059895099889,0.18503985726924918 0.5307076198251226,0.1829780450694045 0.5316379992951343,0.18091077569733258 C 0.5302648399608798,0.17915385201617756 0.5297812174387684,0.1771790803462405 0.5301856794276305,0.17498053051869225 C 0.5286672365714079,0.17337000945450018 0.5280080136986753,0.17146254114236578 0.5282060311866791,0.16925239752304083 C 0.5266902542570009,0.16764250417473686 0.5260330125635015,0.16573655600159254 0.5262323324328377,0.1635288295092827 C 0.5247209944677111,0.16192179847839988 0.5240663711278839,0.16001989206129938 0.5242664966028354,0.1578173989009053 C 0.5227473183306415,0.15620048602571648 0.5220898776245346,0.1542874286803663 0.5222922002135442,0.15207248202193924 C 0.5207806556319939,0.15046245806799818 0.5201269812836204,0.14855798620147878 0.5203292142076907,0.14635334736135208 C 0.5188128131275156,0.14473720232320886 0.5181573936269199,0.14282582326786153 0.5183609875045403,0.14061347039223962 C 0.5168411436574452,0.1389929861275176 0.5161844870188088,0.13707671057618892 0.516389045672187,0.13485888923118045 C 0.5148812692075504,0.13325088206559965 0.514229972147651,0.13134949783813327 0.5144331986706681,0.1291490267598221 C 0.5128970450249661,0.12751021691377828 0.5122336920737551,0.1255725994240312 0.5124411477918033,0.12333035569442853 C 0.510942095649112,0.12172337462541293 0.5102976670551511,0.11982611039817073 0.5105059268138581,0.11763286559595641 C 0.5090036604584445,0.11600080323215509 0.5083659519828256,0.11408148479054263 0.5085908863712141,0.11186914662635503 C 0.507103410547572,0.11021559985441977 0.5064860429806346,0.10828395957639758 0.5067369297376374,0.10606842514548956 C 0.5052841050636778,0.10439736171890275 0.5047021031432162,0.10246413525804217 0.5049891762452617,0.10026294035285849 C 0.5035810787569962,0.0985641536576532 0.5030466409545776,0.09662462920714715 0.5033842579403638,0.09443854267865295 C 0.5020262887497815,0.09268867251526586 0.5015526527828407,0.09072545281149248 0.5019619277276403,0.08854298808864575 C 0.5006822084061466,0.08673543292758208 0.5002952243770715,0.08475356063162418 0.5007998135411902,0.08259141970901646 C 0.4996311831928365,0.08070830149265804 0.4993648456916615,0.07870521142570235 0.5000000012356567,0.07657613430018496 C 0.500000000823771,0.07490946332052259 0.5000000004118856,0.07324279234086022 0.5,0.07157612136119784 C 0.5060952530929017,0.08937284672220899 0.5121905061858034,0.10716957208322016 0.5182857592787051,0.12496629744423132 C 0.5243810123716068,0.14276302280524247 0.5304762654645085,0.16055974816625362 0.5365715185574103,0.1783564735272648 C 0.5365715185574103,0.2617010391832092 0.5365715185574103,0.34504560483915364 0.5365715185574103,0.4283901704950981 C 0.5365715185574103,0.5117347361510425 0.5365715185574103,0.5950793018069869 0.5365715185574103,0.6784238674629313 C 0.5349048519279964,0.6784238674629313 0.5332381852985828,0.6784238674629313 0.531571518669169,0.6784238674629313 "  fill="url(#AB)"  /><path d="M 0.4474999933121726,0.6784238674629313 C 0.4824999977707242,0.6784238674629313 0.5175000022292758,0.6784238674629313 0.5525000066878274,0.6784238674629313 C 0.5532759642494599,0.6784238674629313 0.5535000067353248,0.6786479099487962 0.5535000067353248,0.6794238675104287 C 0.5535000067353248,0.6820905340709246 0.5535000067353248,0.6847572006314205 0.5535000067353248,0.6874238671919164 C 0.5535000067353248,0.6881998247535489 0.5532759642494599,0.6884238672394138 0.5525000066878274,0.6884238672394138 C 0.5175000022292758,0.6884238672394138 0.4824999977707242,0.6884238672394138 0.4474999933121726,0.6884238672394138 C 0.44672403575054015,0.6884238672394138 0.44649999326467515,0.6881998247535489 0.44649999326467515,0.6874238671919164 C 0.44649999326467515,0.6847572006314205 0.44649999326467515,0.6820905340709246 0.44649999326467515,0.6794238675104287 C 0.44649999326467515,0.6786479099487962 0.44672403575054015,0.6784238674629313 0.4474999933121726,0.6784238674629313 "  fill="url(#DB)"  /><g id="hilt" ><path d="M 0.4864330607704879,0.6884238672394138 C 0.4886516033697748,0.7515205611032011 0.4886516033697748,0.8146172549669883 0.4864330607704879,0.8796259622592624 C 0.49547768692349603,0.8796259622592624 0.5045223130765041,0.8796259622592624 0.5135669392295121,0.8796259622592624 C 0.5113483966302252,0.8146172549669883 0.5113483966302252,0.7515205611032011 0.5135669392295121,0.6884238672394138 "  fill="url(#EB)"  /><g id="wraps" ><path d="M 0.4864330607704879,0.6884238672394138 C 0.4931171302781271,0.6981981660815739 0.5019394781499787,0.7053257605227395 0.5129001043860429,0.7098066505629106 C 0.5128480871776624,0.7117185056300396 0.5127981052709051,0.7136305588190125 0.5127501586657709,0.715542863258928 C 0.5019043947065972,0.711026493280374 0.49319719019094305,0.7038979619081995 0.48662854511880826,0.6941572691424044 C 0.48656541897099137,0.6922460997553418 0.48650025752155124,0.6903349834973778 0.4864330607704879,0.6884238672394138 "  fill="url(#FB)"  /><path d="M 0.4868118176573894,0.6998909898199869 C 0.4932730606274045,0.7096009151150889 0.5018732629933541,0.7167307796619602 0.5126124247552379,0.7212805834606008 C 0.5125685487533502,0.7231934435315001 0.5125267080530856,0.7251066079824405 0.5124869026544443,0.727020129942521 C 0.5018460830102492,0.7224389384420904 0.49334474158751157,0.7153073444768346 0.48698287838623133,0.7056253480467535 C 0.4869278934449072,0.7037137536269015 0.48687087320195993,0.7018023185943455 0.4868118176573894,0.6998909898199869 "  fill="url(#GB)"  /><path d="M 0.4871417273053341,0.711360662597296 C 0.493412233071264,0.7210175687680281 0.5018228547572825,0.7281512883953563 0.5123735923633898,0.7327618214792804 C 0.5123378575679948,0.7346761115867392 0.512304158074223,0.7365908123324366 0.5122724938820744,0.7385059768454713 C 0.5018035782344542,0.7338681482963499 0.49347553507866193,0.7267319067632618 0.48728836441469764,0.7170972522462067 C 0.48724152067986637,0.715184807760776 0.48719264164341186,0.7132726289208386 0.4871417273053341,0.711360662597296 "  fill="url(#HB)"  /><path d="M 0.487422789714322,0.7228354357680774 C 0.4935346476097055,0.7324506772371275 0.5017882534417643,0.7395898369196635 0.5121836072104984,0.7442529148156855 C 0.5121560136215961,0.7461690599924934 0.5121304553343172,0.748085722065737 0.5121069323486613,0.7500029541645153 C 0.5017768803792125,0.7453166730398891 0.49358957066439446,0.7381741989642174 0.4875450032042072,0.7285755319375001 C 0.48750630067586875,0.7266618123537015 0.487465562845907,0.7247484646735934 0.48742278971432207,0.7228354357680774 "  fill="url(#IB)"  /><path d="M 0.4876550048843532,0.7343178595290669 C 0.4936403042427289,0.7439027907191234 0.501769459046799,0.7510489754316185 0.5120424692965637,0.7557564136665523 C 0.5120230169141543,0.7576748389454984 0.5120055998333682,0.7595938873790776 0.5119902180542052,0.7615136120963888 C 0.5017659894445239,0.7567870628694435 0.49368684834470883,0.7496367712764371 0.48775279475475997,0.7400627373173697 C 0.4877222334329142,0.7381473176024137 0.48768963680944527,0.7362323760493457 0.48765500488435315,0.7343178595290669 "  fill="url(#JB)"  /><path d="M 0.4878383728154276,0.7458104840770007 C 0.4937292029703343,0.7553764594107513 0.501766471572387,0.7625312541279566 0.5119501786215858,0.7672748682286168 C 0.5119388674456692,0.7691959986424904 0.5119295915713759,0.7711178584691948 0.5119223509987056,0.7730405008378283 C 0.5017709054303885,0.7682818679817496 0.49376736811960525,0.7611221738966574 0.487911739066356,0.7515614185825518 C 0.48788931895100307,0.7496438737036489 0.4878648635340269,0.7477269132448314 0.4878383728154276,0.7458104840770007 "  fill="url(#KB)"  /><path d="M 0.4879728935075452,0.7573158596086149 C 0.4938013437925217,0.7668742335087477 0.5017792910185281,0.7740392232054144 0.5119067351855647,0.7788108286986151 C 0.5119035652161409,0.7807350892802059 0.5119024305483404,0.7826601855328243 0.5119033311821629,0.7845861705855695 C 0.5017916283368061,0.7798036385735433 0.4938311299890836,0.7726329570216142 0.4880218361389952,0.7630741259297822 C 0.48800755723013506,0.7611540308541432 0.4879912430196517,0.7592346264567871 0.48797289350754514,0.7573158596086149 "  fill="url(#LB)"  /><path d="M 0.488058566960706,0.7688365363206455 C 0.49385672670929104,0.7783986632098487 0.5018079173852225,0.785575432860728 0.5119121389885004,0.7903668452732833 C 0.5119171102255693,0.7922946610553803 0.5119241167642615,0.7942234187667024 0.511933158604577,0.7961531715363486 C 0.501828158163777,0.7913549248415608 0.4938781339531439,0.7841716708480436 0.48808308597267763,0.774603409555797 C 0.48807694827031034,0.7726803392506327 0.48806877526631975,0.7707580658819484 0.48805856696070604,0.7688365363206455 "  fill="url(#MB)"  /><path d="M 0.4880953931749101,0.7803750644098286 C 0.49389535172064236,0.7899522987107904 0.5018523506724699,0.7971424332906334 0.5119663900303928,0.8019454681493574 C 0.5119795024739547,0.80387726416475 0.5119946502191397,0.8058101083675653 0.5120118332659479,0.8077440538869017 C 0.501880494911301,0.8029382769825378 0.4939083800117862,0.7957408655726814 0.4880954885674033,0.7861518196573325 C 0.4880974920715288,0.7842253490898534 0.488097460274031,0.7822997817170516 0.4880953931749101,0.7803750644098286 "  fill="url(#NB)"  /><path d="M 0.48808337215015735,0.7919339940729004 C 0.4939172188265757,0.8015376902083087 0.5019125908802705,0.8087427746918664 0.512069488311242,0.8135492475235735 C 0.5120907419612966,0.8154854488050511 0.5121140309129745,0.8174228045321487 0.5121393551662754,0.8193613678339648 C 0.5019486385793783,0.8145562451932107 0.4939218681650106,0.8073430913922639 0.48805904392317223,0.7977219064311245 C 0.48806918863379045,0.7957916105685414 0.4880772980427855,0.7938623241588328 0.48808337215015735,0.7919339940729004 "  fill="url(#OB)"  /><path d="M 0.48802250388644786,0.8035158755065968 C 0.493922328027091,0.8131573878991396 0.5019886380086244,0.8203790072611632 0.512221433831048,0.8251807335926676 C 0.5122508286875954,0.8271217651730195 0.5122822588457661,0.8290640574571887 0.5123157243055598,0.831007663574274 C 0.5020325891680087,0.8262113796703157 0.49391859841281693,0.8189808985035274 0.48797375203998433,0.8093162200739092 C 0.4879920379570954,0.8073816738834326 0.4880082885725832,0.805448243404028 0.48802250388644786,0.8035158755065968 "  fill="url(#PB)"  /><path d="M 0.4879127883837816,0.8151232589076539 C 0.4939106793221883,0.8248139419800194 0.5020804920575314,0.8320536811952601 0.5124222265898107,0.836842476553376 C 0.512459762652851,0.8387887634653916 0.5124993340175144,0.8407364173394218 0.512540940683801,0.8426854913045654 C 0.5021323466771923,0.8379062306105886 0.49389857075520527,0.8306568371032077 0.4878396129178397,0.8209373107824228 C 0.48786604004144357,0.8189980892312633 0.4878904318634242,0.8170600896493733 0.4879127883837816,0.8151232589076539 "  fill="url(#QB)"  /><path d="M 0.4877542256421586,0.8267586944728078 C 0.4938822727118676,0.836509902647684 0.5021881530269915,0.8437693466908929 0.5126718665875303,0.8485370266024345 C 0.5127175438570634,0.8504889938789031 0.5127652564282196,0.8524424343755838 0.5128150043009989,0.854397401221575 C 0.502247911106929,0.8496433482107655 0.49386178519217555,0.8423734573880408 0.4876566265567383,0.8325877287534011 C 0.48769119488683493,0.8306434068087695 0.4877237279153084,0.8287004130916047 0.4877542256421586,0.8267586944728078 "  fill="url(#RB)"  /><path d="M 0.4875468156615788,0.8384247323987948 C 0.4938371081961289,0.8482478200988698 0.5023116209170048,0.855528553944798 0.5129703538242066,0.8602669339365794 C 0.5130241723002325,0.8622250066102903 0.5130800260778814,0.8641846587624108 0.5131379151571536,0.8661459435220391 C 0.502379282457219,0.8614252826675826 0.4938082417237278,0.8541333095547631 0.4874247929566801,0.8442700241835805 C 0.48746750249326953,0.8423201768126873 0.48750817672823576,0.8403717639274584 0.4875468156615788,0.8384247323987947 "  fill="url(#SB)"  /><path d="M 0.4872905584420422,0.8501239228823505 C 0.4937751857749721,0.8600302445303124 0.5024508957275713,0.8673338531537111 0.5133176882998397,0.8720347487525466 C 0.5133796479823582,0.8739993518562893 0.5134436429665,0.8759656406966388 0.513509673252265,0.8779336684026934 C 0.502526460728062,0.8732545841777757 0.4937379403498619,0.86593894380011 0.4871441121176651,0.8559867472696967 C 0.48719496286074737,0.8540309494397529 0.48724377830220633,0.8520766923536703 0.48729055844204217,0.8501239228823505 "  fill="url(#TB)"  /><path d="M 0.48698545398354887,0.8618588161202113 C 0.49406923442515643,0.8704393467307675 0.5029297295071442,0.8763617287771178 0.5135669392295121,0.8796259622592624 C 0.5135669392295121,0.8796259622592623 0.5135669392295121,0.8796259622592623 0.5135669392295121,0.8796259622592623 C 0.5034609360767842,0.8783393598011829 0.49454348434684464,0.8743775217842575 0.4868145840396934,0.8677404482084862 C 0.48687357598926845,0.865778274886702 0.4869305326372202,0.8638177485669767 0.4869854539835488,0.8618588161202113 "  fill="url(#UB)"  /><path d="M 0.48663150228609875,0.8736319623091132 C 0.4950105812632899,0.8783235060269745 0.5039890602444277,0.8803215060103575 0.5135669392295121,0.8796259622592624 C 0.5135669392295121,0.8796259622592623 0.5135669392295121,0.8796259622592623 0.5135669392295121,0.8796259622592623 C 0.5045141338875344,0.8823082736628391 0.495470557051952,0.8822775119753132 0.4864362087227649,0.8795336771966846 C 0.48650334187883276,0.877564703350271 0.48656843973327735,0.8755974827641135 0.4866315022860987,0.8736319623091132 "  fill="url(#VB)"  /></g><path d="M 0.48400628542822116,0.8796259622592624 C 0.494668761809407,0.8796259622592624 0.5053312381905929,0.8796259622592624 0.5159937145717788,0.8796259622592624 C 0.5183215871663428,0.8796259622592624 0.5189937145978558,0.8802980896907754 0.5189937145978558,0.8826259622853394 C 0.5189937145978558,0.8839592955267822 0.5189937145978558,0.8852926287682251 0.5189937145978558,0.8866259620096679 C 0.5189937145978558,0.8889538346042319 0.5183215871663428,0.889625962035745 0.5159937145717788,0.889625962035745 C 0.5053312381905929,0.889625962035745 0.494668761809407,0.889625962035745 0.48400628542822116,0.889625962035745 C 0.4816784128336571,0.889625962035745 0.48100628540214413,0.8889538346042319 0.48100628540214413,0.8866259620096679 C 0.48100628540214413,0.8852926287682251 0.48100628540214413,0.8839592955267822 0.48100628540214413,0.8826259622853394 C 0.48100628540214413,0.8802980896907754 0.4816784128336571,0.8796259622592624 0.48400628542822116,0.8796259622592624 "  fill="url(#WB)"  /></g><g id="top" ></g></svg>