<?xml version="1.0"?>
<svg width="700" height="700"  viewBox="0 0 1 1" 
     xmlns="http://www.w3.org/2000/svg"
     xmlns:xlink="http://www.w3.org/1999/xlink">

<defs><linearGradient id="BB" x1="97%" y1="0%" x2="100%" y2="100%" >
<stop offset="0%" stop-color="#333333" stop-opacity="1"/><stop offset="100%" stop-color="#b2b2b2" stop-opacity="1"/></linearGradient><linearGradient id="AB" x1="0.30000001192092896" y1="0.1161532199182096" x2="0.699999988079071" y2="0.6338467689059195" gradientUnits="userSpaceOnUse">
<stop offset="0%" stop-color="#ffffff" stop-opacity="1"/><stop offset="20%" stop-color="#7f7f7f" stop-opacity="1"/><stop offset="40%" stop-color="#ffffff" stop-opacity="1"/><stop offset="60%" stop-color="#000000" stop-opacity="1"/><stop offset="80%" stop-color="#ffffff" stop-opacity="1"/><stop offset="100%" stop-color="#000000" stop-opacity="1"/></linearGradient><linearGradient id="CB" x1="100%" y1="0%" x2="100%" y2="100%" >
<stop offset="0%" stop-color="#191919" stop-opacity="1"/><stop offset="100%" stop-color="#7f7f7f" stop-opacity="1"/></linearGradient><linearGradient id="AB" x1="0.30000001192092896" y1="0.1161532199182096" x2="0.699999988079071" y2="0.6338467689059195" gradientUnits="userSpaceOnUse">
<stop offset="0%" stop-color="#ffffff" stop-opacity="1"/><stop offset="20%" stop-color="#7f7f7f" stop-opacity="1"/><stop offset="40%" stop-color="#ffffff" stop-opacity="1"/><stop offset="60%" stop-color="#000000" stop-opacity="1"/><stop offset="80%" stop-color="#ffffff" stop-opacity="1"/><stop offset="100%" stop-color="#000000" stop-opacity="1"/></linearGradient><linearGradient id="DB" x1="0%" y1="0%" x2="100%" y2="100%" >
<stop offset="0%" stop-color="#a52a2a" stop-opacity="1"/><stop offset="100%" stop-color="#210808" stop-opacity="1"/></linearGradient><linearGradient id="EB" x1="0.48761676428578576" y1="0.6438467686824021" x2="0.5123832357142142" y2="0.6448467687298995" gradientUnits="userSpaceOnUse">
<stop offset="0%" stop-color="#521515" stop-opacity="1"/><stop offset="100%" stop-color="#210808" stop-opacity="1"/></linearGradient><linearGradient id="FB" x1="0.48761676428578576" y1="0.6438467686824021" x2="0.512713389797734" y2="0.6525633119178695" gradientUnits="userSpaceOnUse">
<stop offset="0%" stop-color="#ff0000" stop-opacity="1"/><stop offset="50%" stop-color="#660000" stop-opacity="1"/><stop offset="100%" stop-color="#330000" stop-opacity="1"/></linearGradient><linearGradient id="GB" x1="0.4871694793740485" y1="0.6558797695317716" x2="0.5131161136211667" y2="0.6645981982330368" gradientUnits="userSpaceOnUse">
<stop offset="0%" stop-color="#ff0000" stop-opacity="1"/><stop offset="50%" stop-color="#660000" stop-opacity="1"/><stop offset="100%" stop-color="#330000" stop-opacity="1"/></linearGradient><linearGradient id="HB" x1="0.48678370886589617" y1="0.6679157891610183" x2="0.5134573230410144" y2="0.6766382901348912" gradientUnits="userSpaceOnUse">
<stop offset="0%" stop-color="#ff0000" stop-opacity="1"/><stop offset="50%" stop-color="#660000" stop-opacity="1"/><stop offset="100%" stop-color="#330000" stop-opacity="1"/></linearGradient><linearGradient id="IB" x1="0.48645945276132885" y1="0.6799578463500193" x2="0.5137370180572772" y2="0.6886866064033099" gradientUnits="userSpaceOnUse">
<stop offset="0%" stop-color="#ff0000" stop-opacity="1"/><stop offset="50%" stop-color="#660000" stop-opacity="1"/><stop offset="100%" stop-color="#330000" stop-opacity="1"/></linearGradient><linearGradient id="JB" x1="0.48619671106034645" y1="0.6920089598786516" x2="0.513955198669955" y2="0.7007461658181701" gradientUnits="userSpaceOnUse">
<stop offset="0%" stop-color="#ff0000" stop-opacity="1"/><stop offset="50%" stop-color="#660000" stop-opacity="1"/><stop offset="100%" stop-color="#330000" stop-opacity="1"/></linearGradient><linearGradient id="KB" x1="0.48599548376294904" y1="0.7040721485267925" x2="0.5141118648790478" y2="0.7128199871593488" gradientUnits="userSpaceOnUse">
<stop offset="0%" stop-color="#ff0000" stop-opacity="1"/><stop offset="50%" stop-color="#660000" stop-opacity="1"/><stop offset="100%" stop-color="#330000" stop-opacity="1"/></linearGradient><linearGradient id="LB" x1="0.4858557708691366" y1="0.7161504310743189" x2="0.5142070166845557" y2="0.7249110892067231" gradientUnits="userSpaceOnUse">
<stop offset="0%" stop-color="#ff0000" stop-opacity="1"/><stop offset="50%" stop-color="#660000" stop-opacity="1"/><stop offset="100%" stop-color="#330000" stop-opacity="1"/></linearGradient><linearGradient id="MB" x1="0.4857775723789091" y1="0.728246826301108" x2="0.5142406540864786" y2="0.7370224907401703" gradientUnits="userSpaceOnUse">
<stop offset="0%" stop-color="#ff0000" stop-opacity="1"/><stop offset="50%" stop-color="#660000" stop-opacity="1"/><stop offset="100%" stop-color="#330000" stop-opacity="1"/></linearGradient><linearGradient id="NB" x1="0.48576088829226666" y1="0.740364352987037" x2="0.5142127770848165" y2="0.7491572105395674" gradientUnits="userSpaceOnUse">
<stop offset="0%" stop-color="#ff0000" stop-opacity="1"/><stop offset="50%" stop-color="#660000" stop-opacity="1"/><stop offset="100%" stop-color="#330000" stop-opacity="1"/></linearGradient><linearGradient id="OB" x1="0.4858057186092091" y1="0.7525060299119829" x2="0.5141233856795695" y2="0.7613182673847915" gradientUnits="userSpaceOnUse">
<stop offset="0%" stop-color="#ff0000" stop-opacity="1"/><stop offset="50%" stop-color="#660000" stop-opacity="1"/><stop offset="100%" stop-color="#330000" stop-opacity="1"/></linearGradient><linearGradient id="PB" x1="0.4859120633297365" y1="0.764674875855823" x2="0.5139724798707375" y2="0.7735086800557197" gradientUnits="userSpaceOnUse">
<stop offset="0%" stop-color="#ff0000" stop-opacity="1"/><stop offset="50%" stop-color="#660000" stop-opacity="1"/><stop offset="100%" stop-color="#330000" stop-opacity="1"/></linearGradient><linearGradient id="QB" x1="0.48607992245384896" y1="0.7768739095984343" x2="0.5137600596583205" y2="0.7857314673322293" gradientUnits="userSpaceOnUse">
<stop offset="0%" stop-color="#ff0000" stop-opacity="1"/><stop offset="50%" stop-color="#660000" stop-opacity="1"/><stop offset="100%" stop-color="#330000" stop-opacity="1"/></linearGradient><linearGradient id="RB" x1="0.4863092959815463" y1="0.7891061499196939" x2="0.5134861250423185" y2="0.7979896479941971" gradientUnits="userSpaceOnUse">
<stop offset="0%" stop-color="#ff0000" stop-opacity="1"/><stop offset="50%" stop-color="#660000" stop-opacity="1"/><stop offset="100%" stop-color="#330000" stop-opacity="1"/></linearGradient><linearGradient id="SB" x1="0.48660018391282867" y1="0.801374615599479" x2="0.5131506760227317" y2="0.8102862408215006" gradientUnits="userSpaceOnUse">
<stop offset="0%" stop-color="#ff0000" stop-opacity="1"/><stop offset="50%" stop-color="#660000" stop-opacity="1"/><stop offset="100%" stop-color="#330000" stop-opacity="1"/></linearGradient><linearGradient id="TB" x1="0.486952586247696" y1="0.8136823254176666" x2="0.5127537125995597" y2="0.8226242645940167" gradientUnits="userSpaceOnUse">
<stop offset="0%" stop-color="#ff0000" stop-opacity="1"/><stop offset="50%" stop-color="#660000" stop-opacity="1"/><stop offset="100%" stop-color="#330000" stop-opacity="1"/></linearGradient><linearGradient id="UB" x1="0.48736650298614825" y1="0.8260322981541339" x2="0.5123832357142142" y2="0.8327502284236288" gradientUnits="userSpaceOnUse">
<stop offset="0%" stop-color="#ff0000" stop-opacity="1"/><stop offset="50%" stop-color="#660000" stop-opacity="1"/><stop offset="100%" stop-color="#330000" stop-opacity="1"/></linearGradient><linearGradient id="VB" x1="0.48761676428578576" y1="0.6438467686824021" x2="0.5123832357142142" y2="0.6448467687298995" gradientUnits="userSpaceOnUse">
<stop offset="0%" stop-color="#310c0c" stop-opacity="1"/><stop offset="100%" stop-color="#210808" stop-opacity="1"/></linearGradient><filter id="WB" x="-40%" y="-40%" width="180%" height="180%"><feGaussianBlur in="SourceGraphic" stdDeviation="0.00800000037997961" /></filter><filter id="WB" x="-40%" y="-40%" width="180%" height="180%"><feGaussianBlur in="SourceGraphic" stdDeviation="0.00800000037997961" /></filter><g id="uglow" ><use xlink:href="#XB"  fill="#ffffff"  fill-opacity="0.5"  filter="url(#WB)" /><use xlink:href="#YB"  fill="#ffffff"  fill-opacity="0.5"  filter="url(#WB)" /></g><path  id="XB" d="M 0.47349346810874804,0.6338467689059195 C 0.4753460228799646,0.6073720923276035 0.47719857765118107,0.5808974157492874 0.47905113242239755,0.5544227391709714 C 0.47308155858441053,0.47091591991545223 0.46711198474642357,0.3874091006599331 0.46114241090843655,0.30390228140441394 C 0.47409494060562435,0.24131926090901248 0.4870474703028122,0.17873624041361102 0.5,0.1161532199182096 C 0.5,0.28871773624744623 0.5,0.46128225257668287 0.5,0.6338467689059195 C 3.4911644893695826,0.6338467689059195 1.9823289787391654,0.6338467689059195 0.47349346810874804,0.6338467689059195 "  /><path d="M 0.47849346799698933,0.6338467689059195 C 0.47849346799698933,0.6338467689059195 0.47849346799698933,0.6338467689059195 0.47849346799698933,0.6338467689059195 C 0.4802909667063142,0.6305049654431748 0.4805338633967388,0.6270537490538779 0.4792228874783536,0.6234827558584136 C 0.4785751144772758,0.6217248753854901 0.4786948787120988,0.620020942767539 0.4795825398305445,0.6183658411557359 C 0.48047127421769764,0.616712950250791 0.48059114140609777,0.6150060651153874 0.4799425013526326,0.6132400600343961 C 0.47928226030056764,0.6114490196435268 0.47940407694029263,0.6097128516143672 0.4803083170828282,0.6080263422963038 C 0.48119994217185524,0.6063675881226437 0.4813200168493262,0.6046547462549768 0.48066890169521087,0.6028826730903202 C 0.4800161961479977,0.601112738417732 0.4801363737765827,0.5993969378135274 0.48102979547009445,0.597730118789743 C 0.4819105205370604,0.5960911688435397 0.48202894986629186,0.5943988723512054 0.4813854390968367,0.5926481474067853 C 0.4807302900885938,0.5908722426347222 0.48085067203332493,0.589150563965345 0.4817469464337127,0.5874779412590708 C 0.4826442978220474,0.5858075701643649 0.48276478271611495,0.5840829265933968 0.4821087629277512,0.5822988315030893 C 0.4814612743080568,0.5805443392481192 0.48158000617347274,0.5788433298168445 0.4824653150715524,0.5771906951386662 C 0.4833655240521923,0.5755145257927439 0.4834862132576861,0.5737839919383826 0.4828277451134096,0.5719938968441948 C 0.4821778433943427,0.5702335103017243 0.48229677642696134,0.5685266971988088 0.4831849013629166,0.5668683320366302 C 0.48407406728395325,0.5652122550267044 0.484193100118799,0.5635025596212642 0.4835423573188078,0.5617341116660401 C 0.4828900576446602,0.5599678686302842 0.4830091902814911,0.5582552889458929 0.483900112980356,0.5565912297972099 C 0.4846891007410342,0.5547665041828176 0.4846616998079806,0.5529541213313933 0.4838178278971713,0.5511486387219332 C 0.4829437242836183,0.5495272871389093 0.4828242094682105,0.547852100052004 0.48345892455222356,0.5461180469341965 C 0.4841256216060035,0.5443028917215375 0.4840001417271646,0.5425442589783412 0.4830821081041103,0.5408368675932602 C 0.48220829595230835,0.5392161093658091 0.4820888012419349,0.5375415246907986 0.4827232651346404,0.5358080848502293 C 0.48335796144571863,0.5340799798076044 0.4832384762571861,0.5324056969234212 0.482364450759287,0.5307802083859473 C 0.48144725974181785,0.5290790507624294 0.48132181034937593,0.5273213844020603 0.4819877258619142,0.525501931095505 C 0.4826221549556554,0.5237744699129481 0.4825026887293158,0.5221008223473043 0.48162896843008235,0.5204759624946801 C 0.4807121027734734,0.5187754750304694 0.48058667290649565,0.5170184876246616 0.481252302167736,0.5151997241067984 C 0.48188645314555334,0.5134729290121074 0.48176700514480275,0.5117999393246045 0.48089359946740196,0.5101757311159809 C 0.47997706904881726,0.5084759378109127 0.47985165793120516,0.5067196530099081 0.48051698950945637,0.5049016026524055 C 0.48115085148624137,0.5031754958366805 0.4810314209719385,0.5015031865513653 0.4801583393209769,0.4998796529113743 C 0.47924215401758025,0.4981805777652841 0.4791167608732354,0.4964250192193239 0.4797817833368063,0.4946077053938504 C 0.4804153454274505,0.4928823090481918 0.48029593166045426,0.4912107026891109 0.4794231834405381,0.48958786654238456 C 0.4785073531294933,0.48788953355510756 0.47838197718231734,0.48613472491443327 0.4790466790995167,0.4843181709926571 C 0.47967993041891155,0.48259350730816514 0.4795605326600806,0.4809226263993654 0.47868812727581644,0.47930051067053603 C 0.4777726618342871,0.4776029438419073 0.47764730230818175,0.4758489087567601 0.4783116722473186,0.47403313811034953 C 0.47897624416954104,0.4722230437325477 0.4788508927495293,0.4704694139598708 0.47793524156144385,0.46876698270471284 C 0.47706373095405086,0.46715101410581034 0.47694435599872015,0.46548127300306286 0.47757675821672235,0.46375274522354554 C 0.4782409808062166,0.46194346709300627 0.4781156446377993,0.4601906466975041 0.4772003733314311,0.4584890203799638 C 0.47632922914340114,0.4568738274416849 0.47620986833936885,0.4552048683740199 0.4768419324831006,0.4534771313524675 C 0.4775057943324371,0.451668692710106 0.47738047263537986,0.44991670528415084 0.4764655910553463,0.4482159079189046 C 0.47559482269350567,0.4466015134982432 0.4754754753016305,0.4449333589897081 0.4761071904837634,0.4432064349848603 C 0.4767706801635819,0.44139885913132343 0.47664537216178626,0.43964772832515603 0.4757308901829203,0.4379477839830592 C 0.47486050705409544,0.43633421093700947 0.47474117233523616,0.4346668835116519 0.4753725276684417,0.4329407947822487 C 0.47603563374938207,0.43113410501818317 0.47591033866674964,0.42938385448204397 0.4749962661638842,0.42768478723395176 C 0.4740827834156225,0.42599143303731873 0.47395749464422576,0.42424164245565843 0.4746200236119862,0.42243016093031843 C 0.47525117240785436,0.4207103806205233 0.4751318554490985,0.4190443466899892 0.4742617144311508,0.417427056098297 C 0.47334865609518784,0.41573461271678525 0.4732233790746765,0.413985738243438 0.4738855071671964,0.41217518087064337 C 0.47451626873056285,0.41045628910096804 0.47439696258795583,0.40879113883841445 0.47352723046728806,0.40717472969618695 C 0.47261460638189123,0.4054832210575266 0.47248934033083273,0.40373528626822575 0.4731510561446329,0.4019256763425103 C 0.4738129325493729,0.40012180817218146 0.47368767181025245,0.3983743637597282 0.47277489777374343,0.3966780955919603 C 0.47190616007647607,0.3950680591634092 0.47178686888602717,0.39340428796294286 0.4724166659752102,0.39168178574503987 C 0.4730781127531606,0.3898788975214869 0.4729528618158805,0.388132428640566 0.47204053703927634,0.3864371345185734 C 0.47117223183859247,0.38482803430709417 0.47105294960742533,0.38316520335941234 0.4716823321454929,0.38144364825355204 C 0.4723433378990006,0.37964176319101 0.4722180959814628,0.37789629340815284 0.47130623029587193,0.3762019973215327 C 0.4703949796141913,0.3745134616749778 0.470269742009294,0.3727685126913689 0.4709301413971232,0.37096191035119974 C 0.4715592345367162,0.369246818767034 0.47143996444976183,0.3675854524487047 0.47057197297244663,0.36597282237246553 C 0.46966119633939274,0.3642853181433334 0.4695359665872907,0.36254140411444263 0.4701959076556654,0.3607358433742188 C 0.47085598565248016,0.35893606032904224 0.470730759611501,0.3571926854119474 0.4698198534833971,0.3555004833302935 C 0.468952913567989,0.3538943537046568 0.4688336539350278,0.3522345035221899 0.4694617164520931,0.3505159483120483 C 0.4701213188203787,0.3487172389996718 0.4699960994589819,0.346974934806556 0.4690856823386306,0.345283803655406 C 0.46817589544921606,0.3435984606051845 0.4680506791974245,0.34185671383642546 0.4687096575633219,0.34005333294575935 C 0.46933738083134935,0.33834133379648074 0.4692181299621618,0.33668305125638653 0.4683515468496561,0.3350735055622064 C 0.4674422638869968,0.33338926652486456 0.4673170531415748,0.3316486262493319 0.4679755386099915,0.32984635765499865 C 0.4686341432489276,0.3280498930079753 0.4685089350115932,0.3263098284693737 0.4675995379021213,0.3246209386875014 C 0.4667340493156363,0.3230179887191895 0.4666148055200028,0.3213613253279789 0.4672414484303592,0.3196459736128457 C 0.4678995428697988,0.31785065318015465 0.46777433896562115,0.3161117309040128 0.4668654607349717,0.3144239848629012 C 0.46595722798362754,0.31274205393401266 0.46583202598601975,0.3110037257073902 0.46648947876501895,0.30920378004542437 C 0.46719713723053385,0.30738297227935873 0.46710359270541285,0.3056043016879024 0.4662085642787864,0.30386242698676447 C 0.4658031283839381,0.30203597060430337 0.466150031932135,0.3003657770855859 0.46725031666234856,0.29884683089909825 C 0.46834984282098785,0.2973320699058739 0.46869667083636624,0.295661080072699 0.46829184222063275,0.29382884347675575 C 0.4678854244667859,0.29200113496947944 0.4682319806570607,0.2903295328584101 0.4693325514873251,0.2888090173820813 C 0.47043180669697954,0.28729288216125304 0.47077789486175736,0.28562085136651943 0.4703718552720628,0.28378790394909226 C 0.4699488797467035,0.28189233740798575 0.47030708183087894,0.28015812316138045 0.4714475371926607,0.27858005342580217 C 0.47254536971626054,0.27706290994957494 0.4728898976130212,0.27539057372289244 0.4724821554879176,0.27355802277976515 C 0.4720723729503337,0.2717311020370981 0.4724158369340295,0.2700588948047542 0.47351357884908696,0.2685363795041094 C 0.47460888849767496,0.2670186306653181 0.47495109238761896,0.26534673592601704 0.4745412181449844,0.2635156746459876 C 0.4741290834448808,0.261690786081821 0.4744698310406797,0.2600193874297929 0.47556448418524705,0.25849645953941724 C 0.47669654636991043,0.2569222649672318 0.47704816623495544,0.255189683064197 0.4766203996822846,0.253293510948708 C 0.47620540254557864,0.25147181038121497 0.47654257673452827,0.24980199008309242 0.4776329347711865,0.2482790356435946 C 0.4787197534309535,0.2467612249802589 0.47905487543718234,0.24509245845420857 0.4786393071492943,0.24326772481913778 C 0.47822104146571703,0.24145025247023597 0.4785539151095458,0.2397827232081657 0.4796389276884502,0.2382601295020808 C 0.4807598275118725,0.23668667545414562 0.48110244518125306,0.234958889118562 0.48066780956522215,0.23307158201464304 C 0.4802457480629498,0.2312595342507474 0.4805734348280904,0.22959509314177912 0.4816518538923019,0.22807326043050544 C 0.48272563613549346,0.22655693973604382 0.4830504786491257,0.22489429358106242 0.4826273569236708,0.22308032909851125 C 0.4821852808341932,0.22120789850088163 0.4825189405435659,0.2194857650736714 0.4836293380199852,0.21790875731167572 C 0.48469481689258537,0.21639377739193577 0.4850132587228431,0.21473535520246267 0.48458561978020703,0.21292851056062406 C 0.48413863492533427,0.2110640356526167 0.48446523472133574,0.20934667777378513 0.48556639993573986,0.2077712797597258 C 0.4866614341652644,0.20620200840480665 0.48698411552583476,0.2044873850817641 0.4865354130180576,0.2026222608379679 C 0.48609913830800966,0.20083325851189793 0.48640637954898697,0.199182653144939 0.4874580593754682,0.19766548802809764 C 0.48854207131110905,0.19609843050806547 0.48885641862553747,0.1943897750948494 0.48840204529251696,0.19253439075723938 C 0.4879436660986399,0.19068953620620988 0.4882534463390943,0.1889842223077802 0.4893323162728834,0.18741332806518995 C 0.4903657161934356,0.18590479095088475 0.4906599027646823,0.18426373735948706 0.49021575941839507,0.18248523926564453 C 0.4897509973650732,0.18065187287457607 0.49005116944822197,0.17895371913720493 0.49111717707389146,0.17738567855847875 C 0.49217528898888435,0.17582433652855303 0.492470245359324,0.17413013126513233 0.4920029319286613,0.1722979751302906 C 0.49153116908201044,0.17047750798156677 0.4918206909006621,0.16878745606997136 0.4928723668083023,0.16722274422994557 C 0.493952668750367,0.1656093174413106 0.49424656803323463,0.1638635035847664 0.49375494722596,0.1619800600436241 C 0.4932755385894198,0.160173968471956 0.49355332110367556,0.15849300416232115 0.4945891289397012,0.15693211923890513 C 0.495615852834376,0.1553783100292522 0.49588753650786005,0.15370212078321258 0.49540499581652614,0.15189851796431733 C 0.4949000795755872,0.15004396769979644 0.49517480335960656,0.14831316689085905 0.4962299921543006,0.1467009180044624 C 0.49723896098087855,0.14515156466788517 0.4974975530886093,0.14348572839677026 0.4970065450203612,0.14169840674426282 C 0.4964926280951133,0.13986133801461018 0.4967533231394653,0.13814169948826893 0.497789413011329,0.13653432715213248 C 0.4988145121242681,0.13493475764422785 0.4990677092856814,0.1332211353578496 0.498549764837606,0.13138831434644496 C 0.49804427144010105,0.12963289201497322 0.49828139511723185,0.12798428215354532 0.49926184794293593,0.12643753404559976 C 0.5003002974406655,0.12478858387640539 0.50054610153916,0.12302891113734883 0.49999999837935244,0.12115323159401178 C 0.49999999891956826,0.11948656103541105 0.49999999945978413,0.11781989047681034 0.5,0.1161532199182096 C 0.4870474703028122,0.17873624041361102 0.47409494060562435,0.24131926090901248 0.46114241090843655,0.30390228140441394 C 0.46711198474642357,0.3874091006599331 0.47308155858441053,0.47091591991545223 0.47905113242239755,0.5544227391709714 C 0.47719857765118107,0.5808974157492874 0.4753460228799646,0.6073720923276035 0.47349346810874804,0.6338467689059195 C 0.47516013473816177,0.6338467689059195 0.47682680136757555,0.6338467689059195 0.47849346799698933,0.6338467689059195 "  /><path  id="YB" d="M 0.526506531891252,0.6338467689059195 C 0.5246539771200354,0.6073720923276035 0.5228014223488189,0.5808974157492874 0.5209488675776024,0.5544227391709714 C 0.5269184414155894,0.47091591991545223 0.5328880152535764,0.3874091006599331 0.5388575890915634,0.30390228140441394 C 0.5259050593943757,0.24131926090901248 0.5129525296971877,0.17873624041361102 0.5,0.1161532199182096 C 0.5,0.28871773624744623 0.5,0.46128225257668287 0.5,0.6338467689059195 C -2.4911644893695826,0.6338467689059195 -0.9823289787391654,0.6338467689059195 0.526506531891252,0.6338467689059195 "  /><path d="M 0.5215065320030107,0.6338467689059195 C 0.5215065320030107,0.6338467689059195 0.5215065320030107,0.6338467689059195 0.5215065320030107,0.6338467689059195 C 0.5197090332936858,0.6305049654431748 0.5194661366032611,0.6270537490538779 0.5207771125216464,0.6234827558584136 C 0.5214248855227241,0.6217248753854901 0.5213051212879012,0.620020942767539 0.5204174601694556,0.6183658411557359 C 0.5195287257823024,0.616712950250791 0.5194088585939023,0.6150060651153874 0.5200574986473674,0.6132400600343961 C 0.5207177396994324,0.6114490196435268 0.5205959230597074,0.6097128516143672 0.5196916829171718,0.6080263422963038 C 0.5188000578281448,0.6063675881226437 0.5186799831506739,0.6046547462549768 0.5193310983047892,0.6028826730903202 C 0.5199838038520024,0.601112738417732 0.5198636262234173,0.5993969378135274 0.5189702045299056,0.597730118789743 C 0.5180894794629396,0.5960911688435397 0.5179710501337081,0.5943988723512054 0.5186145609031634,0.5926481474067853 C 0.5192697099114062,0.5908722426347222 0.519149327966675,0.589150563965345 0.5182530535662873,0.5874779412590708 C 0.5173557021779527,0.5858075701643649 0.517235217283885,0.5840829265933968 0.5178912370722488,0.5822988315030893 C 0.5185387256919431,0.5805443392481192 0.5184199938265273,0.5788433298168445 0.5175346849284477,0.5771906951386662 C 0.5166344759478076,0.5755145257927439 0.516513786742314,0.5737839919383826 0.5171722548865905,0.5719938968441948 C 0.5178221566056573,0.5702335103017243 0.5177032235730387,0.5685266971988088 0.5168150986370834,0.5668683320366302 C 0.5159259327160468,0.5652122550267044 0.515806899881201,0.5635025596212642 0.5164576426811922,0.5617341116660401 C 0.5171099423553398,0.5599678686302842 0.516990809718509,0.5582552889458929 0.516099887019644,0.5565912297972099 C 0.5153108992589658,0.5547665041828176 0.5153383001920194,0.5529541213313933 0.5161821721028287,0.5511486387219332 C 0.5170562757163817,0.5495272871389093 0.5171757905317895,0.547852100052004 0.5165410754477764,0.5461180469341965 C 0.5158743783939965,0.5443028917215375 0.5159998582728353,0.5425442589783412 0.5169178918958897,0.5408368675932602 C 0.5177917040476916,0.5392161093658091 0.5179111987580651,0.5375415246907986 0.5172767348653595,0.5358080848502293 C 0.5166420385542814,0.5340799798076044 0.5167615237428139,0.5324056969234212 0.517635549240713,0.5307802083859473 C 0.5185527402581822,0.5290790507624294 0.5186781896506241,0.5273213844020603 0.5180122741380858,0.525501931095505 C 0.5173778450443446,0.5237744699129481 0.5174973112706842,0.5221008223473043 0.5183710315699177,0.5204759624946801 C 0.5192878972265266,0.5187754750304694 0.5194133270935044,0.5170184876246616 0.518747697832264,0.5151997241067984 C 0.5181135468544467,0.5134729290121074 0.5182329948551972,0.5117999393246045 0.519106400532598,0.5101757311159809 C 0.5200229309511828,0.5084759378109127 0.5201483420687949,0.5067196530099081 0.5194830104905437,0.5049016026524055 C 0.5188491485137586,0.5031754958366805 0.5189685790280615,0.5015031865513653 0.519841660679023,0.4998796529113743 C 0.5207578459824198,0.4981805777652841 0.5208832391267646,0.4964250192193239 0.5202182166631937,0.4946077053938504 C 0.5195846545725495,0.4928823090481918 0.5197040683395457,0.4912107026891109 0.520576816559462,0.48958786654238456 C 0.5214926468705068,0.48788953355510756 0.5216180228176827,0.48613472491443327 0.5209533209004833,0.4843181709926571 C 0.5203200695810885,0.48259350730816514 0.5204394673399194,0.4809226263993654 0.5213118727241836,0.47930051067053603 C 0.5222273381657129,0.4776029438419073 0.5223526976918182,0.4758489087567601 0.5216883277526814,0.47403313811034953 C 0.5210237558304589,0.4722230437325477 0.5211491072504707,0.4704694139598708 0.5220647584385562,0.46876698270471284 C 0.5229362690459491,0.46715101410581034 0.5230556440012799,0.46548127300306286 0.5224232417832777,0.46375274522354554 C 0.5217590191937834,0.46194346709300627 0.5218843553622007,0.4601906466975041 0.5227996266685688,0.4584890203799638 C 0.5236707708565989,0.4568738274416849 0.5237901316606312,0.4552048683740199 0.5231580675168994,0.4534771313524675 C 0.5224942056675629,0.451668692710106 0.5226195273646201,0.44991670528415084 0.5235344089446536,0.4482159079189046 C 0.5244051773064944,0.4466015134982432 0.5245245246983695,0.4449333589897081 0.5238928095162366,0.4432064349848603 C 0.5232293198364182,0.44139885913132343 0.5233546278382137,0.43964772832515603 0.5242691098170797,0.4379477839830592 C 0.5251394929459046,0.43633421093700947 0.5252588276647638,0.4346668835116519 0.5246274723315583,0.4329407947822487 C 0.5239643662506179,0.43113410501818317 0.5240896613332504,0.42938385448204397 0.5250037338361158,0.42768478723395176 C 0.5259172165843775,0.42599143303731873 0.5260425053557742,0.42424164245565843 0.5253799763880138,0.42243016093031843 C 0.5247488275921457,0.4207103806205233 0.5248681445509016,0.4190443466899892 0.5257382855688493,0.417427056098297 C 0.5266513439048122,0.41573461271678525 0.5267766209253235,0.413985738243438 0.5261144928328036,0.41217518087064337 C 0.5254837312694371,0.41045628910096804 0.5256030374120442,0.40879113883841445 0.5264727695327119,0.40717472969618695 C 0.5273853936181088,0.4054832210575266 0.5275106596691672,0.40373528626822575 0.5268489438553672,0.4019256763425103 C 0.526187067450627,0.40012180817218146 0.5263123281897475,0.3983743637597282 0.5272251022262566,0.3966780955919603 C 0.528093839923524,0.3950680591634092 0.5282131311139728,0.39340428796294286 0.5275833340247897,0.39168178574503987 C 0.5269218872468394,0.3898788975214869 0.5270471381841195,0.388132428640566 0.5279594629607236,0.3864371345185734 C 0.5288277681614075,0.38482803430709417 0.5289470503925746,0.38316520335941234 0.5283176678545072,0.38144364825355204 C 0.5276566621009994,0.37964176319101 0.5277819040185372,0.37789629340815284 0.5286937697041281,0.3762019973215327 C 0.5296050203858087,0.3745134616749778 0.5297302579907059,0.3727685126913689 0.5290698586028768,0.37096191035119974 C 0.5284407654632838,0.369246818767034 0.5285600355502382,0.3675854524487047 0.5294280270275533,0.36597282237246553 C 0.5303388036606073,0.3642853181433334 0.5304640334127093,0.36254140411444263 0.5298040923443346,0.3607358433742188 C 0.5291440143475199,0.35893606032904224 0.529269240388499,0.3571926854119474 0.530180146516603,0.3555004833302935 C 0.5310470864320109,0.3538943537046568 0.5311663460649723,0.3522345035221899 0.5305382835479069,0.3505159483120483 C 0.5298786811796212,0.3487172389996718 0.5300039005410181,0.346974934806556 0.5309143176613693,0.345283803655406 C 0.5318241045507839,0.3435984606051845 0.5319493208025755,0.34185671383642546 0.5312903424366782,0.34005333294575935 C 0.5306626191686507,0.33834133379648074 0.5307818700378382,0.33668305125638653 0.5316484531503439,0.3350735055622064 C 0.5325577361130032,0.33338926652486456 0.5326829468584252,0.3316486262493319 0.5320244613900085,0.32984635765499865 C 0.5313658567510724,0.3280498930079753 0.5314910649884068,0.3263098284693737 0.5324004620978787,0.3246209386875014 C 0.5332659506843638,0.3230179887191895 0.5333851944799972,0.3213613253279789 0.5327585515696408,0.3196459736128457 C 0.5321004571302013,0.31785065318015465 0.5322256610343788,0.3161117309040128 0.5331345392650283,0.3144239848629012 C 0.5340427720163725,0.31274205393401266 0.5341679740139802,0.3110037257073902 0.5335105212349811,0.30920378004542437 C 0.5328028627694661,0.30738297227935873 0.5328964072945872,0.3056043016879024 0.5337914357212137,0.30386242698676447 C 0.5341968716160619,0.30203597060430337 0.533849968067865,0.3003657770855859 0.5327496833376515,0.29884683089909825 C 0.5316501571790122,0.2973320699058739 0.5313033291636338,0.295661080072699 0.5317081577793672,0.29382884347675575 C 0.5321145755332142,0.29200113496947944 0.5317680193429393,0.2903295328584101 0.5306674485126749,0.2888090173820813 C 0.5295681933030205,0.28729288216125304 0.5292221051382426,0.28562085136651943 0.5296281447279372,0.28378790394909226 C 0.5300511202532965,0.28189233740798575 0.529692918169121,0.28015812316138045 0.5285524628073393,0.27858005342580217 C 0.5274546302837395,0.27706290994957494 0.5271101023869789,0.27539057372289244 0.5275178445120824,0.27355802277976515 C 0.5279276270496662,0.2717311020370981 0.5275841630659706,0.2700588948047542 0.526486421150913,0.2685363795041094 C 0.5253911115023251,0.2670186306653181 0.525048907612381,0.26534673592601704 0.5254587818550156,0.2635156746459876 C 0.5258709165551192,0.261690786081821 0.5255301689593204,0.2600193874297929 0.5244355158147529,0.25849645953941724 C 0.5233034536300896,0.2569222649672318 0.5229518337650445,0.255189683064197 0.5233796003177154,0.253293510948708 C 0.5237945974544214,0.25147181038121497 0.5234574232654717,0.24980199008309242 0.5223670652288135,0.2482790356435946 C 0.5212802465690465,0.2467612249802589 0.5209451245628176,0.24509245845420857 0.5213606928507057,0.24326772481913778 C 0.5217789585342829,0.24145025247023597 0.5214460848904542,0.2397827232081657 0.5203610723115498,0.2382601295020808 C 0.5192401724881275,0.23668667545414562 0.5188975548187469,0.234958889118562 0.5193321904347779,0.23307158201464304 C 0.5197542519370502,0.2312595342507474 0.5194265651719097,0.22959509314177912 0.5183481461076981,0.22807326043050544 C 0.5172743638645065,0.22655693973604382 0.5169495213508744,0.22489429358106242 0.5173726430763292,0.22308032909851125 C 0.5178147191658068,0.22120789850088163 0.5174810594564341,0.2194857650736714 0.5163706619800148,0.21790875731167572 C 0.5153051831074147,0.21639377739193577 0.5149867412771569,0.21473535520246267 0.515414380219793,0.21292851056062406 C 0.5158613650746657,0.2110640356526167 0.5155347652786643,0.20934667777378513 0.5144336000642602,0.2077712797597258 C 0.5133385658347356,0.20620200840480665 0.5130158844741652,0.2044873850817641 0.5134645869819424,0.2026222608379679 C 0.5139008616919903,0.20083325851189793 0.513593620451013,0.199182653144939 0.5125419406245317,0.19766548802809764 C 0.511457928688891,0.19609843050806547 0.5111435813744625,0.1943897750948494 0.511597954707483,0.19253439075723938 C 0.5120563339013601,0.19068953620620988 0.5117465536609057,0.1889842223077802 0.5106676837271166,0.18741332806518995 C 0.5096342838065644,0.18590479095088475 0.5093400972353177,0.18426373735948706 0.5097842405816049,0.18248523926564453 C 0.5102490026349268,0.18065187287457607 0.5099488305517781,0.17895371913720493 0.5088828229261085,0.17738567855847875 C 0.5078247110111156,0.17582433652855303 0.5075297546406761,0.17413013126513233 0.5079970680713387,0.1722979751302906 C 0.5084688309179896,0.17047750798156677 0.5081793090993378,0.16878745606997136 0.5071276331916976,0.16722274422994557 C 0.506047331249633,0.1656093174413106 0.5057534319667654,0.1638635035847664 0.5062450527740401,0.1619800600436241 C 0.5067244614105801,0.160173968471956 0.5064466788963244,0.15849300416232115 0.5054108710602988,0.15693211923890513 C 0.5043841471656241,0.1553783100292522 0.5041124634921399,0.15370212078321258 0.5045950041834739,0.15189851796431733 C 0.5050999204244129,0.15004396769979644 0.5048251966403934,0.14831316689085905 0.5037700078456995,0.1467009180044624 C 0.5027610390191215,0.14515156466788517 0.5025024469113907,0.14348572839677026 0.5029934549796389,0.14169840674426282 C 0.5035073719048867,0.13986133801461018 0.5032466768605347,0.13814169948826893 0.502210586988671,0.13653432715213248 C 0.5011854878757319,0.13493475764422785 0.5009322907143186,0.1332211353578496 0.501450235162394,0.13138831434644496 C 0.501955728559899,0.12963289201497322 0.5017186048827682,0.12798428215354532 0.5007381520570641,0.12643753404559976 C 0.4996997025593345,0.12478858387640539 0.49945389846084,0.12302891113734883 0.5000000016206476,0.12115323159401178 C 0.5000000010804317,0.11948656103541105 0.5000000005402159,0.11781989047681034 0.5,0.1161532199182096 C 0.5129525296971877,0.17873624041361102 0.5259050593943757,0.24131926090901248 0.5388575890915634,0.30390228140441394 C 0.5328880152535764,0.3874091006599331 0.5269184414155894,0.47091591991545223 0.5209488675776024,0.5544227391709714 C 0.5228014223488189,0.5808974157492874 0.5246539771200354,0.6073720923276035 0.526506531891252,0.6338467689059195 C 0.5248398652618382,0.6338467689059195 0.5231731986324244,0.6338467689059195 0.5215065320030107,0.6338467689059195 "  /><path d="M 0.4474999933121726,0.6338467689059195 C 0.4824999977707242,0.6338467689059195 0.5175000022292758,0.6338467689059195 0.5525000066878274,0.6338467689059195 C 0.5532759642494599,0.6338467689059195 0.5535000067353248,0.6340708113917845 0.5535000067353248,0.634846768953417 C 0.5535000067353248,0.6375134355139128 0.5535000067353248,0.6401801020744088 0.5535000067353248,0.6428467686349046 C 0.5535000067353248,0.6436227261965372 0.5532759642494599,0.6438467686824021 0.5525000066878274,0.6438467686824021 C 0.5175000022292758,0.6438467686824021 0.4824999977707242,0.6438467686824021 0.4474999933121726,0.6438467686824021 C 0.44672403575054015,0.6438467686824021 0.44649999326467515,0.6436227261965372 0.44649999326467515,0.6428467686349046 C 0.44649999326467515,0.6401801020744088 0.44649999326467515,0.6375134355139128 0.44649999326467515,0.634846768953417 C 0.44649999326467515,0.6340708113917845 0.44672403575054015,0.6338467689059195 0.4474999933121726,0.6338467689059195 "  /><g id="hilt" ><path d="M 0.48761676428578576,0.6438467686824021 C 0.48514011655246425,0.7061849128741021 0.48514011655246425,0.7685230570658022 0.48761676428578576,0.8327502284236288 C 0.4958722547619286,0.8327502284236288 0.5041277452380714,0.8327502284236288 0.5123832357142142,0.8327502284236288 C 0.5148598834475357,0.7685230570658022 0.5148598834475357,0.7061849128741021 0.5123832357142142,0.6438467686824021 "  /><g id="wraps" ><path d="M 0.5123832357142142,0.6438467686824021 C 0.5043625146990265,0.6472340245574133 0.49607178279939734,0.6481340608254733 0.48751104001532675,0.646546877486582 C 0.4874336669774906,0.6485523064408923 0.48735885703980364,0.6505577636209058 0.48728661020226616,0.6525633119178695 C 0.4959992857774972,0.6541960305209293 0.5044419382002522,0.653295953359421 0.512614567470531,0.6498630804333446 C 0.5125400199852415,0.6478576012555322 0.5124629093998025,0.6458521849689671 0.5123832357142142,0.6438467686824021 "  /><path d="M 0.5128305206259516,0.6558797695317716 C 0.5045162524366011,0.6593552402400943 0.4959319318913178,0.660255414746457 0.4870775589901015,0.6585802930508596 C 0.48701043835286273,0.6605860864729716 0.4869458808157733,0.6625920339032815 0.4868838863788333,0.6645981982330367 C 0.49586972114085914,0.6663125908495405 0.5045854574080733,0.6654122625469177 0.5130310951804757,0.661897213325168 C 0.5129668000957837,0.6598912310173761 0.5128999419109423,0.6578854373833265 0.5128305206259516,0.6558797695317717 "  /><path d="M 0.5132162911341038,0.6679157891610183 C 0.5046495531146689,0.6714673976273757 0.49581265352612125,0.6723679361776649 0.48670559236846134,0.6706174048118858 C 0.48664872413182003,0.6726240658317789 0.48659441899532807,0.674631006642365 0.48654267695898556,0.6766382901348911 C 0.4957607290471042,0.6784218280783147 0.5047085395563876,0.6775210228289534 0.5133861084868356,0.6739358743868072 C 0.5133320658027412,0.6719288858190563 0.5132754600184972,0.6699222117075425 0.5132162911341038,0.6679157891610185 "  /><path d="M 0.5135405472386712,0.6799578463500193 C 0.5047624167332296,0.6835735154991351 0.49571394770380794,0.6844746438989746 0.4863951401504061,0.6826612315495377 C 0.48634852431436226,0.6846692632971917 0.4863044715784678,0.6866777006180332 0.4862629819427229,0.6886866064033099 C 0.49567230949623253,0.6905267609871292 0.504811184645195,0.6896252529854057 0.5136796073896105,0.6859820823981393 C 0.5136358171061135,0.6839735844404496 0.5135894637224669,0.6819655267214921 0.5135405472386712,0.6799578463500193 "  /><path d="M 0.5138032889396535,0.6920089598786516 C 0.5048548432922837,0.6956766126352494 0.49563581442437776,0.696578556690263 0.48614620233593575,0.6947147920436925 C 0.48610983890048953,0.6967246976490867 0.48607603856519255,0.6987351346101633 0.48604480133004513,0.7007461658181701 C 0.49560446248824386,0.7026304083558607 0.5048933926744956,0.701727971796151 0.5139115918888004,0.6980388561390412 C 0.5138780540059007,0.6960283456614337 0.5138419530228518,0.6940184012050529 0.5138032889396535,0.6920089598786517 "  /><path d="M 0.514004516237051,0.7040721485267925 C 0.5049268327918309,0.7077797078155955 0.4955782536878307,0.7086826933314071 0.48595877892505046,0.7067811050742273 C 0.4859326678902015,0.7087933876673412 0.4859091199555021,0.7108063273986327 0.4858881351209521,0.7128199871593488 C 0.49555718802313853,0.7147357889643867 0.5049551636442895,0.7138321980410671 0.5140820619844053,0.7101092143893901 C 0.5140587765021032,0.7080961882618849 0.5140329279196518,0.7060838539381015 0.514004516237051,0.7040721485267925 "  /><path d="M 0.5141442291308633,0.7161504310743189 C 0.5049783852318712,0.7198858198200507 0.4955412654941669,0.7207900726022841 0.4858328699177501,0.7188631894210191 C 0.48581701128349875,0.7208783521318325 0.48580371574939685,0.722894297763318 0.4857929833154443,0.7249110892067232 C 0.4955304861009161,0.7268459215925843 0.5049964975545764,0.725940950500031 0.5141910176764253,0.7221961759290633 C 0.5141779845947207,0.7201801310216809 0.5141623884128668,0.7181649037005152 0.5141442291308634,0.7161504310743189 "  /><path d="M 0.5142224276210909,0.728246826301108 C 0.5050095006124049,0.7319979674284924 0.4955248498433861,0.7329037132827715 0.48576847531403466,0.7309640638639453 C 0.4857628690803808,0.7329826098224372 0.4857598259468764,0.7350020644840964 0.4857593459135213,0.7370224907401702 C 0.495524356721577,0.7389638250203305 0.5050173944053566,0.7380572479529196 0.5142384589648603,0.7343027595379377 C 0.5142356782837532,0.7322831927206986 0.5142303345024968,0.7302645692721712 0.5142224276210909,0.7282468263011079 "  /><path d="M 0.5142391117077334,0.740364352987037 C 0.5050201789334317,0.7441191694207973 0.4955290067354886,0.7450266341527458 0.48576559511390427,0.7430867471828828 C 0.485770241280848,0.7451091795190331 0.4857774505479411,0.7471326463408454 0.4857872229151835,0.7491572105395673 C 0.49553879988512106,0.7510925180275024 0.5050178541966299,0.7501841091796101 0.5142243858497102,0.7464319839958905 C 0.5142318575692006,0.7444083921388153 0.5142367661885416,0.7423858694329466 0.5142391117077334,0.740364352987037 "  /><path d="M 0.5141942813907909,0.7525060299119829 C 0.5050104201949515,0.7562524445768427 0.49555373617047405,0.7571618539920847 0.4858242293173588,0.7552342581577087 C 0.48583912788490013,0.7572610800014968 0.4858565895525906,0.7592890621134419 0.4858766143204306,0.7613182673847914 C 0.4955738155915481,0.7632350193939773 0.5049978769283964,0.7623245529599798 0.5141487983309754,0.7585868680827988 C 0.5141665224510632,0.756558748055908 0.5141816834710018,0.7545318229627185 0.5141942813907909,0.7525060299119829 "  /><path d="M 0.5140879366702635,0.764674875855823 C 0.5049802243969645,0.7684008116765058 0.49559903814834294,0.7693123915806648 0.4859443779243984,0.7674096155683002 C 0.4859695288925371,0.7694413300497058 0.485997242960825,0.7714743305817631 0.48602752012926254,0.7735086800557197 C 0.4956294038408584,0.775394347899632 0.5049574626006561,0.7744815980739054 0.5140116964086554,0.7707704305785399 C 0.5140396729293408,0.7687372792518538 0.5140650863498768,0.7667054486413639 0.5140879366702635,0.7646748758558229 "  /><path d="M 0.513920077546151,0.7768739095984343 C 0.5049295915394707,0.7805672894996635 0.49566491266909474,0.7814812656983635 0.4861260409350229,0.7796158381945345 C 0.48616144430375907,0.7816529484435369 0.4861994107726445,0.783691470525686 0.4862399403416795,0.7857314673322292 C 0.4957055646330518,0.7875735223243441 0.5048966112134089,0.7866582633012645 0.5138130800827505,0.7829856902629907 C 0.5138513090040333,0.78094700450653 0.5138869748251669,0.7789097652487602 0.513920077546151,0.7768739095984343 "  /><path d="M 0.5136907040184537,0.7891061499196939 C 0.5048585216224701,0.7927548968261932 0.49575135973272977,0.7936714951250581 0.4863692183492323,0.7918559448162886 C 0.4864148741185661,0.7938989539628674 0.486463092988049,0.7959435007250878 0.4865138749576815,0.7979896479941971 C 0.49580229796812847,0.7997755614479902 0.504815322766655,0.798857567421934 0.5135529493532607,0.7952356659160285 C 0.513601430675141,0.7931909425998133 0.513647348896872,0.7911477915647842 0.5136907040184537,0.7891061499196937 "  /><path d="M 0.5133998160871713,0.801374615599479 C 0.5047670146459629,0.8049666524359717 0.4958583793392479,0.8058860986406252 0.48667391016702677,0.8041329542134397 C 0.48672981833695805,0.8061823653875744 0.48678828960703846,0.8082334399598455 0.48684932397726843,0.8102862408215006 C 0.49591960384608824,0.8120034840504478 0.504713597260394,0.8110825292157909 0.5132313042201858,0.8075233763175301 C 0.5132900379426637,0.8054721123115813 0.5133462085649921,0.8034225463693133 0.5133998160871713,0.8013746155994789 "  /><path d="M 0.513047413752304,0.8136823254176666 C 0.5046550706099486,0.8172055751088764 0.4959859714886493,0.8181280950249424 0.48704011638840616,0.8164498851658648 C 0.4871062769589348,0.818506201497535 0.48717500062961283,0.8205643070098365 0.4872462874004403,0.8226242645940166 C 0.49605748226693114,0.8242603089115937 0.5045914346946264,0.8233361674627124 0.512848144683526,0.8198518402473729 C 0.5129171308066014,0.8177935324217108 0.5129835538295273,0.8157370484422245 0.513047413752304,0.8136823254176665 "  /><path d="M 0.5126334970138517,0.8260322981541339 C 0.5045226895144275,0.8294746836247843 0.4961341361809338,0.8304005030578867 0.4874678370133706,0.8288097564534411 C 0.4874678370133706,0.8288097564534411 0.4874678370133706,0.8288097564534411 0.4874678370133706,0.8288097564534411 C 0.4959316149662212,0.8350535151269152 0.5041938504520529,0.834878131147517 0.5124034707432812,0.8322240764854341 C 0.5124827092669542,0.8301582217100792 0.5125593846904776,0.8280943165633949 0.5126334970138517,0.8260322981541338 "  /></g><path d="M 0.48566347032141644,0.8327502284236288 C 0.49522115677380546,0.8327502284236288 0.5047788432261945,0.8327502284236288 0.5143365296785836,0.8327502284236288 C 0.5166644022731476,0.8327502284236288 0.5173365297046606,0.8334223558551418 0.5173365297046606,0.8357502284497058 C 0.5173365297046606,0.8370835616911486 0.5173365297046606,0.8384168949325915 0.5173365297046606,0.8397502281740343 C 0.5173365297046606,0.8420781007685983 0.5166644022731476,0.8427502282001114 0.5143365296785836,0.8427502282001114 C 0.5047788432261945,0.8427502282001114 0.49522115677380546,0.8427502282001114 0.48566347032141644,0.8427502282001114 C 0.4833355977268524,0.8427502282001114 0.4826634702953394,0.8420781007685983 0.4826634702953394,0.8397502281740343 C 0.4826634702953394,0.8384168949325915 0.4826634702953394,0.8370835616911486 0.4826634702953394,0.8357502284497058 C 0.4826634702953394,0.8334223558551418 0.4833355977268524,0.8327502284236288 0.48566347032141644,0.8327502284236288 "  /></g><g id="top" ></g></defs><g id="uglow" ><use xlink:href="#XB"  fill="#ffffff"  fill-opacity="0.5"  filter="url(#WB)" /><use xlink:href="#YB"  fill="#ffffff"  fill-opacity="0.5"  filter="url(#WB)" /></g><use xlink:href="#XB"  fill="url(#BB)" /><path d="M 0.47849346799698933,0.6338467689059195 C 0.47849346799698933,0.6338467689059195 0.47849346799698933,0.6338467689059195 0.47849346799698933,0.6338467689059195 C 0.4802909667063142,0.6305049654431748 0.4805338633967388,0.6270537490538779 0.4792228874783536,0.6234827558584136 C 0.4785751144772758,0.6217248753854901 0.4786948787120988,0.620020942767539 0.4795825398305445,0.6183658411557359 C 0.48047127421769764,0.616712950250791 0.48059114140609777,0.6150060651153874 0.4799425013526326,0.6132400600343961 C 0.47928226030056764,0.6114490196435268 0.47940407694029263,0.6097128516143672 0.4803083170828282,0.6080263422963038 C 0.48119994217185524,0.6063675881226437 0.4813200168493262,0.6046547462549768 0.48066890169521087,0.6028826730903202 C 0.4800161961479977,0.601112738417732 0.4801363737765827,0.5993969378135274 0.48102979547009445,0.597730118789743 C 0.4819105205370604,0.5960911688435397 0.48202894986629186,0.5943988723512054 0.4813854390968367,0.5926481474067853 C 0.4807302900885938,0.5908722426347222 0.48085067203332493,0.589150563965345 0.4817469464337127,0.5874779412590708 C 0.4826442978220474,0.5858075701643649 0.48276478271611495,0.5840829265933968 0.4821087629277512,0.5822988315030893 C 0.4814612743080568,0.5805443392481192 0.48158000617347274,0.5788433298168445 0.4824653150715524,0.5771906951386662 C 0.4833655240521923,0.5755145257927439 0.4834862132576861,0.5737839919383826 0.4828277451134096,0.5719938968441948 C 0.4821778433943427,0.5702335103017243 0.48229677642696134,0.5685266971988088 0.4831849013629166,0.5668683320366302 C 0.48407406728395325,0.5652122550267044 0.484193100118799,0.5635025596212642 0.4835423573188078,0.5617341116660401 C 0.4828900576446602,0.5599678686302842 0.4830091902814911,0.5582552889458929 0.483900112980356,0.5565912297972099 C 0.4846891007410342,0.5547665041828176 0.4846616998079806,0.5529541213313933 0.4838178278971713,0.5511486387219332 C 0.4829437242836183,0.5495272871389093 0.4828242094682105,0.547852100052004 0.48345892455222356,0.5461180469341965 C 0.4841256216060035,0.5443028917215375 0.4840001417271646,0.5425442589783412 0.4830821081041103,0.5408368675932602 C 0.48220829595230835,0.5392161093658091 0.4820888012419349,0.5375415246907986 0.4827232651346404,0.5358080848502293 C 0.48335796144571863,0.5340799798076044 0.4832384762571861,0.5324056969234212 0.482364450759287,0.5307802083859473 C 0.48144725974181785,0.5290790507624294 0.48132181034937593,0.5273213844020603 0.4819877258619142,0.525501931095505 C 0.4826221549556554,0.5237744699129481 0.4825026887293158,0.5221008223473043 0.48162896843008235,0.5204759624946801 C 0.4807121027734734,0.5187754750304694 0.48058667290649565,0.5170184876246616 0.481252302167736,0.5151997241067984 C 0.48188645314555334,0.5134729290121074 0.48176700514480275,0.5117999393246045 0.48089359946740196,0.5101757311159809 C 0.47997706904881726,0.5084759378109127 0.47985165793120516,0.5067196530099081 0.48051698950945637,0.5049016026524055 C 0.48115085148624137,0.5031754958366805 0.4810314209719385,0.5015031865513653 0.4801583393209769,0.4998796529113743 C 0.47924215401758025,0.4981805777652841 0.4791167608732354,0.4964250192193239 0.4797817833368063,0.4946077053938504 C 0.4804153454274505,0.4928823090481918 0.48029593166045426,0.4912107026891109 0.4794231834405381,0.48958786654238456 C 0.4785073531294933,0.48788953355510756 0.47838197718231734,0.48613472491443327 0.4790466790995167,0.4843181709926571 C 0.47967993041891155,0.48259350730816514 0.4795605326600806,0.4809226263993654 0.47868812727581644,0.47930051067053603 C 0.4777726618342871,0.4776029438419073 0.47764730230818175,0.4758489087567601 0.4783116722473186,0.47403313811034953 C 0.47897624416954104,0.4722230437325477 0.4788508927495293,0.4704694139598708 0.47793524156144385,0.46876698270471284 C 0.47706373095405086,0.46715101410581034 0.47694435599872015,0.46548127300306286 0.47757675821672235,0.46375274522354554 C 0.4782409808062166,0.46194346709300627 0.4781156446377993,0.4601906466975041 0.4772003733314311,0.4584890203799638 C 0.47632922914340114,0.4568738274416849 0.47620986833936885,0.4552048683740199 0.4768419324831006,0.4534771313524675 C 0.4775057943324371,0.451668692710106 0.47738047263537986,0.44991670528415084 0.4764655910553463,0.4482159079189046 C 0.47559482269350567,0.4466015134982432 0.4754754753016305,0.4449333589897081 0.4761071904837634,0.4432064349848603 C 0.4767706801635819,0.44139885913132343 0.47664537216178626,0.43964772832515603 0.4757308901829203,0.4379477839830592 C 0.47486050705409544,0.43633421093700947 0.47474117233523616,0.4346668835116519 0.4753725276684417,0.4329407947822487 C 0.47603563374938207,0.43113410501818317 0.47591033866674964,0.42938385448204397 0.4749962661638842,0.42768478723395176 C 0.4740827834156225,0.42599143303731873 0.47395749464422576,0.42424164245565843 0.4746200236119862,0.42243016093031843 C 0.47525117240785436,0.4207103806205233 0.4751318554490985,0.4190443466899892 0.4742617144311508,0.417427056098297 C 0.47334865609518784,0.41573461271678525 0.4732233790746765,0.413985738243438 0.4738855071671964,0.41217518087064337 C 0.47451626873056285,0.41045628910096804 0.47439696258795583,0.40879113883841445 0.47352723046728806,0.40717472969618695 C 0.47261460638189123,0.4054832210575266 0.47248934033083273,0.40373528626822575 0.4731510561446329,0.4019256763425103 C 0.4738129325493729,0.40012180817218146 0.47368767181025245,0.3983743637597282 0.47277489777374343,0.3966780955919603 C 0.47190616007647607,0.3950680591634092 0.47178686888602717,0.39340428796294286 0.4724166659752102,0.39168178574503987 C 0.4730781127531606,0.3898788975214869 0.4729528618158805,0.388132428640566 0.47204053703927634,0.3864371345185734 C 0.47117223183859247,0.38482803430709417 0.47105294960742533,0.38316520335941234 0.4716823321454929,0.38144364825355204 C 0.4723433378990006,0.37964176319101 0.4722180959814628,0.37789629340815284 0.47130623029587193,0.3762019973215327 C 0.4703949796141913,0.3745134616749778 0.470269742009294,0.3727685126913689 0.4709301413971232,0.37096191035119974 C 0.4715592345367162,0.369246818767034 0.47143996444976183,0.3675854524487047 0.47057197297244663,0.36597282237246553 C 0.46966119633939274,0.3642853181433334 0.4695359665872907,0.36254140411444263 0.4701959076556654,0.3607358433742188 C 0.47085598565248016,0.35893606032904224 0.470730759611501,0.3571926854119474 0.4698198534833971,0.3555004833302935 C 0.468952913567989,0.3538943537046568 0.4688336539350278,0.3522345035221899 0.4694617164520931,0.3505159483120483 C 0.4701213188203787,0.3487172389996718 0.4699960994589819,0.346974934806556 0.4690856823386306,0.345283803655406 C 0.46817589544921606,0.3435984606051845 0.4680506791974245,0.34185671383642546 0.4687096575633219,0.34005333294575935 C 0.46933738083134935,0.33834133379648074 0.4692181299621618,0.33668305125638653 0.4683515468496561,0.3350735055622064 C 0.4674422638869968,0.33338926652486456 0.4673170531415748,0.3316486262493319 0.4679755386099915,0.32984635765499865 C 0.4686341432489276,0.3280498930079753 0.4685089350115932,0.3263098284693737 0.4675995379021213,0.3246209386875014 C 0.4667340493156363,0.3230179887191895 0.4666148055200028,0.3213613253279789 0.4672414484303592,0.3196459736128457 C 0.4678995428697988,0.31785065318015465 0.46777433896562115,0.3161117309040128 0.4668654607349717,0.3144239848629012 C 0.46595722798362754,0.31274205393401266 0.46583202598601975,0.3110037257073902 0.46648947876501895,0.30920378004542437 C 0.46719713723053385,0.30738297227935873 0.46710359270541285,0.3056043016879024 0.4662085642787864,0.30386242698676447 C 0.4658031283839381,0.30203597060430337 0.466150031932135,0.3003657770855859 0.46725031666234856,0.29884683089909825 C 0.46834984282098785,0.2973320699058739 0.46869667083636624,0.295661080072699 0.46829184222063275,0.29382884347675575 C 0.4678854244667859,0.29200113496947944 0.4682319806570607,0.2903295328584101 0.4693325514873251,0.2888090173820813 C 0.47043180669697954,0.28729288216125304 0.47077789486175736,0.28562085136651943 0.4703718552720628,0.28378790394909226 C 0.4699488797467035,0.28189233740798575 0.47030708183087894,0.28015812316138045 0.4714475371926607,0.27858005342580217 C 0.47254536971626054,0.27706290994957494 0.4728898976130212,0.27539057372289244 0.4724821554879176,0.27355802277976515 C 0.4720723729503337,0.2717311020370981 0.4724158369340295,0.2700588948047542 0.47351357884908696,0.2685363795041094 C 0.47460888849767496,0.2670186306653181 0.47495109238761896,0.26534673592601704 0.4745412181449844,0.2635156746459876 C 0.4741290834448808,0.261690786081821 0.4744698310406797,0.2600193874297929 0.47556448418524705,0.25849645953941724 C 0.47669654636991043,0.2569222649672318 0.47704816623495544,0.255189683064197 0.4766203996822846,0.253293510948708 C 0.47620540254557864,0.25147181038121497 0.47654257673452827,0.24980199008309242 0.4776329347711865,0.2482790356435946 C 0.4787197534309535,0.2467612249802589 0.47905487543718234,0.24509245845420857 0.4786393071492943,0.24326772481913778 C 0.47822104146571703,0.24145025247023597 0.4785539151095458,0.2397827232081657 0.4796389276884502,0.2382601295020808 C 0.4807598275118725,0.23668667545414562 0.48110244518125306,0.234958889118562 0.48066780956522215,0.23307158201464304 C 0.4802457480629498,0.2312595342507474 0.4805734348280904,0.22959509314177912 0.4816518538923019,0.22807326043050544 C 0.48272563613549346,0.22655693973604382 0.4830504786491257,0.22489429358106242 0.4826273569236708,0.22308032909851125 C 0.4821852808341932,0.22120789850088163 0.4825189405435659,0.2194857650736714 0.4836293380199852,0.21790875731167572 C 0.48469481689258537,0.21639377739193577 0.4850132587228431,0.21473535520246267 0.48458561978020703,0.21292851056062406 C 0.48413863492533427,0.2110640356526167 0.48446523472133574,0.20934667777378513 0.48556639993573986,0.2077712797597258 C 0.4866614341652644,0.20620200840480665 0.48698411552583476,0.2044873850817641 0.4865354130180576,0.2026222608379679 C 0.48609913830800966,0.20083325851189793 0.48640637954898697,0.199182653144939 0.4874580593754682,0.19766548802809764 C 0.48854207131110905,0.19609843050806547 0.48885641862553747,0.1943897750948494 0.48840204529251696,0.19253439075723938 C 0.4879436660986399,0.19068953620620988 0.4882534463390943,0.1889842223077802 0.4893323162728834,0.18741332806518995 C 0.4903657161934356,0.18590479095088475 0.4906599027646823,0.18426373735948706 0.49021575941839507,0.18248523926564453 C 0.4897509973650732,0.18065187287457607 0.49005116944822197,0.17895371913720493 0.49111717707389146,0.17738567855847875 C 0.49217528898888435,0.17582433652855303 0.492470245359324,0.17413013126513233 0.4920029319286613,0.1722979751302906 C 0.49153116908201044,0.17047750798156677 0.4918206909006621,0.16878745606997136 0.4928723668083023,0.16722274422994557 C 0.493952668750367,0.1656093174413106 0.49424656803323463,0.1638635035847664 0.49375494722596,0.1619800600436241 C 0.4932755385894198,0.160173968471956 0.49355332110367556,0.15849300416232115 0.4945891289397012,0.15693211923890513 C 0.495615852834376,0.1553783100292522 0.49588753650786005,0.15370212078321258 0.49540499581652614,0.15189851796431733 C 0.4949000795755872,0.15004396769979644 0.49517480335960656,0.14831316689085905 0.4962299921543006,0.1467009180044624 C 0.49723896098087855,0.14515156466788517 0.4974975530886093,0.14348572839677026 0.4970065450203612,0.14169840674426282 C 0.4964926280951133,0.13986133801461018 0.4967533231394653,0.13814169948826893 0.497789413011329,0.13653432715213248 C 0.4988145121242681,0.13493475764422785 0.4990677092856814,0.1332211353578496 0.498549764837606,0.13138831434644496 C 0.49804427144010105,0.12963289201497322 0.49828139511723185,0.12798428215354532 0.49926184794293593,0.12643753404559976 C 0.5003002974406655,0.12478858387640539 0.50054610153916,0.12302891113734883 0.49999999837935244,0.12115323159401178 C 0.49999999891956826,0.11948656103541105 0.49999999945978413,0.11781989047681034 0.5,0.1161532199182096 C 0.4870474703028122,0.17873624041361102 0.47409494060562435,0.24131926090901248 0.46114241090843655,0.30390228140441394 C 0.46711198474642357,0.3874091006599331 0.47308155858441053,0.47091591991545223 0.47905113242239755,0.5544227391709714 C 0.47719857765118107,0.5808974157492874 0.4753460228799646,0.6073720923276035 0.47349346810874804,0.6338467689059195 C 0.47516013473816177,0.6338467689059195 0.47682680136757555,0.6338467689059195 0.47849346799698933,0.6338467689059195 "  fill="url(#AB)"  /><use xlink:href="#YB"  fill="url(#CB)" /><path d="M 0.5215065320030107,0.6338467689059195 C 0.5215065320030107,0.6338467689059195 0.5215065320030107,0.6338467689059195 0.5215065320030107,0.6338467689059195 C 0.5197090332936858,0.6305049654431748 0.5194661366032611,0.6270537490538779 0.5207771125216464,0.6234827558584136 C 0.5214248855227241,0.6217248753854901 0.5213051212879012,0.620020942767539 0.5204174601694556,0.6183658411557359 C 0.5195287257823024,0.616712950250791 0.5194088585939023,0.6150060651153874 0.5200574986473674,0.6132400600343961 C 0.5207177396994324,0.6114490196435268 0.5205959230597074,0.6097128516143672 0.5196916829171718,0.6080263422963038 C 0.5188000578281448,0.6063675881226437 0.5186799831506739,0.6046547462549768 0.5193310983047892,0.6028826730903202 C 0.5199838038520024,0.601112738417732 0.5198636262234173,0.5993969378135274 0.5189702045299056,0.597730118789743 C 0.5180894794629396,0.5960911688435397 0.5179710501337081,0.5943988723512054 0.5186145609031634,0.5926481474067853 C 0.5192697099114062,0.5908722426347222 0.519149327966675,0.589150563965345 0.5182530535662873,0.5874779412590708 C 0.5173557021779527,0.5858075701643649 0.517235217283885,0.5840829265933968 0.5178912370722488,0.5822988315030893 C 0.5185387256919431,0.5805443392481192 0.5184199938265273,0.5788433298168445 0.5175346849284477,0.5771906951386662 C 0.5166344759478076,0.5755145257927439 0.516513786742314,0.5737839919383826 0.5171722548865905,0.5719938968441948 C 0.5178221566056573,0.5702335103017243 0.5177032235730387,0.5685266971988088 0.5168150986370834,0.5668683320366302 C 0.5159259327160468,0.5652122550267044 0.515806899881201,0.5635025596212642 0.5164576426811922,0.5617341116660401 C 0.5171099423553398,0.5599678686302842 0.516990809718509,0.5582552889458929 0.516099887019644,0.5565912297972099 C 0.5153108992589658,0.5547665041828176 0.5153383001920194,0.5529541213313933 0.5161821721028287,0.5511486387219332 C 0.5170562757163817,0.5495272871389093 0.5171757905317895,0.547852100052004 0.5165410754477764,0.5461180469341965 C 0.5158743783939965,0.5443028917215375 0.5159998582728353,0.5425442589783412 0.5169178918958897,0.5408368675932602 C 0.5177917040476916,0.5392161093658091 0.5179111987580651,0.5375415246907986 0.5172767348653595,0.5358080848502293 C 0.5166420385542814,0.5340799798076044 0.5167615237428139,0.5324056969234212 0.517635549240713,0.5307802083859473 C 0.5185527402581822,0.5290790507624294 0.5186781896506241,0.5273213844020603 0.5180122741380858,0.525501931095505 C 0.5173778450443446,0.5237744699129481 0.5174973112706842,0.5221008223473043 0.5183710315699177,0.5204759624946801 C 0.5192878972265266,0.5187754750304694 0.5194133270935044,0.5170184876246616 0.518747697832264,0.5151997241067984 C 0.5181135468544467,0.5134729290121074 0.5182329948551972,0.5117999393246045 0.519106400532598,0.5101757311159809 C 0.5200229309511828,0.5084759378109127 0.5201483420687949,0.5067196530099081 0.5194830104905437,0.5049016026524055 C 0.5188491485137586,0.5031754958366805 0.5189685790280615,0.5015031865513653 0.519841660679023,0.4998796529113743 C 0.5207578459824198,0.4981805777652841 0.5208832391267646,0.4964250192193239 0.5202182166631937,0.4946077053938504 C 0.5195846545725495,0.4928823090481918 0.5197040683395457,0.4912107026891109 0.520576816559462,0.48958786654238456 C 0.5214926468705068,0.48788953355510756 0.5216180228176827,0.48613472491443327 0.5209533209004833,0.4843181709926571 C 0.5203200695810885,0.48259350730816514 0.5204394673399194,0.4809226263993654 0.5213118727241836,0.47930051067053603 C 0.5222273381657129,0.4776029438419073 0.5223526976918182,0.4758489087567601 0.5216883277526814,0.47403313811034953 C 0.5210237558304589,0.4722230437325477 0.5211491072504707,0.4704694139598708 0.5220647584385562,0.46876698270471284 C 0.5229362690459491,0.46715101410581034 0.5230556440012799,0.46548127300306286 0.5224232417832777,0.46375274522354554 C 0.5217590191937834,0.46194346709300627 0.5218843553622007,0.4601906466975041 0.5227996266685688,0.4584890203799638 C 0.5236707708565989,0.4568738274416849 0.5237901316606312,0.4552048683740199 0.5231580675168994,0.4534771313524675 C 0.5224942056675629,0.451668692710106 0.5226195273646201,0.44991670528415084 0.5235344089446536,0.4482159079189046 C 0.5244051773064944,0.4466015134982432 0.5245245246983695,0.4449333589897081 0.5238928095162366,0.4432064349848603 C 0.5232293198364182,0.44139885913132343 0.5233546278382137,0.43964772832515603 0.5242691098170797,0.4379477839830592 C 0.5251394929459046,0.43633421093700947 0.5252588276647638,0.4346668835116519 0.5246274723315583,0.4329407947822487 C 0.5239643662506179,0.43113410501818317 0.5240896613332504,0.42938385448204397 0.5250037338361158,0.42768478723395176 C 0.5259172165843775,0.42599143303731873 0.5260425053557742,0.42424164245565843 0.5253799763880138,0.42243016093031843 C 0.5247488275921457,0.4207103806205233 0.5248681445509016,0.4190443466899892 0.5257382855688493,0.417427056098297 C 0.5266513439048122,0.41573461271678525 0.5267766209253235,0.413985738243438 0.5261144928328036,0.41217518087064337 C 0.5254837312694371,0.41045628910096804 0.5256030374120442,0.40879113883841445 0.5264727695327119,0.40717472969618695 C 0.5273853936181088,0.4054832210575266 0.5275106596691672,0.40373528626822575 0.5268489438553672,0.4019256763425103 C 0.526187067450627,0.40012180817218146 0.5263123281897475,0.3983743637597282 0.5272251022262566,0.3966780955919603 C 0.528093839923524,0.3950680591634092 0.5282131311139728,0.39340428796294286 0.5275833340247897,0.39168178574503987 C 0.5269218872468394,0.3898788975214869 0.5270471381841195,0.388132428640566 0.5279594629607236,0.3864371345185734 C 0.5288277681614075,0.38482803430709417 0.5289470503925746,0.38316520335941234 0.5283176678545072,0.38144364825355204 C 0.5276566621009994,0.37964176319101 0.5277819040185372,0.37789629340815284 0.5286937697041281,0.3762019973215327 C 0.5296050203858087,0.3745134616749778 0.5297302579907059,0.3727685126913689 0.5290698586028768,0.37096191035119974 C 0.5284407654632838,0.369246818767034 0.5285600355502382,0.3675854524487047 0.5294280270275533,0.36597282237246553 C 0.5303388036606073,0.3642853181433334 0.5304640334127093,0.36254140411444263 0.5298040923443346,0.3607358433742188 C 0.5291440143475199,0.35893606032904224 0.529269240388499,0.3571926854119474 0.530180146516603,0.3555004833302935 C 0.5310470864320109,0.3538943537046568 0.5311663460649723,0.3522345035221899 0.5305382835479069,0.3505159483120483 C 0.5298786811796212,0.3487172389996718 0.5300039005410181,0.346974934806556 0.5309143176613693,0.345283803655406 C 0.5318241045507839,0.3435984606051845 0.5319493208025755,0.34185671383642546 0.5312903424366782,0.34005333294575935 C 0.5306626191686507,0.33834133379648074 0.5307818700378382,0.33668305125638653 0.5316484531503439,0.3350735055622064 C 0.5325577361130032,0.33338926652486456 0.5326829468584252,0.3316486262493319 0.5320244613900085,0.32984635765499865 C 0.5313658567510724,0.3280498930079753 0.5314910649884068,0.3263098284693737 0.5324004620978787,0.3246209386875014 C 0.5332659506843638,0.3230179887191895 0.5333851944799972,0.3213613253279789 0.5327585515696408,0.3196459736128457 C 0.5321004571302013,0.31785065318015465 0.5322256610343788,0.3161117309040128 0.5331345392650283,0.3144239848629012 C 0.5340427720163725,0.31274205393401266 0.5341679740139802,0.3110037257073902 0.5335105212349811,0.30920378004542437 C 0.5328028627694661,0.30738297227935873 0.5328964072945872,0.3056043016879024 0.5337914357212137,0.30386242698676447 C 0.5341968716160619,0.30203597060430337 0.533849968067865,0.3003657770855859 0.5327496833376515,0.29884683089909825 C 0.5316501571790122,0.2973320699058739 0.5313033291636338,0.295661080072699 0.5317081577793672,0.29382884347675575 C 0.5321145755332142,0.29200113496947944 0.5317680193429393,0.2903295328584101 0.5306674485126749,0.2888090173820813 C 0.5295681933030205,0.28729288216125304 0.5292221051382426,0.28562085136651943 0.5296281447279372,0.28378790394909226 C 0.5300511202532965,0.28189233740798575 0.529692918169121,0.28015812316138045 0.5285524628073393,0.27858005342580217 C 0.5274546302837395,0.27706290994957494 0.5271101023869789,0.27539057372289244 0.5275178445120824,0.27355802277976515 C 0.5279276270496662,0.2717311020370981 0.5275841630659706,0.2700588948047542 0.526486421150913,0.2685363795041094 C 0.5253911115023251,0.2670186306653181 0.525048907612381,0.26534673592601704 0.5254587818550156,0.2635156746459876 C 0.5258709165551192,0.261690786081821 0.5255301689593204,0.2600193874297929 0.5244355158147529,0.25849645953941724 C 0.5233034536300896,0.2569222649672318 0.5229518337650445,0.255189683064197 0.5233796003177154,0.253293510948708 C 0.5237945974544214,0.25147181038121497 0.5234574232654717,0.24980199008309242 0.5223670652288135,0.2482790356435946 C 0.5212802465690465,0.2467612249802589 0.5209451245628176,0.24509245845420857 0.5213606928507057,0.24326772481913778 C 0.5217789585342829,0.24145025247023597 0.5214460848904542,0.2397827232081657 0.5203610723115498,0.2382601295020808 C 0.5192401724881275,0.23668667545414562 0.5188975548187469,0.234958889118562 0.5193321904347779,0.23307158201464304 C 0.5197542519370502,0.2312595342507474 0.5194265651719097,0.22959509314177912 0.5183481461076981,0.22807326043050544 C 0.5172743638645065,0.22655693973604382 0.5169495213508744,0.22489429358106242 0.5173726430763292,0.22308032909851125 C 0.5178147191658068,0.22120789850088163 0.5174810594564341,0.2194857650736714 0.5163706619800148,0.21790875731167572 C 0.5153051831074147,0.21639377739193577 0.5149867412771569,0.21473535520246267 0.515414380219793,0.21292851056062406 C 0.5158613650746657,0.2110640356526167 0.5155347652786643,0.20934667777378513 0.5144336000642602,0.2077712797597258 C 0.5133385658347356,0.20620200840480665 0.5130158844741652,0.2044873850817641 0.5134645869819424,0.2026222608379679 C 0.5139008616919903,0.20083325851189793 0.513593620451013,0.199182653144939 0.5125419406245317,0.19766548802809764 C 0.511457928688891,0.19609843050806547 0.5111435813744625,0.1943897750948494 0.511597954707483,0.19253439075723938 C 0.5120563339013601,0.19068953620620988 0.5117465536609057,0.1889842223077802 0.5106676837271166,0.18741332806518995 C 0.5096342838065644,0.18590479095088475 0.5093400972353177,0.18426373735948706 0.5097842405816049,0.18248523926564453 C 0.5102490026349268,0.18065187287457607 0.5099488305517781,0.17895371913720493 0.5088828229261085,0.17738567855847875 C 0.5078247110111156,0.17582433652855303 0.5075297546406761,0.17413013126513233 0.5079970680713387,0.1722979751302906 C 0.5084688309179896,0.17047750798156677 0.5081793090993378,0.16878745606997136 0.5071276331916976,0.16722274422994557 C 0.506047331249633,0.1656093174413106 0.5057534319667654,0.1638635035847664 0.5062450527740401,0.1619800600436241 C 0.5067244614105801,0.160173968471956 0.5064466788963244,0.15849300416232115 0.5054108710602988,0.15693211923890513 C 0.5043841471656241,0.1553783100292522 0.5041124634921399,0.15370212078321258 0.5045950041834739,0.15189851796431733 C 0.5050999204244129,0.15004396769979644 0.5048251966403934,0.14831316689085905 0.5037700078456995,0.1467009180044624 C 0.5027610390191215,0.14515156466788517 0.5025024469113907,0.14348572839677026 0.5029934549796389,0.14169840674426282 C 0.5035073719048867,0.13986133801461018 0.5032466768605347,0.13814169948826893 0.502210586988671,0.13653432715213248 C 0.5011854878757319,0.13493475764422785 0.5009322907143186,0.1332211353578496 0.501450235162394,0.13138831434644496 C 0.501955728559899,0.12963289201497322 0.5017186048827682,0.12798428215354532 0.5007381520570641,0.12643753404559976 C 0.4996997025593345,0.12478858387640539 0.49945389846084,0.12302891113734883 0.5000000016206476,0.12115323159401178 C 0.5000000010804317,0.11948656103541105 0.5000000005402159,0.11781989047681034 0.5,0.1161532199182096 C 0.5129525296971877,0.17873624041361102 0.5259050593943757,0.24131926090901248 0.5388575890915634,0.30390228140441394 C 0.5328880152535764,0.3874091006599331 0.5269184414155894,0.47091591991545223 0.5209488675776024,0.5544227391709714 C 0.5228014223488189,0.5808974157492874 0.5246539771200354,0.6073720923276035 0.526506531891252,0.6338467689059195 C 0.5248398652618382,0.6338467689059195 0.5231731986324244,0.6338467689059195 0.5215065320030107,0.6338467689059195 "  fill="url(#AB)"  /><path d="M 0.4474999933121726,0.6338467689059195 C 0.4824999977707242,0.6338467689059195 0.5175000022292758,0.6338467689059195 0.5525000066878274,0.6338467689059195 C 0.5532759642494599,0.6338467689059195 0.5535000067353248,0.6340708113917845 0.5535000067353248,0.634846768953417 C 0.5535000067353248,0.6375134355139128 0.5535000067353248,0.6401801020744088 0.5535000067353248,0.6428467686349046 C 0.5535000067353248,0.6436227261965372 0.5532759642494599,0.6438467686824021 0.5525000066878274,0.6438467686824021 C 0.5175000022292758,0.6438467686824021 0.4824999977707242,0.6438467686824021 0.4474999933121726,0.6438467686824021 C 0.44672403575054015,0.6438467686824021 0.44649999326467515,0.6436227261965372 0.44649999326467515,0.6428467686349046 C 0.44649999326467515,0.6401801020744088 0.44649999326467515,0.6375134355139128 0.44649999326467515,0.634846768953417 C 0.44649999326467515,0.6340708113917845 0.44672403575054015,0.6338467689059195 0.4474999933121726,0.6338467689059195 "  fill="url(#DB)"  /><g id="hilt" ><path d="M 0.48761676428578576,0.6438467686824021 C 0.48514011655246425,0.7061849128741021 0.48514011655246425,0.7685230570658022 0.48761676428578576,0.8327502284236288 C 0.4958722547619286,0.8327502284236288 0.5041277452380714,0.8327502284236288 0.5123832357142142,0.8327502284236288 C 0.5148598834475357,0.7685230570658022 0.5148598834475357,0.7061849128741021 0.5123832357142142,0.6438467686824021 "  fill="url(#EB)"  /><g id="wraps" ><path d="M 0.5123832357142142,0.6438467686824021 C 0.5043625146990265,0.6472340245574133 0.49607178279939734,0.6481340608254733 0.48751104001532675,0.646546877486582 C 0.4874336669774906,0.6485523064408923 0.48735885703980364,0.6505577636209058 0.48728661020226616,0.6525633119178695 C 0.4959992857774972,0.6541960305209293 0.5044419382002522,0.653295953359421 0.512614567470531,0.6498630804333446 C 0.5125400199852415,0.6478576012555322 0.5124629093998025,0.6458521849689671 0.5123832357142142,0.6438467686824021 "  fill="url(#FB)"  /><path d="M 0.5128305206259516,0.6558797695317716 C 0.5045162524366011,0.6593552402400943 0.4959319318913178,0.660255414746457 0.4870775589901015,0.6585802930508596 C 0.48701043835286273,0.6605860864729716 0.4869458808157733,0.6625920339032815 0.4868838863788333,0.6645981982330367 C 0.49586972114085914,0.6663125908495405 0.5045854574080733,0.6654122625469177 0.5130310951804757,0.661897213325168 C 0.5129668000957837,0.6598912310173761 0.5128999419109423,0.6578854373833265 0.5128305206259516,0.6558797695317717 "  fill="url(#GB)"  /><path d="M 0.5132162911341038,0.6679157891610183 C 0.5046495531146689,0.6714673976273757 0.49581265352612125,0.6723679361776649 0.48670559236846134,0.6706174048118858 C 0.48664872413182003,0.6726240658317789 0.48659441899532807,0.674631006642365 0.48654267695898556,0.6766382901348911 C 0.4957607290471042,0.6784218280783147 0.5047085395563876,0.6775210228289534 0.5133861084868356,0.6739358743868072 C 0.5133320658027412,0.6719288858190563 0.5132754600184972,0.6699222117075425 0.5132162911341038,0.6679157891610185 "  fill="url(#HB)"  /><path d="M 0.5135405472386712,0.6799578463500193 C 0.5047624167332296,0.6835735154991351 0.49571394770380794,0.6844746438989746 0.4863951401504061,0.6826612315495377 C 0.48634852431436226,0.6846692632971917 0.4863044715784678,0.6866777006180332 0.4862629819427229,0.6886866064033099 C 0.49567230949623253,0.6905267609871292 0.504811184645195,0.6896252529854057 0.5136796073896105,0.6859820823981393 C 0.5136358171061135,0.6839735844404496 0.5135894637224669,0.6819655267214921 0.5135405472386712,0.6799578463500193 "  fill="url(#IB)"  /><path d="M 0.5138032889396535,0.6920089598786516 C 0.5048548432922837,0.6956766126352494 0.49563581442437776,0.696578556690263 0.48614620233593575,0.6947147920436925 C 0.48610983890048953,0.6967246976490867 0.48607603856519255,0.6987351346101633 0.48604480133004513,0.7007461658181701 C 0.49560446248824386,0.7026304083558607 0.5048933926744956,0.701727971796151 0.5139115918888004,0.6980388561390412 C 0.5138780540059007,0.6960283456614337 0.5138419530228518,0.6940184012050529 0.5138032889396535,0.6920089598786517 "  fill="url(#JB)"  /><path d="M 0.514004516237051,0.7040721485267925 C 0.5049268327918309,0.7077797078155955 0.4955782536878307,0.7086826933314071 0.48595877892505046,0.7067811050742273 C 0.4859326678902015,0.7087933876673412 0.4859091199555021,0.7108063273986327 0.4858881351209521,0.7128199871593488 C 0.49555718802313853,0.7147357889643867 0.5049551636442895,0.7138321980410671 0.5140820619844053,0.7101092143893901 C 0.5140587765021032,0.7080961882618849 0.5140329279196518,0.7060838539381015 0.514004516237051,0.7040721485267925 "  fill="url(#KB)"  /><path d="M 0.5141442291308633,0.7161504310743189 C 0.5049783852318712,0.7198858198200507 0.4955412654941669,0.7207900726022841 0.4858328699177501,0.7188631894210191 C 0.48581701128349875,0.7208783521318325 0.48580371574939685,0.722894297763318 0.4857929833154443,0.7249110892067232 C 0.4955304861009161,0.7268459215925843 0.5049964975545764,0.725940950500031 0.5141910176764253,0.7221961759290633 C 0.5141779845947207,0.7201801310216809 0.5141623884128668,0.7181649037005152 0.5141442291308634,0.7161504310743189 "  fill="url(#LB)"  /><path d="M 0.5142224276210909,0.728246826301108 C 0.5050095006124049,0.7319979674284924 0.4955248498433861,0.7329037132827715 0.48576847531403466,0.7309640638639453 C 0.4857628690803808,0.7329826098224372 0.4857598259468764,0.7350020644840964 0.4857593459135213,0.7370224907401702 C 0.495524356721577,0.7389638250203305 0.5050173944053566,0.7380572479529196 0.5142384589648603,0.7343027595379377 C 0.5142356782837532,0.7322831927206986 0.5142303345024968,0.7302645692721712 0.5142224276210909,0.7282468263011079 "  fill="url(#MB)"  /><path d="M 0.5142391117077334,0.740364352987037 C 0.5050201789334317,0.7441191694207973 0.4955290067354886,0.7450266341527458 0.48576559511390427,0.7430867471828828 C 0.485770241280848,0.7451091795190331 0.4857774505479411,0.7471326463408454 0.4857872229151835,0.7491572105395673 C 0.49553879988512106,0.7510925180275024 0.5050178541966299,0.7501841091796101 0.5142243858497102,0.7464319839958905 C 0.5142318575692006,0.7444083921388153 0.5142367661885416,0.7423858694329466 0.5142391117077334,0.740364352987037 "  fill="url(#NB)"  /><path d="M 0.5141942813907909,0.7525060299119829 C 0.5050104201949515,0.7562524445768427 0.49555373617047405,0.7571618539920847 0.4858242293173588,0.7552342581577087 C 0.48583912788490013,0.7572610800014968 0.4858565895525906,0.7592890621134419 0.4858766143204306,0.7613182673847914 C 0.4955738155915481,0.7632350193939773 0.5049978769283964,0.7623245529599798 0.5141487983309754,0.7585868680827988 C 0.5141665224510632,0.756558748055908 0.5141816834710018,0.7545318229627185 0.5141942813907909,0.7525060299119829 "  fill="url(#OB)"  /><path d="M 0.5140879366702635,0.764674875855823 C 0.5049802243969645,0.7684008116765058 0.49559903814834294,0.7693123915806648 0.4859443779243984,0.7674096155683002 C 0.4859695288925371,0.7694413300497058 0.485997242960825,0.7714743305817631 0.48602752012926254,0.7735086800557197 C 0.4956294038408584,0.775394347899632 0.5049574626006561,0.7744815980739054 0.5140116964086554,0.7707704305785399 C 0.5140396729293408,0.7687372792518538 0.5140650863498768,0.7667054486413639 0.5140879366702635,0.7646748758558229 "  fill="url(#PB)"  /><path d="M 0.513920077546151,0.7768739095984343 C 0.5049295915394707,0.7805672894996635 0.49566491266909474,0.7814812656983635 0.4861260409350229,0.7796158381945345 C 0.48616144430375907,0.7816529484435369 0.4861994107726445,0.783691470525686 0.4862399403416795,0.7857314673322292 C 0.4957055646330518,0.7875735223243441 0.5048966112134089,0.7866582633012645 0.5138130800827505,0.7829856902629907 C 0.5138513090040333,0.78094700450653 0.5138869748251669,0.7789097652487602 0.513920077546151,0.7768739095984343 "  fill="url(#QB)"  /><path d="M 0.5136907040184537,0.7891061499196939 C 0.5048585216224701,0.7927548968261932 0.49575135973272977,0.7936714951250581 0.4863692183492323,0.7918559448162886 C 0.4864148741185661,0.7938989539628674 0.486463092988049,0.7959435007250878 0.4865138749576815,0.7979896479941971 C 0.49580229796812847,0.7997755614479902 0.504815322766655,0.798857567421934 0.5135529493532607,0.7952356659160285 C 0.513601430675141,0.7931909425998133 0.513647348896872,0.7911477915647842 0.5136907040184537,0.7891061499196937 "  fill="url(#RB)"  /><path d="M 0.5133998160871713,0.801374615599479 C 0.5047670146459629,0.8049666524359717 0.4958583793392479,0.8058860986406252 0.48667391016702677,0.8041329542134397 C 0.48672981833695805,0.8061823653875744 0.48678828960703846,0.8082334399598455 0.48684932397726843,0.8102862408215006 C 0.49591960384608824,0.8120034840504478 0.504713597260394,0.8110825292157909 0.5132313042201858,0.8075233763175301 C 0.5132900379426637,0.8054721123115813 0.5133462085649921,0.8034225463693133 0.5133998160871713,0.8013746155994789 "  fill="url(#SB)"  /><path d="M 0.513047413752304,0.8136823254176666 C 0.5046550706099486,0.8172055751088764 0.4959859714886493,0.8181280950249424 0.48704011638840616,0.8164498851658648 C 0.4871062769589348,0.818506201497535 0.48717500062961283,0.8205643070098365 0.4872462874004403,0.8226242645940166 C 0.49605748226693114,0.8242603089115937 0.5045914346946264,0.8233361674627124 0.512848144683526,0.8198518402473729 C 0.5129171308066014,0.8177935324217108 0.5129835538295273,0.8157370484422245 0.513047413752304,0.8136823254176665 "  fill="url(#TB)"  /><path d="M 0.5126334970138517,0.8260322981541339 C 0.5045226895144275,0.8294746836247843 0.4961341361809338,0.8304005030578867 0.4874678370133706,0.8288097564534411 C 0.4874678370133706,0.8288097564534411 0.4874678370133706,0.8288097564534411 0.4874678370133706,0.8288097564534411 C 0.4959316149662212,0.8350535151269152 0.5041938504520529,0.834878131147517 0.5124034707432812,0.8322240764854341 C 0.5124827092669542,0.8301582217100792 0.5125593846904776,0.8280943165633949 0.5126334970138517,0.8260322981541338 "  fill="url(#UB)"  /></g><path d="M 0.48566347032141644,0.8327502284236288 C 0.49522115677380546,0.8327502284236288 0.5047788432261945,0.8327502284236288 0.5143365296785836,0.8327502284236288 C 0.5166644022731476,0.8327502284236288 0.5173365297046606,0.8334223558551418 0.5173365297046606,0.8357502284497058 C 0.5173365297046606,0.8370835616911486 0.5173365297046606,0.8384168949325915 0.5173365297046606,0.8397502281740343 C 0.5173365297046606,0.8420781007685983 0.5166644022731476,0.8427502282001114 0.5143365296785836,0.8427502282001114 C 0.5047788432261945,0.8427502282001114 0.49522115677380546,0.8427502282001114 0.48566347032141644,0.8427502282001114 C 0.4833355977268524,0.8427502282001114 0.4826634702953394,0.8420781007685983 0.4826634702953394,0.8397502281740343 C 0.4826634702953394,0.8384168949325915 0.4826634702953394,0.8370835616911486 0.4826634702953394,0.8357502284497058 C 0.4826634702953394,0.8334223558551418 0.4833355977268524,0.8327502284236288 0.48566347032141644,0.8327502284236288 "  fill="url(#VB)"  /></g><g id="top" ></g></svg>