<?xml version="1.0"?>
<svg width="700" height="700"  viewBox="0 0 1 1" 
     xmlns="http://www.w3.org/2000/svg"
     xmlns:xlink="http://www.w3.org/1999/xlink">

<defs><linearGradient id="BB" x1="97%" y1="0%" x2="100%" y2="100%" >
<stop offset="0%" stop-color="#333333" stop-opacity="1"/><stop offset="100%" stop-color="#b2b2b2" stop-opacity="1"/></linearGradient><linearGradient id="AB" x1="0.30000001192092896" y1="0.13321022176310748" x2="0.699999988079071" y2="0.6167897670610216" gradientUnits="userSpaceOnUse">
<stop offset="0%" stop-color="#ffffff" stop-opacity="1"/><stop offset="20%" stop-color="#7f7f7f" stop-opacity="1"/><stop offset="40%" stop-color="#ffffff" stop-opacity="1"/><stop offset="60%" stop-color="#000000" stop-opacity="1"/><stop offset="80%" stop-color="#ffffff" stop-opacity="1"/><stop offset="100%" stop-color="#000000" stop-opacity="1"/></linearGradient><linearGradient id="CB" x1="100%" y1="0%" x2="100%" y2="100%" >
<stop offset="0%" stop-color="#191919" stop-opacity="1"/><stop offset="100%" stop-color="#7f7f7f" stop-opacity="1"/></linearGradient><linearGradient id="AB" x1="0.30000001192092896" y1="0.13321022176310748" x2="0.699999988079071" y2="0.6167897670610216" gradientUnits="userSpaceOnUse">
<stop offset="0%" stop-color="#ffffff" stop-opacity="1"/><stop offset="20%" stop-color="#7f7f7f" stop-opacity="1"/><stop offset="40%" stop-color="#ffffff" stop-opacity="1"/><stop offset="60%" stop-color="#000000" stop-opacity="1"/><stop offset="80%" stop-color="#ffffff" stop-opacity="1"/><stop offset="100%" stop-color="#000000" stop-opacity="1"/></linearGradient><linearGradient id="DB" x1="0%" y1="0%" x2="100%" y2="100%" >
<stop offset="0%" stop-color="#a52a2a" stop-opacity="1"/><stop offset="100%" stop-color="#210808" stop-opacity="1"/></linearGradient><linearGradient id="EB" x1="0.4875662660397679" y1="0.6267897668375042" x2="0.5124337339602321" y2="0.6277897668850017" gradientUnits="userSpaceOnUse">
<stop offset="0%" stop-color="#521515" stop-opacity="1"/><stop offset="100%" stop-color="#210808" stop-opacity="1"/></linearGradient><linearGradient id="FB" x1="0.4875662660397679" y1="0.6267897668375042" x2="0.5112870574685363" y2="0.6603979884294732" gradientUnits="userSpaceOnUse">
<stop offset="0%" stop-color="#003f00" stop-opacity="1"/><stop offset="50%" stop-color="#001900" stop-opacity="1"/><stop offset="100%" stop-color="#000c00" stop-opacity="1"/></linearGradient><linearGradient id="GB" x1="0.4885437908431748" y1="0.6543732875722283" x2="0.5107147985899907" y2="0.688029261050049" gradientUnits="userSpaceOnUse">
<stop offset="0%" stop-color="#003f00" stop-opacity="1"/><stop offset="50%" stop-color="#001900" stop-opacity="1"/><stop offset="100%" stop-color="#000c00" stop-opacity="1"/></linearGradient><linearGradient id="HB" x1="0.48918866439813213" y1="0.6819921470527331" x2="0.5104751909598947" y2="0.7157389252820087" gradientUnits="userSpaceOnUse">
<stop offset="0%" stop-color="#003f00" stop-opacity="1"/><stop offset="50%" stop-color="#001900" stop-opacity="1"/><stop offset="100%" stop-color="#000c00" stop-opacity="1"/></linearGradient><linearGradient id="IB" x1="0.48950088670464004" y1="0.709681684024799" x2="0.5105682345782482" y2="0.7435623198711325" gradientUnits="userSpaceOnUse">
<stop offset="0%" stop-color="#003f00" stop-opacity="1"/><stop offset="50%" stop-color="#001900" stop-opacity="1"/><stop offset="100%" stop-color="#000c00" stop-opacity="1"/></linearGradient><linearGradient id="JB" x1="0.4894804577626984" y1="0.7374772372342067" x2="0.5109939294450511" y2="0.7715347835632013" gradientUnits="userSpaceOnUse">
<stop offset="0%" stop-color="#003f00" stop-opacity="1"/><stop offset="50%" stop-color="#001900" stop-opacity="1"/><stop offset="100%" stop-color="#000c00" stop-opacity="1"/></linearGradient><linearGradient id="KB" x1="0.4891273775723073" y1="0.7654141454267367" x2="0.5117522755603036" y2="0.7996916551039954" gradientUnits="userSpaceOnUse">
<stop offset="0%" stop-color="#003f00" stop-opacity="1"/><stop offset="50%" stop-color="#001900" stop-opacity="1"/><stop offset="100%" stop-color="#000c00" stop-opacity="1"/></linearGradient><linearGradient id="LB" x1="0.48844164613346663" y1="0.7935277473481696" x2="0.5124337339602321" y2="0.8183616729209078" gradientUnits="userSpaceOnUse">
<stop offset="0%" stop-color="#003f00" stop-opacity="1"/><stop offset="50%" stop-color="#001900" stop-opacity="1"/><stop offset="100%" stop-color="#000c00" stop-opacity="1"/></linearGradient><linearGradient id="MB" x1="0.4875662660397679" y1="0.6267897668375042" x2="0.5124337339602321" y2="0.6277897668850017" gradientUnits="userSpaceOnUse">
<stop offset="0%" stop-color="#310c0c" stop-opacity="1"/><stop offset="100%" stop-color="#210808" stop-opacity="1"/></linearGradient><filter id="NB" x="-40%" y="-40%" width="180%" height="180%"><feGaussianBlur in="SourceGraphic" stdDeviation="0.00800000037997961" /></filter><filter id="NB" x="-40%" y="-40%" width="180%" height="180%"><feGaussianBlur in="SourceGraphic" stdDeviation="0.00800000037997961" /></filter><g id="uglow" ><use xlink:href="#OB"  fill="#ffffff"  fill-opacity="0.5"  filter="url(#NB)" /><use xlink:href="#PB"  fill="#ffffff"  fill-opacity="0.5"  filter="url(#NB)" /></g><path  id="OB" d="M 0.44535615388748034,0.6167897670610216 C 0.46195714383518127,0.5114593205548877 0.4632198468667348,0.4285882289740368 0.464554953484596,0.3581945567961208 C 0.4652225067935266,0.3229977207071628 0.46590816099903415,0.2909202394689385 0.46853825241392544,0.2607143711411545 C 0.47248338953626234,0.21540556864947846 0.4808035103797128,0.17430789520629297 0.5,0.13321022176310748 C 0.5,0.29440340352907884 0.5,0.45559658529505026 0.5,0.6167897670610216 C 3.4817853846291604,0.6167897670610216 1.9635707692583202,0.6167897670610216 0.44535615388748034,0.6167897670610216 "  /><path d="M 0.45035615377572163,0.6167897670610216 C 0.45035615377572163,0.6167897670610216 0.45035615377572163,0.6167897670610216 0.45035615377572163,0.6167897670610216 C 0.45230920672783004,0.6137865666303036 0.4528082150618116,0.6105585876647299 0.4518546772818798,0.6070961366587001 C 0.45138895021481107,0.6054448696140156 0.45162012956301084,0.6038977374136585 0.45254890954980903,0.6024500940748608 C 0.45352688875905456,0.6009181834222959 0.4537662503038203,0.5992784522511757 0.45326771297828033,0.5975259765073291 C 0.4527659873375208,0.5957925433651354 0.45299800896538206,0.5941636244725323 0.45396447461452966,0.5926343282442346 C 0.4548589343166792,0.5912120017419451 0.45506990022061367,0.5896946455506472 0.4545980058494115,0.5880777031038652 C 0.45409176023125086,0.5863712572739138 0.4543099184068036,0.5847630808950479 0.455253135497283,0.5832483446710109 C 0.4561839522618055,0.5817458970849355 0.45639513969859996,0.5801483200202724 0.455887331996,0.578450816010127 C 0.4553767868579465,0.5767717196602705 0.45558112923150557,0.5751846694271012 0.4565009727495304,0.5736848994554236 C 0.4574087740886941,0.5721973229237358 0.45760639707639894,0.570620727025827 0.4570944351674221,0.5689503773004972 C 0.45654774653732655,0.5671952879622612 0.4567504990810223,0.5655315286011148 0.45770330165716,0.5639541030070899 C 0.45858803168270545,0.5624817956789487 0.4587721928546539,0.5609265328657205 0.45825633820243056,0.5592836441686972 C 0.4577382051811001,0.5576585115891518 0.45791603185129476,0.5561134811154483 0.4587903522201572,0.5546439130762291 C 0.4597069363228951,0.5530954940691291 0.45988907700066617,0.551465029709479 0.45933732121542364,0.5497476237710112 C 0.45878328729131007,0.5480495859402801 0.4589585695402171,0.546430504079645 0.45986369432848084,0.5448855161440767 C 0.460756496968797,0.5433536643434091 0.460925071531022,0.5417458780532142 0.4603699242385485,0.5400573291486573 C 0.45981276270667043,0.5383877705600874 0.45997478032756833,0.5367911928837912 0.460856463634374,0.5352628016540018 C 0.4617262444563746,0.5337474408733978 0.4618818558813002,0.5321619848544589 0.4613237652047047,0.5305016725293581 C 0.4607639223680242,0.5288599737435242 0.46091327834233226,0.5272855524254013 0.46177228163828793,0.5257736806439748 C 0.46266931469324873,0.5241868163053072 0.4628208056138188,0.5225317128113974 0.4622272093218246,0.5208033999455375 C 0.46166507248950206,0.5191897332902515 0.46180202426386685,0.5176377566250745 0.46263847590620855,0.5161428094194835 C 0.4635120963331736,0.5145737511434584 0.4636507916706184,0.5129422174885284 0.46305497841569015,0.5112433090173707 C 0.4624578232468877,0.5095641151622837 0.46259020144629176,0.5079445511283491 0.4634525105409093,0.5063797534225885 C 0.4643029386656957,0.5048289206968615 0.46442917866634814,0.503221223104449 0.463831609637082,0.5015518327868728 C 0.4632330010054342,0.49990171789663534 0.46335328175032486,0.49830578352356913 0.4641928130705371,0.4967592371337238 C 0.4650209506280757,0.4952265395304376 0.4651354510601945,0.49364226515454196 0.4645366582076038,0.49200165648664174 C 0.46393712589916297,0.4903798852527405 0.4640460249614998,0.4888071676518397 0.4648636824146112,0.4872787808691268 C 0.46571494477450603,0.48568024434147267 0.4658240147127653,0.4840325772096799 0.4651912197625201,0.48233083158817047 C 0.4645912901636034,0.48073742504871886 0.4646892372609646,0.47918813882457856 0.4654853551862406,0.4776783204645251 C 0.46631441879814195,0.4760992592874317 0.46641232737252464,0.4744760951477205 0.46577937492534244,0.47280395374142403 C 0.4651462943303377,0.47115153235137497 0.4652387815402111,0.46954077186779275 0.46605711429075214,0.4679668352344465 C 0.466864425818648,0.4664076707112932 0.46695170211496095,0.46480919254009656 0.4663192052672932,0.46316660054797126 C 0.46568692376175685,0.46154322210093396 0.46576919959889335,0.45995690484279106 0.4665662798501046,0.458402885119445 C 0.46739402295219545,0.45678276449945315 0.4674754582850041,0.45512596129613014 0.46681083039592797,0.45342750018860134 C 0.4661800168742892,0.4518330296780207 0.4662526879600089,0.450271293891616 0.4670290618817631,0.448737602992572 C 0.46783562712613613,0.4471387445136858 0.46790741887906884,0.4455075474064842 0.4672446527286325,0.443839113244285 C 0.46658290853377093,0.4421905645016144 0.46665011692278396,0.4405722898088617 0.4674464797200646,0.43897942954489383 C 0.46823254563452044,0.4374022557758655 0.4682954161203477,0.43579676196741585 0.46763527997537097,0.4341581268789514 C 0.46697655596708965,0.4325387957624668 0.46703533401336605,0.43094594124411495 0.467811790622575,0.42937478003863916 C 0.46857859415459796,0.42781916694223154 0.46863352522495855,0.426238810119772 0.4679767487897001,0.4246289638161384 C 0.46732177169783745,0.42303784167218644 0.46737310125591713,0.4214698409514137 0.46813089160476967,0.4199202530036305 C 0.46891688162845047,0.41830964811499494 0.4689671701179649,0.4166763907529969 0.4682819080878518,0.4150155763040826 C 0.4675990712784275,0.41337450766633677 0.46764594388141095,0.41175455281428547 0.46842266665355575,0.41015084708133753 C 0.4691901986156707,0.40856373399248963 0.46923393948469044,0.4069569178089597 0.4685540206128832,0.405325573319109 C 0.467876967294314,0.40371331148975953 0.4679178605842104,0.40211947006175885 0.4686768232836621,0.4005392627861959 C 0.4694273291077947,0.3989754979064273 0.46946565897340825,0.39739446732096373 0.4687919279837207,0.3957914232513971 C 0.4680896631260219,0.3941316785387224 0.4681273784006927,0.3924889226889682 0.46890518706535655,0.39085822256496094 C 0.4696745403155869,0.38924516747760163 0.46971008079302495,0.3876161031657413 0.4690119152244557,0.38596613760740606 C 0.4683493292061565,0.3844092178107879 0.4683815256009641,0.3828668008951031 0.4691086010935027,0.38133425503741536 C 0.469896948587233,0.3796740297279577 0.46993061559693877,0.37799863909840564 0.46920970322344824,0.37630305201050696 C 0.468524859595069,0.3746999783780385 0.4685558359495429,0.3731108580587707 0.46930272530775663,0.37153091898111357 C 0.47004282583298235,0.36996829885404975 0.47007293423519625,0.3683921163832822 0.46939314092885526,0.36679763834911805 C 0.46868791908207613,0.3651495194753621 0.46871882263896303,0.36351532112310014 0.469485944401794,0.3618901358530182 C 0.47026302764112804,0.36024873502956556 0.4702943796263433,0.358593211689871 0.46958009450633226,0.3569185943564445 C 0.4688873356534235,0.355298309982471 0.4689181768035594,0.35369191801884164 0.469672710571613,0.3520945945278349 C 0.47042159042826887,0.3505158594228009 0.4704529627136381,0.34892299265731114 0.46976692163757366,0.3473112109093314 C 0.4690729725402337,0.34568253834850105 0.46910596532901616,0.34406872740463834 0.469865999080088,0.342464931861089 C 0.47062118091643235,0.3408801270590337 0.47065551925483234,0.33927985453656306 0.4699691172120925,0.3376593087324189 C 0.4692759666724124,0.3360220462358643 0.46931283998025264,0.3344013933378819 0.4700798478648404,0.3327924832756734 C 0.47082704808891573,0.3312359204754853 0.4708653268948467,0.32966211496945996 0.4701947992325211,0.3280663406758447 C 0.469504408538042,0.32641982549938137 0.46954704100024575,0.32479251413523713 0.4703228246428944,0.32317951982547743 C 0.4710956653530822,0.3215862826902276 0.47114152622927286,0.319972387502085 0.4704605449900402,0.3183329877914128 C 0.46978900073747226,0.31670985927466594 0.4698385430603432,0.3151090471201719 0.47060932073247996,0.3135257441461767 C 0.4713783409582788,0.3119618605349415 0.4714320177627771,0.31037379818229216 0.47077051233550266,0.3087567881936745 C 0.47010583879783363,0.3071223096158855 0.4701653431284913,0.3055146347913646 0.4709492040168564,0.3039289359300048 C 0.47173248006914914,0.3023630077756632 0.4717972424159319,0.3007679073922578 0.4711436855362202,0.2991388447502794 C 0.47048844500661413,0.29749200893218497 0.47056041858875325,0.2958775936474561 0.4713598224167353,0.29429075086462436 C 0.4721599343183077,0.2927240143166848 0.4722383899322484,0.2911219374011565 0.47159542485796535,0.28947970913825327 C 0.470952362697127,0.28781925526584473 0.471039559940491,0.2861980794320421 0.4718572784382666,0.2846113133036895 C 0.47267712371173515,0.2830449721735809 0.4727721321522011,0.2814358344475187 0.47214258906661954,0.2797790679423549 C 0.4715263565082689,0.2781350110643072 0.4716297175873347,0.2765375132321338 0.4724529826934476,0.27498177721687245 C 0.4732797676939208,0.273446086406638 0.47339202285552423,0.27185983020693627 0.4727900852765008,0.27021824514702597 C 0.4721909664507974,0.26855672657356183 0.47231509338299876,0.2669511210341221 0.4731628388218512,0.26539660695258893 C 0.47403976043146057,0.2638193930071098 0.4741781460667745,0.2621798431881941 0.4735784112949157,0.26047303398626437 C 0.4730002169063607,0.2587949456696258 0.47314794359998336,0.25718340091045966 0.474022034993771,0.2556335602973835 C 0.47490132946504926,0.2541057178299223 0.47506017578022497,0.2525063229663167 0.47449905094911204,0.25083057278088683 C 0.4739541465816373,0.2491664714286591 0.47412431026953517,0.24757902038835325 0.4750100530082859,0.24606345260116436 C 0.47590151195983066,0.24456957775880037 0.47608319066706156,0.24299386565872977 0.47555563470465073,0.24133158449376604 C 0.47503048393965686,0.23963451059138113 0.47522941638746224,0.23802704590212534 0.47615302943510623,0.23650436326692031 C 0.47708324415082937,0.23500413883510826 0.47729476359377665,0.23340863537238343 0.4767882229492844,0.2317130616388038 C 0.4762991364626125,0.23002825154155107 0.47652345747053443,0.22844448694607522 0.4774618596010291,0.22695701186383355 C 0.4784330838176102,0.22545230865715077 0.47867701813502744,0.22383772512435687 0.4781943950793281,0.2221084127287406 C 0.47774232707611763,0.22043472980305215 0.4779932555280256,0.21887407771459122 0.4789479339642353,0.21742176988084858 C 0.4799364564333276,0.21595284779622453 0.48020817005026706,0.2143615321871704 0.47976389076134573,0.21264304438971932 C 0.47933836498146376,0.21093427027526898 0.4796244990761597,0.2093543853961242 0.4806231522959056,0.20789864541439193 C 0.48163055871062677,0.2064654400290129 0.48193134572182594,0.20489674499531182 0.48152641658216017,0.20318784957810204 C 0.4811305119605208,0.20144322761210834 0.48145469462596147,0.19984463387771131 0.48249993808745373,0.19838726785499344 C 0.48352786793626207,0.19698969330454955 0.48385905912845484,0.19544293352839176 0.4834945062193592,0.19374234366212872 C 0.483140207752221,0.19200544997200894 0.48349608446618075,0.19042886111230117 0.48456320504630634,0.18900784264294107 C 0.48564083762516363,0.18760971581554395 0.48601314090117265,0.1860438848052617 0.4856812328877807,0.1843056474774678 C 0.48536961327172484,0.18257509718432632 0.4857585943825247,0.18101976361246574 0.48684934431657007,0.17963497615069235 C 0.4879512440415027,0.1782727219799587 0.48835715427737336,0.17672762535572548 0.48806829395813023,0.1749950464079873 C 0.48779329304568436,0.17322512229842948 0.48822746029291836,0.1716507690262099 0.4893720994885767,0.17026725886465366 C 0.4905000805277517,0.1689407366184342 0.49094105317873965,0.1674155780376077 0.4906963416666695,0.16568720312540136 C 0.49046679546722316,0.1639207432215917 0.49093745290888063,0.1623662911800767 0.4921097273591376,0.1610191790368668 C 0.49326530221987686,0.15972778439461258 0.49374236836508845,0.15822149508658342 0.4935423584073761,0.1564957877797591 C 0.4933588306490729,0.15473121945533347 0.4938670358231655,0.15319557238664538 0.49506850005164965,0.15188423508036736 C 0.4962837523724442,0.15059535805152638 0.49681137237592266,0.14906881434807073 0.49665294448612046,0.14730001981375382 C 0.4965165921497728,0.14553576430377663 0.49706389807607027,0.14401804300145354 0.49829650580517176,0.1427422982438935 C 0.49954357808953115,0.14148864364116684 0.5001108403732838,0.1399794654803397 0.49999999612481755,0.13821023175327005 C 0.49999999741654505,0.1365435617565492 0.49999999870827255,0.13487689175982834 0.5,0.13321022176310748 C 0.4808035103797128,0.17430789520629297 0.47248338953626234,0.21540556864947846 0.46853825241392544,0.2607143711411545 C 0.46590816099903415,0.2909202394689385 0.4652225067935266,0.3229977207071628 0.464554953484596,0.3581945567961208 C 0.4632198468667348,0.4285882289740368 0.46195714383518127,0.5114593205548877 0.44535615388748034,0.6167897670610216 C 0.44702282051689407,0.6167897670610216 0.44868948714630785,0.6167897670610216 0.45035615377572163,0.6167897670610216 "  /><path  id="PB" d="M 0.5546438461125196,0.6167897670610216 C 0.5380428561648187,0.5114593205548877 0.5367801531332652,0.4285882289740368 0.5354450465154039,0.3581945567961208 C 0.5347774932064734,0.3229977207071628 0.5340918390009659,0.2909202394689385 0.5314617475860746,0.2607143711411545 C 0.5275166104637377,0.21540556864947846 0.5191964896202872,0.17430789520629297 0.5,0.13321022176310748 C 0.5,0.29440340352907884 0.5,0.45559658529505026 0.5,0.6167897670610216 C -2.4817853846291604,0.6167897670610216 -0.9635707692583202,0.6167897670610216 0.5546438461125196,0.6167897670610216 "  /><path d="M 0.5496438462242783,0.6167897670610216 C 0.5496438462242783,0.6167897670610216 0.5496438462242783,0.6167897670610216 0.5496438462242783,0.6167897670610216 C 0.54769079327217,0.6137865666303036 0.5471917849381884,0.6105585876647299 0.5481453227181202,0.6070961366587001 C 0.5486110497851889,0.6054448696140156 0.5483798704369891,0.6038977374136585 0.547451090450191,0.6024500940748608 C 0.5464731112409454,0.6009181834222959 0.5462337496961798,0.5992784522511757 0.5467322870217197,0.5975259765073291 C 0.5472340126624792,0.5957925433651354 0.547001991034618,0.5941636244725323 0.5460355253854703,0.5926343282442346 C 0.5451410656833209,0.5912120017419451 0.5449300997793863,0.5896946455506472 0.5454019941505885,0.5880777031038652 C 0.5459082397687491,0.5863712572739138 0.5456900815931964,0.5847630808950479 0.5447468645027169,0.5832483446710109 C 0.5438160477381945,0.5817458970849355 0.5436048603014001,0.5801483200202724 0.544112668004,0.578450816010127 C 0.5446232131420534,0.5767717196602705 0.5444188707684945,0.5751846694271012 0.5434990272504696,0.5736848994554236 C 0.5425912259113059,0.5721973229237358 0.5423936029236011,0.570620727025827 0.5429055648325779,0.5689503773004972 C 0.5434522534626735,0.5671952879622612 0.5432495009189777,0.5655315286011148 0.54229669834284,0.5639541030070899 C 0.5414119683172945,0.5624817956789487 0.541227807145346,0.5609265328657205 0.5417436617975695,0.5592836441686972 C 0.5422617948188999,0.5576585115891518 0.5420839681487053,0.5561134811154483 0.5412096477798428,0.5546439130762291 C 0.5402930636771048,0.5530954940691291 0.5401109229993338,0.551465029709479 0.5406626787845763,0.5497476237710112 C 0.54121671270869,0.5480495859402801 0.5410414304597829,0.546430504079645 0.5401363056715192,0.5448855161440767 C 0.539243503031203,0.5433536643434091 0.539074928468978,0.5417458780532142 0.5396300757614515,0.5400573291486573 C 0.5401872372933296,0.5383877705600874 0.5400252196724317,0.5367911928837912 0.5391435363656261,0.5352628016540018 C 0.5382737555436254,0.5337474408733978 0.5381181441186997,0.5321619848544589 0.5386762347952954,0.5305016725293581 C 0.5392360776319758,0.5288599737435242 0.5390867216576678,0.5272855524254013 0.5382277183617121,0.5257736806439748 C 0.5373306853067512,0.5241868163053072 0.5371791943861812,0.5225317128113974 0.5377727906781754,0.5208033999455375 C 0.5383349275104979,0.5191897332902515 0.5381979757361331,0.5176377566250745 0.5373615240937915,0.5161428094194835 C 0.5364879036668264,0.5145737511434584 0.5363492083293816,0.5129422174885284 0.5369450215843099,0.5112433090173707 C 0.5375421767531123,0.5095641151622837 0.5374097985537083,0.5079445511283491 0.5365474894590907,0.5063797534225885 C 0.5356970613343043,0.5048289206968615 0.5355708213336519,0.503221223104449 0.536168390362918,0.5015518327868728 C 0.5367669989945658,0.49990171789663534 0.5366467182496751,0.49830578352356913 0.5358071869294629,0.4967592371337238 C 0.5349790493719243,0.4952265395304376 0.5348645489398055,0.49364226515454196 0.5354633417923962,0.49200165648664174 C 0.5360628741008371,0.4903798852527405 0.5359539750385002,0.4888071676518397 0.5351363175853888,0.4872787808691268 C 0.534285055225494,0.48568024434147267 0.5341759852872348,0.4840325772096799 0.5348087802374799,0.48233083158817047 C 0.5354087098363967,0.48073742504871886 0.5353107627390354,0.47918813882457856 0.5345146448137594,0.4776783204645251 C 0.533685581201858,0.4760992592874317 0.5335876726274753,0.4744760951477205 0.5342206250746575,0.47280395374142403 C 0.5348537056696623,0.47115153235137497 0.534761218459789,0.46954077186779275 0.5339428857092479,0.4679668352344465 C 0.5331355741813519,0.4664076707112932 0.533048297885039,0.46480919254009656 0.5336807947327068,0.46316660054797126 C 0.5343130762382431,0.46154322210093396 0.5342308004011067,0.45995690484279106 0.5334337201498953,0.458402885119445 C 0.5326059770478045,0.45678276449945315 0.532524541714996,0.45512596129613014 0.533189169604072,0.45342750018860134 C 0.5338199831257108,0.4518330296780207 0.5337473120399912,0.450271293891616 0.5329709381182369,0.448737602992572 C 0.5321643728738639,0.4471387445136858 0.5320925811209312,0.4455075474064842 0.5327553472713675,0.443839113244285 C 0.5334170914662291,0.4421905645016144 0.5333498830772161,0.4405722898088617 0.5325535202799354,0.43897942954489383 C 0.5317674543654796,0.4374022557758655 0.5317045838796524,0.43579676196741585 0.5323647200246291,0.4341581268789514 C 0.5330234440329104,0.4325387957624668 0.532964665986634,0.43094594124411495 0.5321882093774251,0.42937478003863916 C 0.5314214058454021,0.42781916694223154 0.5313664747750415,0.426238810119772 0.5320232512102999,0.4246289638161384 C 0.5326782283021625,0.42303784167218644 0.5326268987440829,0.4214698409514137 0.5318691083952303,0.4199202530036305 C 0.5310831183715495,0.41830964811499494 0.531032829882035,0.4166763907529969 0.5317180919121482,0.4150155763040826 C 0.5324009287215725,0.41337450766633677 0.5323540561185891,0.41175455281428547 0.5315773333464442,0.41015084708133753 C 0.5308098013843293,0.40856373399248963 0.5307660605153095,0.4069569178089597 0.5314459793871168,0.405325573319109 C 0.5321230327056861,0.40371331148975953 0.5320821394157895,0.40211947006175885 0.5313231767163379,0.4005392627861959 C 0.5305726708922053,0.3989754979064273 0.5305343410265917,0.39739446732096373 0.5312080720162793,0.3957914232513971 C 0.5319103368739782,0.3941316785387224 0.5318726215993073,0.3924889226889682 0.5310948129346434,0.39085822256496094 C 0.5303254596844131,0.38924516747760163 0.530289919206975,0.3876161031657413 0.5309880847755444,0.38596613760740606 C 0.5316506707938435,0.3844092178107879 0.531618474399036,0.3828668008951031 0.5308913989064973,0.38133425503741536 C 0.5301030514127669,0.3796740297279577 0.5300693844030613,0.37799863909840564 0.5307902967765518,0.37630305201050696 C 0.5314751404049309,0.3746999783780385 0.531444164050457,0.3731108580587707 0.5306972746922434,0.37153091898111357 C 0.5299571741670177,0.36996829885404975 0.5299270657648038,0.3683921163832822 0.5306068590711448,0.36679763834911805 C 0.5313120809179239,0.3651495194753621 0.531281177361037,0.36351532112310014 0.530514055598206,0.3618901358530182 C 0.529736972358872,0.36024873502956556 0.5297056203736568,0.358593211689871 0.5304199054936678,0.3569185943564445 C 0.5311126643465764,0.355298309982471 0.5310818231964406,0.35369191801884164 0.530327289428387,0.3520945945278349 C 0.5295784095717311,0.3505158594228009 0.5295470372863619,0.34892299265731114 0.5302330783624263,0.3473112109093314 C 0.5309270274597663,0.34568253834850105 0.5308940346709838,0.34406872740463834 0.530134000919912,0.342464931861089 C 0.5293788190835677,0.3408801270590337 0.5293444807451677,0.33927985453656306 0.5300308827879074,0.3376593087324189 C 0.5307240333275876,0.3360220462358643 0.5306871600197474,0.3344013933378819 0.5299201521351595,0.3327924832756734 C 0.5291729519110843,0.3312359204754853 0.5291346731051533,0.32966211496945996 0.529805200767479,0.3280663406758447 C 0.530495591461958,0.32641982549938137 0.5304529589997542,0.32479251413523713 0.5296771753571057,0.32317951982547743 C 0.5289043346469178,0.3215862826902276 0.5288584737707271,0.319972387502085 0.5295394550099598,0.3183329877914128 C 0.5302109992625277,0.31670985927466594 0.5301614569396569,0.3151090471201719 0.52939067926752,0.3135257441461767 C 0.5286216590417212,0.3119618605349415 0.5285679822372229,0.31037379818229216 0.5292294876644974,0.3087567881936745 C 0.5298941612021664,0.3071223096158855 0.5298346568715087,0.3055146347913646 0.5290507959831436,0.3039289359300048 C 0.5282675199308509,0.3023630077756632 0.5282027575840681,0.3007679073922578 0.5288563144637798,0.2991388447502794 C 0.5295115549933859,0.29749200893218497 0.5294395814112467,0.2958775936474561 0.5286401775832648,0.29429075086462436 C 0.5278400656816923,0.2927240143166848 0.5277616100677516,0.2911219374011565 0.5284045751420346,0.28947970913825327 C 0.529047637302873,0.28781925526584473 0.5289604400595089,0.2861980794320421 0.5281427215617334,0.2846113133036895 C 0.5273228762882649,0.2830449721735809 0.5272278678477988,0.2814358344475187 0.5278574109333805,0.2797790679423549 C 0.5284736434917311,0.2781350110643072 0.5283702824126653,0.2765375132321338 0.5275470173065524,0.27498177721687245 C 0.5267202323060791,0.273446086406638 0.5266079771444758,0.27185983020693627 0.5272099147234992,0.27021824514702597 C 0.5278090335492026,0.26855672657356183 0.5276849066170013,0.2669511210341221 0.5268371611781488,0.26539660695258893 C 0.5259602395685394,0.2638193930071098 0.5258218539332256,0.2621798431881941 0.5264215887050843,0.26047303398626437 C 0.5269997830936393,0.2587949456696258 0.5268520564000166,0.25718340091045966 0.5259779650062291,0.2556335602973835 C 0.5250986705349507,0.2541057178299223 0.524939824219775,0.2525063229663167 0.525500949050888,0.25083057278088683 C 0.5260458534183627,0.2491664714286591 0.5258756897304648,0.24757902038835325 0.5249899469917141,0.24606345260116436 C 0.5240984880401693,0.24456957775880037 0.5239168093329385,0.24299386565872977 0.5244443652953492,0.24133158449376604 C 0.5249695160603431,0.23963451059138113 0.5247705836125378,0.23802704590212534 0.5238469705648938,0.23650436326692031 C 0.5229167558491706,0.23500413883510826 0.5227052364062234,0.23340863537238343 0.5232117770507156,0.2317130616388038 C 0.5237008635373874,0.23002825154155107 0.5234765425294656,0.22844448694607522 0.5225381403989708,0.22695701186383355 C 0.5215669161823898,0.22545230865715077 0.5213229818649725,0.22383772512435687 0.5218056049206719,0.2221084127287406 C 0.5222576729238824,0.22043472980305215 0.5220067444719745,0.21887407771459122 0.5210520660357647,0.21742176988084858 C 0.5200635435666724,0.21595284779622453 0.5197918299497329,0.2143615321871704 0.5202361092386543,0.21264304438971932 C 0.5206616350185362,0.21093427027526898 0.5203755009238402,0.2093543853961242 0.5193768477040944,0.20789864541439193 C 0.5183694412893732,0.2064654400290129 0.5180686542781741,0.20489674499531182 0.5184735834178398,0.20318784957810204 C 0.5188694880394792,0.20144322761210834 0.5185453053740385,0.19984463387771131 0.5175000619125463,0.19838726785499344 C 0.516472132063738,0.19698969330454955 0.5161409408715452,0.19544293352839176 0.5165054937806408,0.19374234366212872 C 0.516859792247779,0.19200544997200894 0.5165039155338192,0.19042886111230117 0.5154367949536937,0.18900784264294107 C 0.5143591623748364,0.18760971581554395 0.5139868590988274,0.1860438848052617 0.5143187671122194,0.1843056474774678 C 0.5146303867282751,0.18257509718432632 0.5142414056174753,0.18101976361246574 0.51315065568343,0.17963497615069235 C 0.5120487559584973,0.1782727219799587 0.5116428457226266,0.17672762535572548 0.5119317060418698,0.1749950464079873 C 0.5122067069543157,0.17322512229842948 0.5117725397070816,0.1716507690262099 0.5106279005114234,0.17026725886465366 C 0.5094999194722483,0.1689407366184342 0.5090589468212603,0.1674155780376077 0.5093036583333306,0.16568720312540136 C 0.5095332045327768,0.1639207432215917 0.5090625470911194,0.1623662911800767 0.5078902726408624,0.1610191790368668 C 0.5067346977801231,0.15972778439461258 0.5062576316349116,0.15822149508658342 0.5064576415926239,0.1564957877797591 C 0.5066411693509272,0.15473121945533347 0.5061329641768345,0.15319557238664538 0.5049314999483503,0.15188423508036736 C 0.5037162476275558,0.15059535805152638 0.5031886276240773,0.14906881434807073 0.5033470555138795,0.14730001981375382 C 0.5034834078502273,0.14553576430377663 0.5029361019239298,0.14401804300145354 0.5017034941948282,0.1427422982438935 C 0.5004564219104688,0.14148864364116684 0.4998891596267162,0.1399794654803397 0.5000000038751824,0.13821023175327005 C 0.500000002583455,0.1365435617565492 0.5000000012917274,0.13487689175982834 0.5,0.13321022176310748 C 0.5191964896202872,0.17430789520629297 0.5275166104637377,0.21540556864947846 0.5314617475860746,0.2607143711411545 C 0.5340918390009659,0.2909202394689385 0.5347774932064734,0.3229977207071628 0.5354450465154039,0.3581945567961208 C 0.5367801531332652,0.4285882289740368 0.5380428561648187,0.5114593205548877 0.5546438461125196,0.6167897670610216 C 0.552977179483106,0.6167897670610216 0.5513105128536921,0.6167897670610216 0.5496438462242783,0.6167897670610216 "  /><path d="M 0.4474999933121726,0.6167897670610216 C 0.4824999977707242,0.6167897670610216 0.5175000022292758,0.6167897670610216 0.5525000066878274,0.6167897670610216 C 0.5532759642494599,0.6167897670610216 0.5535000067353248,0.6170138095468866 0.5535000067353248,0.6177897671085191 C 0.5535000067353248,0.6204564336690149 0.5535000067353248,0.6231231002295109 0.5535000067353248,0.6257897667900068 C 0.5535000067353248,0.6265657243516393 0.5532759642494599,0.6267897668375042 0.5525000066878274,0.6267897668375042 C 0.5175000022292758,0.6267897668375042 0.4824999977707242,0.6267897668375042 0.4474999933121726,0.6267897668375042 C 0.44672403575054015,0.6267897668375042 0.44649999326467515,0.6265657243516393 0.44649999326467515,0.6257897667900068 C 0.44649999326467515,0.6231231002295109 0.44649999326467515,0.6204564336690149 0.44649999326467515,0.6177897671085191 C 0.44649999326467515,0.6170138095468866 0.44672403575054015,0.6167897670610216 0.4474999933121726,0.6167897670610216 "  /><g id="hilt" ><path d="M 0.4875662660397679,0.6267897668375042 C 0.4901884192345257,0.690008498357114 0.4901884192345257,0.7532272298767237 0.4875662660397679,0.8183616729209078 C 0.4958554220132559,0.8183616729209078 0.5041445779867441,0.8183616729209078 0.5124337339602321,0.8183616729209078 C 0.5098115807654743,0.7532272298767237 0.5098115807654743,0.690008498357114 0.5124337339602321,0.6267897668375042 "  /><g id="wraps" ><path d="M 0.5124337339602321,0.6267897668375042 C 0.5063709395054721,0.635806579641382 0.49832705114340226,0.6424102259006799 0.4883020688740224,0.6466007056153977 C 0.4884528872285214,0.6511984968332697 0.48858984511433534,0.6557973456966714 0.4887129425314637,0.6603979884294733 C 0.4984249587576205,0.6561108099273911 0.5061551079646234,0.6495045866286517 0.5119033901524725,0.640579318533255 C 0.5120663109530403,0.6359823104854244 0.5122430922222936,0.6313860386614644 0.5124337339602321,0.6267897668375042 "  /><path d="M 0.5114562091568252,0.6543732875722283 C 0.5059676319484729,0.6632257588128737 0.4984957800217954,0.669836674442114 0.4890406533767927,0.6742060344599494 C 0.48913602985655025,0.678811001155422 0.48921754586762256,0.6834184979441651 0.4892852014100093,0.6880292610500491 C 0.49853951493592674,0.6835922367880714 0.5058085114570204,0.6769745135372707 0.5110921909732904,0.6681760912976469 C 0.5111996698991166,0.6635731934588529 0.5113210092936282,0.6589725042916702 0.5114562091568252,0.6543732875722283 "  /><path d="M 0.5108113356018679,0.6819921470527331 C 0.505677746490266,0.690755268145065 0.4985561635000145,0.6973819143084855 0.4894465866311135,0.7018720855429946 C 0.48948652123612946,0.7064901175070311 0.48951259537246017,0.711112152012079 0.4895248090401053,0.7157389252820087 C 0.49854572571405875,0.711210124346579 0.5055753370482097,0.7045724399794794 0.5106136430425577,0.6958258721807096 C 0.5106656800936424,0.6912111947599887 0.5107315776134125,0.68660019845862 0.5108113356018679,0.681992147052733 "  /><path d="M 0.51049911329536,0.709681684024799 C 0.5055012831308513,0.7184304463837363 0.49850820157805953,0.7250812842455746 0.4895198686369848,0.7296341976103138 C 0.48950436136725917,0.7342711846338776 0.48947499362884817,0.7389136466461937 0.4894317654217518,0.7435623198711326 C 0.49844359109201675,0.7389998113486946 0.505455584738191,0.7323337047010584 0.5104677463602746,0.7235639999282238 C 0.5104643415366177,0.7189316531346127 0.5104747971816461,0.7143044599080945 0.51049911329536,0.709681684024799 "  /><path d="M 0.5105195422373017,0.7374772372342067 C 0.5054382418702288,0.7462866322746682 0.4983518942559305,0.7529701229991618 0.4892604993944065,0.7575277094076875 C 0.4891895502499395,0.7621895412817422 0.489104740636787,0.76685832059229 0.48900607055494894,0.7715347835632013 C 0.49823311106980084,0.7669966365401988 0.5054492545269649,0.7602936464477884 0.5106545009264409,0.75142581328597 C 0.5105956542280425,0.7467699073285052 0.5105506679983294,0.7421206273858743 0.5105195422373017,0.7374772372342067 "  /><path d="M 0.5108726224276927,0.7654141454267367 C 0.5054886227083988,0.7743591645636414 0.4980872415336275,0.781083769315028 0.48866847890337894,0.7855879596808963 C 0.4885420878841701,0.7902805261964053 0.488401836396276,0.7949815125961482 0.48824772443969644,0.7996916551039955 C 0.4979142856474107,0.7952359386668719 0.5055563464145307,0.7884876039654497 0.5111739067410568,0.7794466509997289 C 0.5110596181679168,0.7747612960874469 0.510959190063462,0.7700840396377396 0.5108726224276927,0.7654141454267367 "  /><path d="M 0.5115583538665334,0.7935277473481696 C 0.505652425645361,0.8026833819964363 0.49771424341115034,0.8094575619389535 0.48774380716390175,0.813850287175721 C 0.48774380716390175,0.813850287175721 0.48774380716390175,0.813850287175721 0.48774380716390175,0.813850287175721 C 0.49678948075439266,0.8172410356985821 0.5049427133425108,0.8136744286633731 0.5120259638041222,0.807661851815281 C 0.5118562333562405,0.8029411581572184 0.5117003633770443,0.7982300354094715 0.5115583538665334,0.7935277473481696 "  /></g><path d="M 0.4855927727781954,0.8183616729209078 C 0.49519759092606513,0.8183616729209078 0.5048024090739349,0.8183616729209078 0.5144072272218047,0.8183616729209078 C 0.5167350998163687,0.8183616729209078 0.5174072272478817,0.8190338003524208 0.5174072272478817,0.8213616729469848 C 0.5174072272478817,0.8226950061884276 0.5174072272478817,0.8240283394298705 0.5174072272478817,0.8253616726713133 C 0.5174072272478817,0.8276895452658773 0.5167350998163687,0.8283616726973904 0.5144072272218047,0.8283616726973904 C 0.5048024090739349,0.8283616726973904 0.49519759092606513,0.8283616726973904 0.4855927727781954,0.8283616726973904 C 0.48326490018363133,0.8283616726973904 0.48259277275211837,0.8276895452658773 0.48259277275211837,0.8253616726713133 C 0.48259277275211837,0.8240283394298705 0.48259277275211837,0.8226950061884276 0.48259277275211837,0.8213616729469848 C 0.48259277275211837,0.8190338003524208 0.48326490018363133,0.8183616729209078 0.4855927727781954,0.8183616729209078 "  /></g><g id="top" ></g></defs><g id="uglow" ><use xlink:href="#OB"  fill="#ffffff"  fill-opacity="0.5"  filter="url(#NB)" /><use xlink:href="#PB"  fill="#ffffff"  fill-opacity="0.5"  filter="url(#NB)" /></g><use xlink:href="#OB"  fill="url(#BB)" /><path d="M 0.45035615377572163,0.6167897670610216 C 0.45035615377572163,0.6167897670610216 0.45035615377572163,0.6167897670610216 0.45035615377572163,0.6167897670610216 C 0.45230920672783004,0.6137865666303036 0.4528082150618116,0.6105585876647299 0.4518546772818798,0.6070961366587001 C 0.45138895021481107,0.6054448696140156 0.45162012956301084,0.6038977374136585 0.45254890954980903,0.6024500940748608 C 0.45352688875905456,0.6009181834222959 0.4537662503038203,0.5992784522511757 0.45326771297828033,0.5975259765073291 C 0.4527659873375208,0.5957925433651354 0.45299800896538206,0.5941636244725323 0.45396447461452966,0.5926343282442346 C 0.4548589343166792,0.5912120017419451 0.45506990022061367,0.5896946455506472 0.4545980058494115,0.5880777031038652 C 0.45409176023125086,0.5863712572739138 0.4543099184068036,0.5847630808950479 0.455253135497283,0.5832483446710109 C 0.4561839522618055,0.5817458970849355 0.45639513969859996,0.5801483200202724 0.455887331996,0.578450816010127 C 0.4553767868579465,0.5767717196602705 0.45558112923150557,0.5751846694271012 0.4565009727495304,0.5736848994554236 C 0.4574087740886941,0.5721973229237358 0.45760639707639894,0.570620727025827 0.4570944351674221,0.5689503773004972 C 0.45654774653732655,0.5671952879622612 0.4567504990810223,0.5655315286011148 0.45770330165716,0.5639541030070899 C 0.45858803168270545,0.5624817956789487 0.4587721928546539,0.5609265328657205 0.45825633820243056,0.5592836441686972 C 0.4577382051811001,0.5576585115891518 0.45791603185129476,0.5561134811154483 0.4587903522201572,0.5546439130762291 C 0.4597069363228951,0.5530954940691291 0.45988907700066617,0.551465029709479 0.45933732121542364,0.5497476237710112 C 0.45878328729131007,0.5480495859402801 0.4589585695402171,0.546430504079645 0.45986369432848084,0.5448855161440767 C 0.460756496968797,0.5433536643434091 0.460925071531022,0.5417458780532142 0.4603699242385485,0.5400573291486573 C 0.45981276270667043,0.5383877705600874 0.45997478032756833,0.5367911928837912 0.460856463634374,0.5352628016540018 C 0.4617262444563746,0.5337474408733978 0.4618818558813002,0.5321619848544589 0.4613237652047047,0.5305016725293581 C 0.4607639223680242,0.5288599737435242 0.46091327834233226,0.5272855524254013 0.46177228163828793,0.5257736806439748 C 0.46266931469324873,0.5241868163053072 0.4628208056138188,0.5225317128113974 0.4622272093218246,0.5208033999455375 C 0.46166507248950206,0.5191897332902515 0.46180202426386685,0.5176377566250745 0.46263847590620855,0.5161428094194835 C 0.4635120963331736,0.5145737511434584 0.4636507916706184,0.5129422174885284 0.46305497841569015,0.5112433090173707 C 0.4624578232468877,0.5095641151622837 0.46259020144629176,0.5079445511283491 0.4634525105409093,0.5063797534225885 C 0.4643029386656957,0.5048289206968615 0.46442917866634814,0.503221223104449 0.463831609637082,0.5015518327868728 C 0.4632330010054342,0.49990171789663534 0.46335328175032486,0.49830578352356913 0.4641928130705371,0.4967592371337238 C 0.4650209506280757,0.4952265395304376 0.4651354510601945,0.49364226515454196 0.4645366582076038,0.49200165648664174 C 0.46393712589916297,0.4903798852527405 0.4640460249614998,0.4888071676518397 0.4648636824146112,0.4872787808691268 C 0.46571494477450603,0.48568024434147267 0.4658240147127653,0.4840325772096799 0.4651912197625201,0.48233083158817047 C 0.4645912901636034,0.48073742504871886 0.4646892372609646,0.47918813882457856 0.4654853551862406,0.4776783204645251 C 0.46631441879814195,0.4760992592874317 0.46641232737252464,0.4744760951477205 0.46577937492534244,0.47280395374142403 C 0.4651462943303377,0.47115153235137497 0.4652387815402111,0.46954077186779275 0.46605711429075214,0.4679668352344465 C 0.466864425818648,0.4664076707112932 0.46695170211496095,0.46480919254009656 0.4663192052672932,0.46316660054797126 C 0.46568692376175685,0.46154322210093396 0.46576919959889335,0.45995690484279106 0.4665662798501046,0.458402885119445 C 0.46739402295219545,0.45678276449945315 0.4674754582850041,0.45512596129613014 0.46681083039592797,0.45342750018860134 C 0.4661800168742892,0.4518330296780207 0.4662526879600089,0.450271293891616 0.4670290618817631,0.448737602992572 C 0.46783562712613613,0.4471387445136858 0.46790741887906884,0.4455075474064842 0.4672446527286325,0.443839113244285 C 0.46658290853377093,0.4421905645016144 0.46665011692278396,0.4405722898088617 0.4674464797200646,0.43897942954489383 C 0.46823254563452044,0.4374022557758655 0.4682954161203477,0.43579676196741585 0.46763527997537097,0.4341581268789514 C 0.46697655596708965,0.4325387957624668 0.46703533401336605,0.43094594124411495 0.467811790622575,0.42937478003863916 C 0.46857859415459796,0.42781916694223154 0.46863352522495855,0.426238810119772 0.4679767487897001,0.4246289638161384 C 0.46732177169783745,0.42303784167218644 0.46737310125591713,0.4214698409514137 0.46813089160476967,0.4199202530036305 C 0.46891688162845047,0.41830964811499494 0.4689671701179649,0.4166763907529969 0.4682819080878518,0.4150155763040826 C 0.4675990712784275,0.41337450766633677 0.46764594388141095,0.41175455281428547 0.46842266665355575,0.41015084708133753 C 0.4691901986156707,0.40856373399248963 0.46923393948469044,0.4069569178089597 0.4685540206128832,0.405325573319109 C 0.467876967294314,0.40371331148975953 0.4679178605842104,0.40211947006175885 0.4686768232836621,0.4005392627861959 C 0.4694273291077947,0.3989754979064273 0.46946565897340825,0.39739446732096373 0.4687919279837207,0.3957914232513971 C 0.4680896631260219,0.3941316785387224 0.4681273784006927,0.3924889226889682 0.46890518706535655,0.39085822256496094 C 0.4696745403155869,0.38924516747760163 0.46971008079302495,0.3876161031657413 0.4690119152244557,0.38596613760740606 C 0.4683493292061565,0.3844092178107879 0.4683815256009641,0.3828668008951031 0.4691086010935027,0.38133425503741536 C 0.469896948587233,0.3796740297279577 0.46993061559693877,0.37799863909840564 0.46920970322344824,0.37630305201050696 C 0.468524859595069,0.3746999783780385 0.4685558359495429,0.3731108580587707 0.46930272530775663,0.37153091898111357 C 0.47004282583298235,0.36996829885404975 0.47007293423519625,0.3683921163832822 0.46939314092885526,0.36679763834911805 C 0.46868791908207613,0.3651495194753621 0.46871882263896303,0.36351532112310014 0.469485944401794,0.3618901358530182 C 0.47026302764112804,0.36024873502956556 0.4702943796263433,0.358593211689871 0.46958009450633226,0.3569185943564445 C 0.4688873356534235,0.355298309982471 0.4689181768035594,0.35369191801884164 0.469672710571613,0.3520945945278349 C 0.47042159042826887,0.3505158594228009 0.4704529627136381,0.34892299265731114 0.46976692163757366,0.3473112109093314 C 0.4690729725402337,0.34568253834850105 0.46910596532901616,0.34406872740463834 0.469865999080088,0.342464931861089 C 0.47062118091643235,0.3408801270590337 0.47065551925483234,0.33927985453656306 0.4699691172120925,0.3376593087324189 C 0.4692759666724124,0.3360220462358643 0.46931283998025264,0.3344013933378819 0.4700798478648404,0.3327924832756734 C 0.47082704808891573,0.3312359204754853 0.4708653268948467,0.32966211496945996 0.4701947992325211,0.3280663406758447 C 0.469504408538042,0.32641982549938137 0.46954704100024575,0.32479251413523713 0.4703228246428944,0.32317951982547743 C 0.4710956653530822,0.3215862826902276 0.47114152622927286,0.319972387502085 0.4704605449900402,0.3183329877914128 C 0.46978900073747226,0.31670985927466594 0.4698385430603432,0.3151090471201719 0.47060932073247996,0.3135257441461767 C 0.4713783409582788,0.3119618605349415 0.4714320177627771,0.31037379818229216 0.47077051233550266,0.3087567881936745 C 0.47010583879783363,0.3071223096158855 0.4701653431284913,0.3055146347913646 0.4709492040168564,0.3039289359300048 C 0.47173248006914914,0.3023630077756632 0.4717972424159319,0.3007679073922578 0.4711436855362202,0.2991388447502794 C 0.47048844500661413,0.29749200893218497 0.47056041858875325,0.2958775936474561 0.4713598224167353,0.29429075086462436 C 0.4721599343183077,0.2927240143166848 0.4722383899322484,0.2911219374011565 0.47159542485796535,0.28947970913825327 C 0.470952362697127,0.28781925526584473 0.471039559940491,0.2861980794320421 0.4718572784382666,0.2846113133036895 C 0.47267712371173515,0.2830449721735809 0.4727721321522011,0.2814358344475187 0.47214258906661954,0.2797790679423549 C 0.4715263565082689,0.2781350110643072 0.4716297175873347,0.2765375132321338 0.4724529826934476,0.27498177721687245 C 0.4732797676939208,0.273446086406638 0.47339202285552423,0.27185983020693627 0.4727900852765008,0.27021824514702597 C 0.4721909664507974,0.26855672657356183 0.47231509338299876,0.2669511210341221 0.4731628388218512,0.26539660695258893 C 0.47403976043146057,0.2638193930071098 0.4741781460667745,0.2621798431881941 0.4735784112949157,0.26047303398626437 C 0.4730002169063607,0.2587949456696258 0.47314794359998336,0.25718340091045966 0.474022034993771,0.2556335602973835 C 0.47490132946504926,0.2541057178299223 0.47506017578022497,0.2525063229663167 0.47449905094911204,0.25083057278088683 C 0.4739541465816373,0.2491664714286591 0.47412431026953517,0.24757902038835325 0.4750100530082859,0.24606345260116436 C 0.47590151195983066,0.24456957775880037 0.47608319066706156,0.24299386565872977 0.47555563470465073,0.24133158449376604 C 0.47503048393965686,0.23963451059138113 0.47522941638746224,0.23802704590212534 0.47615302943510623,0.23650436326692031 C 0.47708324415082937,0.23500413883510826 0.47729476359377665,0.23340863537238343 0.4767882229492844,0.2317130616388038 C 0.4762991364626125,0.23002825154155107 0.47652345747053443,0.22844448694607522 0.4774618596010291,0.22695701186383355 C 0.4784330838176102,0.22545230865715077 0.47867701813502744,0.22383772512435687 0.4781943950793281,0.2221084127287406 C 0.47774232707611763,0.22043472980305215 0.4779932555280256,0.21887407771459122 0.4789479339642353,0.21742176988084858 C 0.4799364564333276,0.21595284779622453 0.48020817005026706,0.2143615321871704 0.47976389076134573,0.21264304438971932 C 0.47933836498146376,0.21093427027526898 0.4796244990761597,0.2093543853961242 0.4806231522959056,0.20789864541439193 C 0.48163055871062677,0.2064654400290129 0.48193134572182594,0.20489674499531182 0.48152641658216017,0.20318784957810204 C 0.4811305119605208,0.20144322761210834 0.48145469462596147,0.19984463387771131 0.48249993808745373,0.19838726785499344 C 0.48352786793626207,0.19698969330454955 0.48385905912845484,0.19544293352839176 0.4834945062193592,0.19374234366212872 C 0.483140207752221,0.19200544997200894 0.48349608446618075,0.19042886111230117 0.48456320504630634,0.18900784264294107 C 0.48564083762516363,0.18760971581554395 0.48601314090117265,0.1860438848052617 0.4856812328877807,0.1843056474774678 C 0.48536961327172484,0.18257509718432632 0.4857585943825247,0.18101976361246574 0.48684934431657007,0.17963497615069235 C 0.4879512440415027,0.1782727219799587 0.48835715427737336,0.17672762535572548 0.48806829395813023,0.1749950464079873 C 0.48779329304568436,0.17322512229842948 0.48822746029291836,0.1716507690262099 0.4893720994885767,0.17026725886465366 C 0.4905000805277517,0.1689407366184342 0.49094105317873965,0.1674155780376077 0.4906963416666695,0.16568720312540136 C 0.49046679546722316,0.1639207432215917 0.49093745290888063,0.1623662911800767 0.4921097273591376,0.1610191790368668 C 0.49326530221987686,0.15972778439461258 0.49374236836508845,0.15822149508658342 0.4935423584073761,0.1564957877797591 C 0.4933588306490729,0.15473121945533347 0.4938670358231655,0.15319557238664538 0.49506850005164965,0.15188423508036736 C 0.4962837523724442,0.15059535805152638 0.49681137237592266,0.14906881434807073 0.49665294448612046,0.14730001981375382 C 0.4965165921497728,0.14553576430377663 0.49706389807607027,0.14401804300145354 0.49829650580517176,0.1427422982438935 C 0.49954357808953115,0.14148864364116684 0.5001108403732838,0.1399794654803397 0.49999999612481755,0.13821023175327005 C 0.49999999741654505,0.1365435617565492 0.49999999870827255,0.13487689175982834 0.5,0.13321022176310748 C 0.4808035103797128,0.17430789520629297 0.47248338953626234,0.21540556864947846 0.46853825241392544,0.2607143711411545 C 0.46590816099903415,0.2909202394689385 0.4652225067935266,0.3229977207071628 0.464554953484596,0.3581945567961208 C 0.4632198468667348,0.4285882289740368 0.46195714383518127,0.5114593205548877 0.44535615388748034,0.6167897670610216 C 0.44702282051689407,0.6167897670610216 0.44868948714630785,0.6167897670610216 0.45035615377572163,0.6167897670610216 "  fill="url(#AB)"  /><use xlink:href="#PB"  fill="url(#CB)" /><path d="M 0.5496438462242783,0.6167897670610216 C 0.5496438462242783,0.6167897670610216 0.5496438462242783,0.6167897670610216 0.5496438462242783,0.6167897670610216 C 0.54769079327217,0.6137865666303036 0.5471917849381884,0.6105585876647299 0.5481453227181202,0.6070961366587001 C 0.5486110497851889,0.6054448696140156 0.5483798704369891,0.6038977374136585 0.547451090450191,0.6024500940748608 C 0.5464731112409454,0.6009181834222959 0.5462337496961798,0.5992784522511757 0.5467322870217197,0.5975259765073291 C 0.5472340126624792,0.5957925433651354 0.547001991034618,0.5941636244725323 0.5460355253854703,0.5926343282442346 C 0.5451410656833209,0.5912120017419451 0.5449300997793863,0.5896946455506472 0.5454019941505885,0.5880777031038652 C 0.5459082397687491,0.5863712572739138 0.5456900815931964,0.5847630808950479 0.5447468645027169,0.5832483446710109 C 0.5438160477381945,0.5817458970849355 0.5436048603014001,0.5801483200202724 0.544112668004,0.578450816010127 C 0.5446232131420534,0.5767717196602705 0.5444188707684945,0.5751846694271012 0.5434990272504696,0.5736848994554236 C 0.5425912259113059,0.5721973229237358 0.5423936029236011,0.570620727025827 0.5429055648325779,0.5689503773004972 C 0.5434522534626735,0.5671952879622612 0.5432495009189777,0.5655315286011148 0.54229669834284,0.5639541030070899 C 0.5414119683172945,0.5624817956789487 0.541227807145346,0.5609265328657205 0.5417436617975695,0.5592836441686972 C 0.5422617948188999,0.5576585115891518 0.5420839681487053,0.5561134811154483 0.5412096477798428,0.5546439130762291 C 0.5402930636771048,0.5530954940691291 0.5401109229993338,0.551465029709479 0.5406626787845763,0.5497476237710112 C 0.54121671270869,0.5480495859402801 0.5410414304597829,0.546430504079645 0.5401363056715192,0.5448855161440767 C 0.539243503031203,0.5433536643434091 0.539074928468978,0.5417458780532142 0.5396300757614515,0.5400573291486573 C 0.5401872372933296,0.5383877705600874 0.5400252196724317,0.5367911928837912 0.5391435363656261,0.5352628016540018 C 0.5382737555436254,0.5337474408733978 0.5381181441186997,0.5321619848544589 0.5386762347952954,0.5305016725293581 C 0.5392360776319758,0.5288599737435242 0.5390867216576678,0.5272855524254013 0.5382277183617121,0.5257736806439748 C 0.5373306853067512,0.5241868163053072 0.5371791943861812,0.5225317128113974 0.5377727906781754,0.5208033999455375 C 0.5383349275104979,0.5191897332902515 0.5381979757361331,0.5176377566250745 0.5373615240937915,0.5161428094194835 C 0.5364879036668264,0.5145737511434584 0.5363492083293816,0.5129422174885284 0.5369450215843099,0.5112433090173707 C 0.5375421767531123,0.5095641151622837 0.5374097985537083,0.5079445511283491 0.5365474894590907,0.5063797534225885 C 0.5356970613343043,0.5048289206968615 0.5355708213336519,0.503221223104449 0.536168390362918,0.5015518327868728 C 0.5367669989945658,0.49990171789663534 0.5366467182496751,0.49830578352356913 0.5358071869294629,0.4967592371337238 C 0.5349790493719243,0.4952265395304376 0.5348645489398055,0.49364226515454196 0.5354633417923962,0.49200165648664174 C 0.5360628741008371,0.4903798852527405 0.5359539750385002,0.4888071676518397 0.5351363175853888,0.4872787808691268 C 0.534285055225494,0.48568024434147267 0.5341759852872348,0.4840325772096799 0.5348087802374799,0.48233083158817047 C 0.5354087098363967,0.48073742504871886 0.5353107627390354,0.47918813882457856 0.5345146448137594,0.4776783204645251 C 0.533685581201858,0.4760992592874317 0.5335876726274753,0.4744760951477205 0.5342206250746575,0.47280395374142403 C 0.5348537056696623,0.47115153235137497 0.534761218459789,0.46954077186779275 0.5339428857092479,0.4679668352344465 C 0.5331355741813519,0.4664076707112932 0.533048297885039,0.46480919254009656 0.5336807947327068,0.46316660054797126 C 0.5343130762382431,0.46154322210093396 0.5342308004011067,0.45995690484279106 0.5334337201498953,0.458402885119445 C 0.5326059770478045,0.45678276449945315 0.532524541714996,0.45512596129613014 0.533189169604072,0.45342750018860134 C 0.5338199831257108,0.4518330296780207 0.5337473120399912,0.450271293891616 0.5329709381182369,0.448737602992572 C 0.5321643728738639,0.4471387445136858 0.5320925811209312,0.4455075474064842 0.5327553472713675,0.443839113244285 C 0.5334170914662291,0.4421905645016144 0.5333498830772161,0.4405722898088617 0.5325535202799354,0.43897942954489383 C 0.5317674543654796,0.4374022557758655 0.5317045838796524,0.43579676196741585 0.5323647200246291,0.4341581268789514 C 0.5330234440329104,0.4325387957624668 0.532964665986634,0.43094594124411495 0.5321882093774251,0.42937478003863916 C 0.5314214058454021,0.42781916694223154 0.5313664747750415,0.426238810119772 0.5320232512102999,0.4246289638161384 C 0.5326782283021625,0.42303784167218644 0.5326268987440829,0.4214698409514137 0.5318691083952303,0.4199202530036305 C 0.5310831183715495,0.41830964811499494 0.531032829882035,0.4166763907529969 0.5317180919121482,0.4150155763040826 C 0.5324009287215725,0.41337450766633677 0.5323540561185891,0.41175455281428547 0.5315773333464442,0.41015084708133753 C 0.5308098013843293,0.40856373399248963 0.5307660605153095,0.4069569178089597 0.5314459793871168,0.405325573319109 C 0.5321230327056861,0.40371331148975953 0.5320821394157895,0.40211947006175885 0.5313231767163379,0.4005392627861959 C 0.5305726708922053,0.3989754979064273 0.5305343410265917,0.39739446732096373 0.5312080720162793,0.3957914232513971 C 0.5319103368739782,0.3941316785387224 0.5318726215993073,0.3924889226889682 0.5310948129346434,0.39085822256496094 C 0.5303254596844131,0.38924516747760163 0.530289919206975,0.3876161031657413 0.5309880847755444,0.38596613760740606 C 0.5316506707938435,0.3844092178107879 0.531618474399036,0.3828668008951031 0.5308913989064973,0.38133425503741536 C 0.5301030514127669,0.3796740297279577 0.5300693844030613,0.37799863909840564 0.5307902967765518,0.37630305201050696 C 0.5314751404049309,0.3746999783780385 0.531444164050457,0.3731108580587707 0.5306972746922434,0.37153091898111357 C 0.5299571741670177,0.36996829885404975 0.5299270657648038,0.3683921163832822 0.5306068590711448,0.36679763834911805 C 0.5313120809179239,0.3651495194753621 0.531281177361037,0.36351532112310014 0.530514055598206,0.3618901358530182 C 0.529736972358872,0.36024873502956556 0.5297056203736568,0.358593211689871 0.5304199054936678,0.3569185943564445 C 0.5311126643465764,0.355298309982471 0.5310818231964406,0.35369191801884164 0.530327289428387,0.3520945945278349 C 0.5295784095717311,0.3505158594228009 0.5295470372863619,0.34892299265731114 0.5302330783624263,0.3473112109093314 C 0.5309270274597663,0.34568253834850105 0.5308940346709838,0.34406872740463834 0.530134000919912,0.342464931861089 C 0.5293788190835677,0.3408801270590337 0.5293444807451677,0.33927985453656306 0.5300308827879074,0.3376593087324189 C 0.5307240333275876,0.3360220462358643 0.5306871600197474,0.3344013933378819 0.5299201521351595,0.3327924832756734 C 0.5291729519110843,0.3312359204754853 0.5291346731051533,0.32966211496945996 0.529805200767479,0.3280663406758447 C 0.530495591461958,0.32641982549938137 0.5304529589997542,0.32479251413523713 0.5296771753571057,0.32317951982547743 C 0.5289043346469178,0.3215862826902276 0.5288584737707271,0.319972387502085 0.5295394550099598,0.3183329877914128 C 0.5302109992625277,0.31670985927466594 0.5301614569396569,0.3151090471201719 0.52939067926752,0.3135257441461767 C 0.5286216590417212,0.3119618605349415 0.5285679822372229,0.31037379818229216 0.5292294876644974,0.3087567881936745 C 0.5298941612021664,0.3071223096158855 0.5298346568715087,0.3055146347913646 0.5290507959831436,0.3039289359300048 C 0.5282675199308509,0.3023630077756632 0.5282027575840681,0.3007679073922578 0.5288563144637798,0.2991388447502794 C 0.5295115549933859,0.29749200893218497 0.5294395814112467,0.2958775936474561 0.5286401775832648,0.29429075086462436 C 0.5278400656816923,0.2927240143166848 0.5277616100677516,0.2911219374011565 0.5284045751420346,0.28947970913825327 C 0.529047637302873,0.28781925526584473 0.5289604400595089,0.2861980794320421 0.5281427215617334,0.2846113133036895 C 0.5273228762882649,0.2830449721735809 0.5272278678477988,0.2814358344475187 0.5278574109333805,0.2797790679423549 C 0.5284736434917311,0.2781350110643072 0.5283702824126653,0.2765375132321338 0.5275470173065524,0.27498177721687245 C 0.5267202323060791,0.273446086406638 0.5266079771444758,0.27185983020693627 0.5272099147234992,0.27021824514702597 C 0.5278090335492026,0.26855672657356183 0.5276849066170013,0.2669511210341221 0.5268371611781488,0.26539660695258893 C 0.5259602395685394,0.2638193930071098 0.5258218539332256,0.2621798431881941 0.5264215887050843,0.26047303398626437 C 0.5269997830936393,0.2587949456696258 0.5268520564000166,0.25718340091045966 0.5259779650062291,0.2556335602973835 C 0.5250986705349507,0.2541057178299223 0.524939824219775,0.2525063229663167 0.525500949050888,0.25083057278088683 C 0.5260458534183627,0.2491664714286591 0.5258756897304648,0.24757902038835325 0.5249899469917141,0.24606345260116436 C 0.5240984880401693,0.24456957775880037 0.5239168093329385,0.24299386565872977 0.5244443652953492,0.24133158449376604 C 0.5249695160603431,0.23963451059138113 0.5247705836125378,0.23802704590212534 0.5238469705648938,0.23650436326692031 C 0.5229167558491706,0.23500413883510826 0.5227052364062234,0.23340863537238343 0.5232117770507156,0.2317130616388038 C 0.5237008635373874,0.23002825154155107 0.5234765425294656,0.22844448694607522 0.5225381403989708,0.22695701186383355 C 0.5215669161823898,0.22545230865715077 0.5213229818649725,0.22383772512435687 0.5218056049206719,0.2221084127287406 C 0.5222576729238824,0.22043472980305215 0.5220067444719745,0.21887407771459122 0.5210520660357647,0.21742176988084858 C 0.5200635435666724,0.21595284779622453 0.5197918299497329,0.2143615321871704 0.5202361092386543,0.21264304438971932 C 0.5206616350185362,0.21093427027526898 0.5203755009238402,0.2093543853961242 0.5193768477040944,0.20789864541439193 C 0.5183694412893732,0.2064654400290129 0.5180686542781741,0.20489674499531182 0.5184735834178398,0.20318784957810204 C 0.5188694880394792,0.20144322761210834 0.5185453053740385,0.19984463387771131 0.5175000619125463,0.19838726785499344 C 0.516472132063738,0.19698969330454955 0.5161409408715452,0.19544293352839176 0.5165054937806408,0.19374234366212872 C 0.516859792247779,0.19200544997200894 0.5165039155338192,0.19042886111230117 0.5154367949536937,0.18900784264294107 C 0.5143591623748364,0.18760971581554395 0.5139868590988274,0.1860438848052617 0.5143187671122194,0.1843056474774678 C 0.5146303867282751,0.18257509718432632 0.5142414056174753,0.18101976361246574 0.51315065568343,0.17963497615069235 C 0.5120487559584973,0.1782727219799587 0.5116428457226266,0.17672762535572548 0.5119317060418698,0.1749950464079873 C 0.5122067069543157,0.17322512229842948 0.5117725397070816,0.1716507690262099 0.5106279005114234,0.17026725886465366 C 0.5094999194722483,0.1689407366184342 0.5090589468212603,0.1674155780376077 0.5093036583333306,0.16568720312540136 C 0.5095332045327768,0.1639207432215917 0.5090625470911194,0.1623662911800767 0.5078902726408624,0.1610191790368668 C 0.5067346977801231,0.15972778439461258 0.5062576316349116,0.15822149508658342 0.5064576415926239,0.1564957877797591 C 0.5066411693509272,0.15473121945533347 0.5061329641768345,0.15319557238664538 0.5049314999483503,0.15188423508036736 C 0.5037162476275558,0.15059535805152638 0.5031886276240773,0.14906881434807073 0.5033470555138795,0.14730001981375382 C 0.5034834078502273,0.14553576430377663 0.5029361019239298,0.14401804300145354 0.5017034941948282,0.1427422982438935 C 0.5004564219104688,0.14148864364116684 0.4998891596267162,0.1399794654803397 0.5000000038751824,0.13821023175327005 C 0.500000002583455,0.1365435617565492 0.5000000012917274,0.13487689175982834 0.5,0.13321022176310748 C 0.5191964896202872,0.17430789520629297 0.5275166104637377,0.21540556864947846 0.5314617475860746,0.2607143711411545 C 0.5340918390009659,0.2909202394689385 0.5347774932064734,0.3229977207071628 0.5354450465154039,0.3581945567961208 C 0.5367801531332652,0.4285882289740368 0.5380428561648187,0.5114593205548877 0.5546438461125196,0.6167897670610216 C 0.552977179483106,0.6167897670610216 0.5513105128536921,0.6167897670610216 0.5496438462242783,0.6167897670610216 "  fill="url(#AB)"  /><path d="M 0.4474999933121726,0.6167897670610216 C 0.4824999977707242,0.6167897670610216 0.5175000022292758,0.6167897670610216 0.5525000066878274,0.6167897670610216 C 0.5532759642494599,0.6167897670610216 0.5535000067353248,0.6170138095468866 0.5535000067353248,0.6177897671085191 C 0.5535000067353248,0.6204564336690149 0.5535000067353248,0.6231231002295109 0.5535000067353248,0.6257897667900068 C 0.5535000067353248,0.6265657243516393 0.5532759642494599,0.6267897668375042 0.5525000066878274,0.6267897668375042 C 0.5175000022292758,0.6267897668375042 0.4824999977707242,0.6267897668375042 0.4474999933121726,0.6267897668375042 C 0.44672403575054015,0.6267897668375042 0.44649999326467515,0.6265657243516393 0.44649999326467515,0.6257897667900068 C 0.44649999326467515,0.6231231002295109 0.44649999326467515,0.6204564336690149 0.44649999326467515,0.6177897671085191 C 0.44649999326467515,0.6170138095468866 0.44672403575054015,0.6167897670610216 0.4474999933121726,0.6167897670610216 "  fill="url(#DB)"  /><g id="hilt" ><path d="M 0.4875662660397679,0.6267897668375042 C 0.4901884192345257,0.690008498357114 0.4901884192345257,0.7532272298767237 0.4875662660397679,0.8183616729209078 C 0.4958554220132559,0.8183616729209078 0.5041445779867441,0.8183616729209078 0.5124337339602321,0.8183616729209078 C 0.5098115807654743,0.7532272298767237 0.5098115807654743,0.690008498357114 0.5124337339602321,0.6267897668375042 "  fill="url(#EB)"  /><g id="wraps" ><path d="M 0.5124337339602321,0.6267897668375042 C 0.5063709395054721,0.635806579641382 0.49832705114340226,0.6424102259006799 0.4883020688740224,0.6466007056153977 C 0.4884528872285214,0.6511984968332697 0.48858984511433534,0.6557973456966714 0.4887129425314637,0.6603979884294733 C 0.4984249587576205,0.6561108099273911 0.5061551079646234,0.6495045866286517 0.5119033901524725,0.640579318533255 C 0.5120663109530403,0.6359823104854244 0.5122430922222936,0.6313860386614644 0.5124337339602321,0.6267897668375042 "  fill="url(#FB)"  /><path d="M 0.5114562091568252,0.6543732875722283 C 0.5059676319484729,0.6632257588128737 0.4984957800217954,0.669836674442114 0.4890406533767927,0.6742060344599494 C 0.48913602985655025,0.678811001155422 0.48921754586762256,0.6834184979441651 0.4892852014100093,0.6880292610500491 C 0.49853951493592674,0.6835922367880714 0.5058085114570204,0.6769745135372707 0.5110921909732904,0.6681760912976469 C 0.5111996698991166,0.6635731934588529 0.5113210092936282,0.6589725042916702 0.5114562091568252,0.6543732875722283 "  fill="url(#GB)"  /><path d="M 0.5108113356018679,0.6819921470527331 C 0.505677746490266,0.690755268145065 0.4985561635000145,0.6973819143084855 0.4894465866311135,0.7018720855429946 C 0.48948652123612946,0.7064901175070311 0.48951259537246017,0.711112152012079 0.4895248090401053,0.7157389252820087 C 0.49854572571405875,0.711210124346579 0.5055753370482097,0.7045724399794794 0.5106136430425577,0.6958258721807096 C 0.5106656800936424,0.6912111947599887 0.5107315776134125,0.68660019845862 0.5108113356018679,0.681992147052733 "  fill="url(#HB)"  /><path d="M 0.51049911329536,0.709681684024799 C 0.5055012831308513,0.7184304463837363 0.49850820157805953,0.7250812842455746 0.4895198686369848,0.7296341976103138 C 0.48950436136725917,0.7342711846338776 0.48947499362884817,0.7389136466461937 0.4894317654217518,0.7435623198711326 C 0.49844359109201675,0.7389998113486946 0.505455584738191,0.7323337047010584 0.5104677463602746,0.7235639999282238 C 0.5104643415366177,0.7189316531346127 0.5104747971816461,0.7143044599080945 0.51049911329536,0.709681684024799 "  fill="url(#IB)"  /><path d="M 0.5105195422373017,0.7374772372342067 C 0.5054382418702288,0.7462866322746682 0.4983518942559305,0.7529701229991618 0.4892604993944065,0.7575277094076875 C 0.4891895502499395,0.7621895412817422 0.489104740636787,0.76685832059229 0.48900607055494894,0.7715347835632013 C 0.49823311106980084,0.7669966365401988 0.5054492545269649,0.7602936464477884 0.5106545009264409,0.75142581328597 C 0.5105956542280425,0.7467699073285052 0.5105506679983294,0.7421206273858743 0.5105195422373017,0.7374772372342067 "  fill="url(#JB)"  /><path d="M 0.5108726224276927,0.7654141454267367 C 0.5054886227083988,0.7743591645636414 0.4980872415336275,0.781083769315028 0.48866847890337894,0.7855879596808963 C 0.4885420878841701,0.7902805261964053 0.488401836396276,0.7949815125961482 0.48824772443969644,0.7996916551039955 C 0.4979142856474107,0.7952359386668719 0.5055563464145307,0.7884876039654497 0.5111739067410568,0.7794466509997289 C 0.5110596181679168,0.7747612960874469 0.510959190063462,0.7700840396377396 0.5108726224276927,0.7654141454267367 "  fill="url(#KB)"  /><path d="M 0.5115583538665334,0.7935277473481696 C 0.505652425645361,0.8026833819964363 0.49771424341115034,0.8094575619389535 0.48774380716390175,0.813850287175721 C 0.48774380716390175,0.813850287175721 0.48774380716390175,0.813850287175721 0.48774380716390175,0.813850287175721 C 0.49678948075439266,0.8172410356985821 0.5049427133425108,0.8136744286633731 0.5120259638041222,0.807661851815281 C 0.5118562333562405,0.8029411581572184 0.5117003633770443,0.7982300354094715 0.5115583538665334,0.7935277473481696 "  fill="url(#LB)"  /></g><path d="M 0.4855927727781954,0.8183616729209078 C 0.49519759092606513,0.8183616729209078 0.5048024090739349,0.8183616729209078 0.5144072272218047,0.8183616729209078 C 0.5167350998163687,0.8183616729209078 0.5174072272478817,0.8190338003524208 0.5174072272478817,0.8213616729469848 C 0.5174072272478817,0.8226950061884276 0.5174072272478817,0.8240283394298705 0.5174072272478817,0.8253616726713133 C 0.5174072272478817,0.8276895452658773 0.5167350998163687,0.8283616726973904 0.5144072272218047,0.8283616726973904 C 0.5048024090739349,0.8283616726973904 0.49519759092606513,0.8283616726973904 0.4855927727781954,0.8283616726973904 C 0.48326490018363133,0.8283616726973904 0.48259277275211837,0.8276895452658773 0.48259277275211837,0.8253616726713133 C 0.48259277275211837,0.8240283394298705 0.48259277275211837,0.8226950061884276 0.48259277275211837,0.8213616729469848 C 0.48259277275211837,0.8190338003524208 0.48326490018363133,0.8183616729209078 0.4855927727781954,0.8183616729209078 "  fill="url(#MB)"  /></g><g id="top" ></g></svg>